<svg xmlns="http://www.w3.org/2000/svg" xmlns:xlink="http://www.w3.org/1999/xlink" x="0px" y="0px" width="220.4px" height="130.9px" viewBox="0 0 220.4 130.9"> <g> <polyline fill="none" stroke="#5AFF4D" stroke-miterlimit="10" points="15.3,34 15.3,25.5 148.3,25.5 148.3,34 	"/> <line fill="none" stroke="#5AFF4D" stroke-miterlimit="10" x1="82.3" y1="26" x2="82.3" y2="15"/> <line fill="none" stroke="#5AFF4D" stroke-miterlimit="10" x1="53.3" y1="34" x2="53.3" y2="26"/> <g> <path fill="#5AFF4D" d="M16,42.5h1.4l3.3,9.9h-1.3l-0.9-3h-3.6l-1,3h-1.3L16,42.5z M15.2,48.4h3l-0.5-1.5c-0.3-1.1-0.7-2.2-1-3.3 h-0.1c-0.3,1.1-0.6,2.2-1,3.3L15.2,48.4z"/> </g> <rect x="1.2" y="33.6" fill="none" stroke="#fff" stroke-miterlimit="10" width="27.5" height="27.5"/> <polygon fill="#fff" points="8,43.5 4.7,40.3 8,37.1 	"/> <g> <path fill="#5AFF4D" d="M47.2,42.5h2.4c3,0,4.6,1.8,4.6,4.9c0,3.2-1.6,5-4.5,5h-2.5V42.5z M49.6,51.4c2.3,0,3.4-1.5,3.4-4 c0-2.5-1.1-3.9-3.4-3.9h-1.1v7.9H49.6z"/> </g> <rect x="38.9" y="33.6" fill="none" stroke="#fff" stroke-miterlimit="10" width="27.5" height="27.5"/> <polygon fill="#fff" points="59,43.5 62.2,40.3 59,37.1 	"/> <g> <g> <path fill="#5AFF4D" d="M113.2,50.4l0.5-0.6c0.5,0.5,1.2,0.8,1.9,0.8c0.9,0,1.5-0.4,1.5-1.1c0-0.7-0.5-0.9-1.2-1.2l-1-0.4 c-0.7-0.3-1.4-0.7-1.4-1.7c0-1,0.9-1.8,2.2-1.8c0.8,0,1.6,0.3,2,0.8l-0.4,0.5c-0.4-0.4-0.9-0.6-1.6-0.6c-0.8,0-1.3,0.4-1.3,1 c0,0.6,0.6,0.9,1.2,1.1l0.9,0.4c0.8,0.3,1.5,0.8,1.5,1.8c0,1.1-0.9,1.9-2.4,1.9C114.6,51.4,113.8,51,113.2,50.4z"/> <path fill="#5AFF4D" d="M122.7,44.7h2c1.5,0,2.5,0.5,2.5,2c0,1.4-1,2.1-2.5,2.1h-1.2v2.6h-0.8V44.7z M124.6,48 c1.2,0,1.7-0.4,1.7-1.4c0-1-0.6-1.3-1.7-1.3h-1.1V48H124.6z"/> <path fill="#5AFF4D" d="M133.4,44.7h1l2.2,6.7h-0.9l-0.6-2h-2.4l-0.6,2h-0.9L133.4,44.7z M132.8,48.6h2l-0.3-1 c-0.2-0.7-0.5-1.5-0.7-2.2h0c-0.2,0.8-0.4,1.5-0.7,2.2L132.8,48.6z"/> <path fill="#5AFF4D" d="M140.6,48c0-2.1,1.2-3.5,3-3.5c0.8,0,1.4,0.4,1.8,0.8l-0.5,0.5c-0.3-0.4-0.8-0.6-1.3-0.6 c-1.3,0-2.1,1-2.1,2.7c0,1.7,0.8,2.7,2.1,2.7c0.6,0,1.1-0.3,1.5-0.7l0.5,0.5c-0.5,0.6-1.2,1-2.1,1 C141.8,51.4,140.6,50.2,140.6,48z"/> <path fill="#5AFF4D" d="M150.2,44.7h4.1v0.7h-3.3v2.1h2.8v0.7h-2.8v2.4h3.4v0.7h-4.2V44.7z"/> <path fill="#5AFF4D" d="M159.2,44.7h1.9c1.4,0,2.3,0.5,2.3,1.6c0,0.7-0.4,1.2-1.2,1.5v0c1,0.2,1.5,0.7,1.5,1.6 c0,1.3-1,1.9-2.5,1.9h-2V44.7z M161,47.5c1.1,0,1.6-0.4,1.6-1.1c0-0.7-0.5-1-1.6-1H160v2.1H161z M161.1,50.6 c1.1,0,1.8-0.4,1.8-1.3c0-0.8-0.6-1.2-1.8-1.2H160v2.4H161.1z"/> <path fill="#5AFF4D" d="M169.9,44.7h1l2.2,6.7h-0.9l-0.6-2h-2.4l-0.6,2h-0.9L169.9,44.7z M169.4,48.6h2l-0.3-1 c-0.2-0.7-0.5-1.5-0.7-2.2h0c-0.2,0.8-0.4,1.5-0.7,2.2L169.4,48.6z"/> <path fill="#5AFF4D" d="M177.5,44.7h2.1c1.4,0,2.3,0.5,2.3,1.9c0,1-0.6,1.7-1.5,1.9l1.7,2.9h-1l-1.6-2.8h-1.2v2.8h-0.8V44.7z M179.4,47.8c1,0,1.6-0.4,1.6-1.3c0-0.9-0.6-1.2-1.6-1.2h-1.1v2.5H179.4z"/> </g> </g> <rect x="77.2" y="33.6" fill="none" stroke="#fff" stroke-miterlimit="10" width="141.4" height="27.5"/> <g> <path fill="#fff" d="M198.5,38.7h0.4v2.6h1.4v0.3h-1.8V38.7z"/> <path fill="#fff" d="M202.1,38.7h0.4l1,2.9h-0.4l-0.3-0.9h-1l-0.3,0.9h-0.4L202.1,38.7z M201.9,40.4h0.9l-0.1-0.4 c-0.1-0.3-0.2-0.6-0.3-1h0c-0.1,0.3-0.2,0.6-0.3,1L201.9,40.4z"/> <path fill="#fff" d="M204.4,41.2l0.2-0.3c0.2,0.2,0.5,0.4,0.8,0.4c0.4,0,0.6-0.2,0.6-0.5c0-0.3-0.2-0.4-0.5-0.5l-0.4-0.2 c-0.3-0.1-0.6-0.3-0.6-0.7c0-0.4,0.4-0.8,0.9-0.8c0.4,0,0.7,0.1,0.9,0.4l-0.2,0.2c-0.2-0.2-0.4-0.3-0.7-0.3 c-0.3,0-0.6,0.2-0.6,0.4c0,0.3,0.3,0.4,0.5,0.5l0.4,0.2c0.4,0.1,0.6,0.3,0.6,0.8c0,0.5-0.4,0.8-1,0.8 C205,41.6,204.6,41.4,204.4,41.2z"/> <path fill="#fff" d="M207.6,38.7h1.8V39H208v0.9h1.2v0.3H208v1h1.5v0.3h-1.8V38.7z"/> <path fill="#fff" d="M210.7,38.7h0.9c0.6,0,1,0.2,1,0.8c0,0.4-0.3,0.7-0.6,0.8l0.7,1.3h-0.4l-0.7-1.2H211v1.2h-0.4V38.7z M211.5,40c0.4,0,0.7-0.2,0.7-0.6c0-0.4-0.2-0.5-0.7-0.5H211V40H211.5z"/> <path fill="#fff" d="M201.4,43.9h0.8c0.6,0,1,0.2,1,0.7c0,0.3-0.2,0.5-0.5,0.6v0c0.4,0.1,0.7,0.3,0.7,0.7 c0,0.6-0.4,0.8-1.1,0.8h-0.9V43.9z M202.2,45.1c0.5,0,0.7-0.2,0.7-0.5c0-0.3-0.2-0.4-0.7-0.4h-0.4v0.9H202.2z M202.3,46.5 c0.5,0,0.8-0.2,0.8-0.6c0-0.4-0.3-0.5-0.8-0.5h-0.5v1.1H202.3z"/> <path fill="#fff" d="M204.6,43.9h1.8v0.3h-1.4v0.9h1.2v0.3h-1.2v1h1.5v0.3h-1.8V43.9z"/> <path fill="#fff" d="M208.3,43.9h0.4l1,2.9h-0.4l-0.3-0.9h-1l-0.3,0.9h-0.4L208.3,43.9z M208,45.6h0.9l-0.1-0.4 c-0.1-0.3-0.2-0.6-0.3-1h0c-0.1,0.3-0.2,0.6-0.3,1L208,45.6z"/> <path fill="#fff" d="M210.5,43.9h0.4l0.4,1.2l0.1,0.5h0l0.1-0.5l0.4-1.2h0.4v2.9h-0.4v-1.4c0-0.3,0-0.8,0.1-1h0l-0.2,0.6 l-0.4,1.1h-0.3l-0.4-1.1l-0.2-0.6h0c0,0.2,0.1,0.7,0.1,1v1.4h-0.3V43.9z"/> </g> <polygon fill="#5AFF4D" points="19.7,124.6 12.1,117 19.7,109.4 	"/> <polygon fill="#5AFF4D" points="48,109.4 55.6,117 48,124.6 	"/> <polyline fill="none" stroke="#5AFF4D" stroke-miterlimit="10" points="15.3,103 15.3,95.5 148.3,95.5 148.3,103 	"/> <line fill="none" stroke="#5AFF4D" stroke-miterlimit="10" x1="82.3" y1="96" x2="82.3" y2="85"/> <line fill="none" stroke="#5AFF4D" stroke-miterlimit="10" x1="53.3" y1="103" x2="53.3" y2="96"/> <rect x="1.2" y="102.9" fill="none" stroke="#fff" stroke-miterlimit="10" width="27.5" height="27.5"/> <rect x="38.9" y="102.9" fill="none" stroke="#fff" stroke-miterlimit="10" width="27.5" height="27.5"/> <rect x="77.9" y="102.9" fill="none" stroke="#fff" stroke-miterlimit="10" width="141.4" height="27.5"/> <g> <path fill="#5AFF4D" d="M124,113h1v7h3.9v0.9H124V113z"/> <path fill="#5AFF4D" d="M136.3,113h1.1l2.7,7.9H139l-0.7-2.4h-2.9l-0.8,2.4h-1L136.3,113z M135.6,117.7h2.4l-0.4-1.2 c-0.3-0.9-0.5-1.7-0.8-2.7h0c-0.3,0.9-0.5,1.8-0.8,2.7L135.6,117.7z"/> <path fill="#5AFF4D" d="M144.8,119.9l0.6-0.7c0.6,0.6,1.4,1,2.3,1c1.1,0,1.7-0.5,1.7-1.2c0-0.8-0.6-1.1-1.4-1.4l-1.1-0.5 c-0.8-0.3-1.7-0.9-1.7-2c0-1.2,1.1-2.1,2.6-2.1c1,0,1.8,0.4,2.4,1l-0.5,0.6c-0.5-0.5-1.1-0.7-1.9-0.7c-0.9,0-1.5,0.4-1.5,1.2 c0,0.8,0.7,1,1.4,1.3l1.1,0.5c1,0.4,1.7,0.9,1.7,2.1c0,1.2-1.1,2.2-2.8,2.2C146.5,121.1,145.5,120.6,144.8,119.9z"/> <path fill="#5AFF4D" d="M156.2,113h4.9v0.8h-3.9v2.5h3.3v0.9h-3.3v2.9h4v0.9h-5V113z"/> <path fill="#5AFF4D" d="M166.8,113h2.4c1.6,0,2.7,0.6,2.7,2.2c0,1.2-0.7,2-1.8,2.2l2,3.4h-1.1l-1.9-3.3h-1.4v3.3h-1V113z M169.1,116.8c1.2,0,1.9-0.5,1.9-1.5c0-1-0.7-1.4-1.9-1.4h-1.3v2.9H169.1z"/> </g> <g> <path fill="#0AFF4D" d="M61.7,9.8c0.7-2.7,1-4.3,1.1-4.9s0.1-1.6,0-3.3h1.1c0,1.6,0,2.8-0.1,3.4s-0.4,2.3-1.1,5L61.7,9.8z M66.1,4.2c0-0.5-0.1-0.8-0.3-1.1s-0.4-0.5-0.7-0.7l0.8-0.8c0.4,0.3,0.8,0.7,1,1.1s0.3,0.9,0.3,1.4v5.7h-1.1V4.2z M68.2,1.7 C68,1.5,67.9,1.2,67.9,1c0-0.3,0.1-0.5,0.3-0.7C68.4,0.1,68.6,0,68.9,0c0.3,0,0.5,0.1,0.7,0.3c0.2,0.2,0.3,0.4,0.3,0.7 c0,0.3-0.1,0.5-0.3,0.7c-0.2,0.2-0.4,0.3-0.7,0.3C68.6,1.9,68.4,1.8,68.2,1.7z M68.4,1c0,0.2,0.1,0.3,0.2,0.4 c0.1,0.1,0.2,0.2,0.4,0.2s0.3-0.1,0.4-0.2c0.1-0.1,0.2-0.2,0.2-0.4s-0.1-0.3-0.2-0.4S69,0.5,68.9,0.5s-0.3,0.1-0.4,0.2 S68.4,0.8,68.4,1z"/> <path fill="#0AFF4D" d="M74,5.5c-0.1-0.8-0.4-2-0.9-3.5l1.1-0.4c0.5,1.6,0.8,2.8,1,3.7L74,5.5z M77.2,4.3V1.6h1.2v2.6 c0,0.5-0.1,1.2-0.4,2.1s-1.2,2.1-2.6,3.8l-1-0.7c1.4-1.6,2.3-2.8,2.5-3.5S77.3,4.7,77.2,4.3z"/> <path fill="#0AFF4D" d="M84.9,1.6h4.5v8.1h-4.6V8.6h3.4V2.8h-3.3V1.6z"/> <path fill="#0AFF4D" d="M95.7,1.6l2.5,0.7l-0.3,1.1l-2.5-0.7L95.7,1.6z M95.7,9.8V8.6h1.1c0.5,0,0.9-0.2,1.2-0.5 c0.3-0.3,0.5-0.6,0.6-1.1l1.5-5.5l1.1,0.3l-1.5,5.4c-0.1,0.7-0.5,1.3-0.9,1.7S97.7,9.8,97,9.8H95.7z"/> </g> <g> <path fill="#0AFF4D" d="M65,79.4H67v1.1h-1.9c-0.4,0-0.7-0.1-1.1-0.3c-0.3-0.2-0.5-0.6-0.5-1.1v-2.5h-1.7v-1.1h1.7v-2h-1.3v-1.2 h4.3v1.2h-1.9v2h2.4v1.1h-2.4V79c0,0.1,0,0.2,0.1,0.3S64.9,79.4,65,79.4z"/> <path fill="#0AFF4D" d="M73,80.5c0.7-2.7,1-4.3,1.1-4.9s0.1-1.6,0-3.3h1.1c0,1.6,0,2.8-0.1,3.4s-0.4,2.3-1.1,5L73,80.5z M77.4,74.8c0-0.5-0.1-0.8-0.3-1.1s-0.4-0.5-0.7-0.7l0.8-0.8c0.4,0.3,0.8,0.7,1,1.1s0.3,0.9,0.3,1.4v5.7h-1.1V74.8z M79.2,70.9 h0.6v1.6h-0.6V70.9z M80.4,70.9h0.6v1.6h-0.6V70.9z"/> <path fill="#0AFF4D" d="M88.5,70.8h1.1v0.9c0,0.4-0.1,0.8-0.3,1.4s-0.5,1-0.9,1.4v5.8h-1.1v-4.7l-2,1.9l-0.8-0.8l2.6-2.5 c0.4-0.4,0.8-0.9,1-1.4s0.4-0.9,0.4-1.3V70.8z"/> <path fill="#0AFF4D" d="M95.5,72.3h1.1v8.2h-1.1V72.3z M99.2,79.1l1-2.1l1,0.4l-0.9,1.8c-0.2,0.4-0.4,0.7-0.7,0.9 s-0.6,0.3-1.1,0.3h-0.8v-8.2h1.1v7.1C99,79.4,99.1,79.3,99.2,79.1z"/> </g> <g> <path fill="#fff" d="M63.2,54.3h-2.9c-0.2,0.4-0.3,0.7-0.5,1h3V58h-0.6v-0.3h-2.3V58h-0.5v-2c-0.3,0.4-0.6,0.7-1,0.9 c-0.1-0.1-0.2-0.3-0.3-0.4c0.7-0.5,1.2-1.2,1.6-2.2h-1.4v-0.5h1.6c0.1-0.3,0.2-0.6,0.3-1l0.5,0.1c-0.1,0.4-0.2,0.7-0.2,0.9h2.7 V54.3z M62.3,55.9h-2.3v1.3h2.3V55.9z"/> </g> <g> <path fill="#fff" d="M82.7,50.3v-3.8h0.5v3.3c0.1,0,0.2,0,0.4-0.1c0.1-0.1,0.2-0.2,0.3-0.3l0.7-1.3l0.5,0.2l-0.7,1.3 c-0.1,0.2-0.3,0.4-0.5,0.5c-0.2,0.1-0.4,0.2-0.6,0.2H82.7z"/> <path fill="#fff" d="M87.6,48.6V48h3.5v0.6H87.6z"/> <path fill="#fff" d="M94.8,48.2V47H94v1.6h-0.5V47h-0.4v-0.5h0.4v-0.7H94v0.7h0.8v-0.7h0.5v0.7h0.4V47h-0.4v1.1 c0,0.3-0.1,0.6-0.3,1s-0.6,0.8-0.9,1.2l-0.4-0.3c0.4-0.5,0.7-0.8,0.9-1.1C94.7,48.7,94.8,48.4,94.8,48.2z M96.1,45.8h0.3v0.7h-0.3 V45.8z M96.6,45.8h0.3v0.7h-0.3V45.8z"/> <path fill="#fff" d="M98.2,48.6V48h3.5v0.6H98.2z"/> </g> <g> <path fill="#fff" d="M82.7,54.9v-3.3h0.5v0.7h1.7v0.5h-1.7v2c0,0.2,0,0.4,0.2,0.5c0.1,0.1,0.3,0.2,0.5,0.2H85v0.5h-1.1 c-0.4,0-0.7-0.1-0.9-0.4C82.8,55.6,82.7,55.3,82.7,54.9z M85.5,51.7h0.3v0.7h-0.3V51.7z M86,51.7h0.3v0.7H86V51.7z"/> <path fill="#fff" d="M87.6,54.4v-0.6h3.5v0.6H87.6z"/> <path fill="#fff" d="M95.1,54.1c0.2,0.3,0.4,0.6,0.4,0.8l0.2,1.2l-0.5,0.1l-0.1-0.5l-2,0.4l-0.1-0.5l0.4-0.1 c0.1-0.6,0.1-1,0.2-1.2c0-0.3,0.3-0.9,0.6-2l0.5,0.1c-0.4,1.1-0.6,1.7-0.6,2c0,0.2-0.1,0.6-0.1,1.1l1.1-0.2l0-0.1 c0-0.1-0.1-0.4-0.3-0.7L95.1,54.1z"/> </g> <g> <path fill="#fff" d="M6.9,57.4h1.5v0.5H4.8v-0.5h1.6V56H5.3v-0.3c-0.3,0.9-0.7,1.5-1.3,2c-0.1-0.1-0.2-0.3-0.3-0.4 c0.6-0.5,1.1-1.4,1.4-2.7H3.9v-0.4h1.3c0.1-0.3,0.1-0.6,0.2-0.9l0.5,0.1c0,0-0.1,0.3-0.2,0.8h2.5v0.4H5.6 c-0.1,0.4-0.2,0.7-0.3,0.9h2.8V56H6.9V57.4z"/> </g> <g> <path fill="#fff" d="M198.5,108.3h0.4v2.6h1.4v0.3h-1.8V108.3z"/> <path fill="#fff" d="M202.1,108.3h0.4l1,2.9h-0.4l-0.3-0.9h-1l-0.3,0.9h-0.4L202.1,108.3z M201.9,110h0.9l-0.1-0.4 c-0.1-0.3-0.2-0.6-0.3-1h0c-0.1,0.3-0.2,0.6-0.3,1L201.9,110z"/> <path fill="#fff" d="M204.4,110.8l0.2-0.3c0.2,0.2,0.5,0.4,0.8,0.4c0.4,0,0.6-0.2,0.6-0.5c0-0.3-0.2-0.4-0.5-0.5l-0.4-0.2 c-0.3-0.1-0.6-0.3-0.6-0.7c0-0.4,0.4-0.8,0.9-0.8c0.4,0,0.7,0.1,0.9,0.4l-0.2,0.2c-0.2-0.2-0.4-0.3-0.7-0.3 c-0.3,0-0.6,0.2-0.6,0.4c0,0.3,0.3,0.4,0.5,0.5l0.4,0.2c0.4,0.1,0.6,0.3,0.6,0.8c0,0.5-0.4,0.8-1,0.8 C205,111.2,204.6,111.1,204.4,110.8z"/> <path fill="#fff" d="M207.6,108.3h1.8v0.3H208v0.9h1.2v0.3H208v1h1.5v0.3h-1.8V108.3z"/> <path fill="#fff" d="M210.7,108.3h0.9c0.6,0,1,0.2,1,0.8c0,0.4-0.3,0.7-0.6,0.8l0.7,1.3h-0.4l-0.7-1.2H211v1.2h-0.4V108.3z M211.5,109.7c0.4,0,0.7-0.2,0.7-0.6c0-0.4-0.2-0.5-0.7-0.5H211v1.1H211.5z"/> <path fill="#fff" d="M201.4,113.6h0.8c0.6,0,1,0.2,1,0.7c0,0.3-0.2,0.5-0.5,0.6v0c0.4,0.1,0.7,0.3,0.7,0.7 c0,0.6-0.4,0.8-1.1,0.8h-0.9V113.6z M202.2,114.8c0.5,0,0.7-0.2,0.7-0.5c0-0.3-0.2-0.4-0.7-0.4h-0.4v0.9H202.2z M202.3,116.1 c0.5,0,0.8-0.2,0.8-0.6c0-0.4-0.3-0.5-0.8-0.5h-0.5v1.1H202.3z"/> <path fill="#fff" d="M204.6,113.6h1.8v0.3h-1.4v0.9h1.2v0.3h-1.2v1h1.5v0.3h-1.8V113.6z"/> <path fill="#fff" d="M208.3,113.6h0.4l1,2.9h-0.4l-0.3-0.9h-1l-0.3,0.9h-0.4L208.3,113.6z M208,115.3h0.9l-0.1-0.4 c-0.1-0.3-0.2-0.6-0.3-1h0c-0.1,0.3-0.2,0.6-0.3,1L208,115.3z"/> <path fill="#fff" d="M210.5,113.6h0.4l0.4,1.2l0.1,0.5h0l0.1-0.5l0.4-1.2h0.4v2.9h-0.4V115c0-0.3,0-0.8,0.1-1h0l-0.2,0.6 l-0.4,1.1h-0.3l-0.4-1.1l-0.2-0.6h0c0,0.2,0.1,0.7,0.1,1v1.4h-0.3V113.6z"/> </g> <g> <path fill="#fff" d="M63.2,124h-2.9c-0.2,0.4-0.3,0.7-0.5,1h3v2.6h-0.6v-0.3h-2.3v0.3h-0.5v-2c-0.3,0.4-0.6,0.7-1,0.9 c-0.1-0.1-0.2-0.3-0.3-0.4c0.7-0.5,1.2-1.2,1.6-2.2h-1.4v-0.5h1.6c0.1-0.3,0.2-0.6,0.3-1l0.5,0.1c-0.1,0.4-0.2,0.7-0.2,0.9h2.7 V124z M62.3,125.5h-2.3v1.3h2.3V125.5z"/> </g> <g> <path fill="#fff" d="M82.7,119.9v-3.8h0.5v3.3c0.1,0,0.2,0,0.4-0.1c0.1-0.1,0.2-0.2,0.3-0.3l0.7-1.3l0.5,0.2l-0.7,1.3 c-0.1,0.2-0.3,0.4-0.5,0.5c-0.2,0.1-0.4,0.2-0.6,0.2H82.7z"/> <path fill="#fff" d="M87.6,118.2v-0.6h3.5v0.6H87.6z"/> <path fill="#fff" d="M94.8,117.8v-1.1H94v1.6h-0.5v-1.6h-0.4v-0.5h0.4v-0.7H94v0.7h0.8v-0.7h0.5v0.7h0.4v0.5h-0.4v1.1 c0,0.3-0.1,0.6-0.3,1s-0.6,0.8-0.9,1.2l-0.4-0.3c0.4-0.5,0.7-0.8,0.9-1.1C94.7,118.3,94.8,118,94.8,117.8z M96.1,115.4h0.3v0.7 h-0.3V115.4z M96.6,115.4h0.3v0.7h-0.3V115.4z"/> <path fill="#fff" d="M98.2,118.2v-0.6h3.5v0.6H98.2z"/> </g> <g> <path fill="#fff" d="M82.7,124.6v-3.3h0.5v0.7h1.7v0.5h-1.7v2c0,0.2,0,0.4,0.2,0.5c0.1,0.1,0.3,0.2,0.5,0.2H85v0.5h-1.1 c-0.4,0-0.7-0.1-0.9-0.4C82.8,125.2,82.7,124.9,82.7,124.6z M85.5,121.3h0.3v0.7h-0.3V121.3z M86,121.3h0.3v0.7H86V121.3z"/> <path fill="#fff" d="M87.6,124.1v-0.6h3.5v0.6H87.6z"/> <path fill="#fff" d="M95.1,123.7c0.2,0.3,0.4,0.6,0.4,0.8l0.2,1.2l-0.5,0.1l-0.1-0.5l-2,0.4l-0.1-0.5l0.4-0.1 c0.1-0.6,0.1-1,0.2-1.2c0-0.3,0.3-0.9,0.6-2l0.5,0.1c-0.4,1.1-0.6,1.7-0.6,2c0,0.2-0.1,0.6-0.1,1.1l1.1-0.2l0-0.1 c0-0.1-0.1-0.4-0.3-0.7L95.1,123.7z"/> </g> <g> <path fill="#fff" d="M6.9,127h1.5v0.5H4.8V127h1.6v-1.4H5.3v-0.3c-0.3,0.9-0.7,1.5-1.3,2c-0.1-0.1-0.2-0.3-0.3-0.4 c0.6-0.5,1.1-1.4,1.4-2.7H3.9v-0.4h1.3c0.1-0.3,0.1-0.6,0.2-0.9l0.5,0.1c0,0-0.1,0.3-0.2,0.8h2.5v0.4H5.6 c-0.1,0.4-0.2,0.7-0.3,0.9h2.8v0.4H6.9V127z"/> </g> </g> </svg> 