<svg xmlns="http://www.w3.org/2000/svg" x="0px" y="0px" width="132.6px" height="11.1px" viewBox="0 0 132.6 11.1"> <g> <path fill="#fff" d="M4.9,0H6c0.6,0.9,1.4,1.8,2.3,2.6c1,0.8,1.9,1.5,2.8,1.9c-0.2,0.2-0.5,0.6-0.7,1C9.7,5.1,9,4.5,8.1,3.8v1H3 V3.9C2.2,4.5,1.5,5.1,0.7,5.5C0.6,5.3,0.3,5,0,4.6c0.9-0.5,1.9-1.3,2.9-2.2C3.8,1.6,4.5,0.8,4.9,0z M8.4,6.1l0.2-0.1l0.9,0.3 c-0.6,1.4-1.3,3-2.2,4.8l-1.2-0.3c0.6-1.2,1.2-2.4,1.7-3.6H1.4V6.1H8.4z M3.1,3.8h5c-1.1-1-2-1.9-2.5-2.7C4.9,2,4.1,2.9,3.1,3.8z" /> <path fill="#fff" d="M18.2,5.6v0.9c0,0.3-0.1,0.6-0.2,0.9S17.7,7.9,17.5,8S17,8.2,16.8,8.3s-0.5,0-0.8,0c-0.3,0-0.5-0.1-0.7-0.3 s-0.4-0.3-0.5-0.6s-0.2-0.6-0.2-0.9V5.7c0-0.7,0.2-1.2,0.7-1.5s1-0.5,1.8-0.5V2.5h-2.4V1.4H17V0.5h1.1v0.9h2.4v1.1h-2.4v2 c0.3,0,0.6,0.1,0.8,0.2s0.5,0.3,0.6,0.5s0.3,0.4,0.4,0.6s0.1,0.4,0.1,0.7c0,0.7-0.1,1.4-0.4,2.1l-1.1,2.1l-1-0.5l1-1.9 c0.2-0.4,0.3-1,0.3-1.8c0-0.2-0.1-0.4-0.2-0.6S18.4,5.6,18.2,5.6z M17,6.6V4.7c-0.4,0-0.6,0-0.8,0.1c-0.3,0.1-0.5,0.4-0.5,0.9v0.9 c0,0.2,0,0.3,0.1,0.4s0.2,0.2,0.3,0.2s0.3,0,0.4,0s0.2-0.1,0.3-0.2S17,6.7,17,6.6z"/> <path fill="#fff" d="M30.1,10.4l-2.8-3.8C27.1,6.4,27,6.3,27,6.2s-0.1-0.2-0.2-0.5s-0.1-0.4-0.1-0.6s0-0.3,0.1-0.4 s0.1-0.2,0.1-0.3S27,4.2,27,4s0.1-0.2,0.3-0.4l2.3-3.3l0.9,0.5l-2.2,3.3c-0.1,0.1-0.2,0.2-0.2,0.3S28,4.6,27.9,4.8S27.9,5,27.9,5.1 s0,0.2,0.1,0.4s0.1,0.2,0.1,0.3s0.1,0.2,0.2,0.3L31,9.8L30.1,10.4z M32.3,0.5h0.6v1.6h-0.6V0.5z M33.5,0.5H34v1.6h-0.6V0.5z"/> <path fill="#fff" d="M37.5,4.2L40,4.9L39.7,6l-2.5-0.7L37.5,4.2z M37.5,1.9L40,2.6l-0.3,1.1L37.2,3L37.5,1.9z M37.5,10.1V9h1.5 c0.7,0,1.3-0.5,1.6-1.6L41.9,2l1.1,0.3l-1.3,5.3c-0.5,1.8-1.3,2.6-2.5,2.6H37.5z"/> <path fill="#fff" d="M49.5,3.5h3.9v1h-1.5v4.2h1.7v1h-4.4v-1h1.7V4.6h-1.4V3.5z"/> <path fill="#fff" d="M65.4,2v1.9c0,0.3,0,0.6-0.1,0.9s-0.2,0.6-0.4,0.9l-0.9,1L63.2,6l0.8-0.9c0.2-0.3,0.3-0.6,0.3-1V3.2h-4.3V2 H65.4z M61.8,4.4H63v1.8c0,0.4-0.2,1-0.5,1.9s-0.8,1.6-1.2,2.3l-1-0.6c0.4-0.7,0.8-1.4,1.1-2.1s0.4-1.2,0.4-1.6V4.4z"/> <path fill="#fff" d="M73.4,5.7c0,0.5,0,1,0.1,1.3s0.2,0.7,0.3,1s0.4,0.6,0.7,0.8s0.6,0.4,1.1,0.5l-0.4,1 c-0.3-0.1-0.6-0.2-0.9-0.3s-0.5-0.3-0.7-0.5s-0.4-0.4-0.5-0.6s-0.3-0.5-0.4-0.7s-0.2-0.5-0.2-0.8s-0.1-0.6-0.1-0.8s0-0.6,0-0.9V0.5 h1.1V5.7z"/> <path fill="#fff" d="M82.9,4.4V3.3h2.4V2.5h-2.4V1.4h2.4V0.5h1.1v0.9h1.5v1.1h-1.5v0.8h1.5v1.1h-1.5v0.9h1.5v1.1h-1.5v2 c0,0.5-0.2,1-0.5,1.4s-0.8,0.6-1.5,0.5S83.4,10,83,9.7s-0.5-0.8-0.5-1.3V7.5c0-0.7,0.2-1.3,0.7-1.6s1.2-0.6,2.1-0.6V4.4H82.9z M85.3,8.4v-2c-0.5,0-0.9,0-1.2,0.2s-0.4,0.5-0.4,0.9v0.9c0,0.2,0.1,0.4,0.2,0.5s0.3,0.2,0.5,0.2s0.4-0.1,0.6-0.2 S85.3,8.6,85.3,8.4z"/> <path fill="#fff" d="M96,5.7c0,0.5,0,1,0.1,1.3s0.2,0.7,0.3,1s0.4,0.6,0.7,0.8s0.6,0.4,1.1,0.5l-0.4,1c-0.3-0.1-0.6-0.2-0.9-0.3 s-0.5-0.3-0.7-0.5s-0.4-0.4-0.5-0.6s-0.3-0.5-0.4-0.7S95.1,7.7,95,7.4s-0.1-0.6-0.1-0.8s0-0.6,0-0.9V0.5H96V5.7z"/> <path fill="#fff" d="M108.4,4v2h1.6v1h-1.6v1.4c0,0.5-0.1,0.8-0.4,1.1s-0.6,0.4-1,0.4s-0.7-0.1-1-0.4s-0.4-0.6-0.4-1.1V7.5 c0-1,0.6-1.5,1.8-1.5V2.3h1V3h1.6v1H108.4z M107.4,8.4V6.9c-0.2,0-0.4,0-0.5,0.1s-0.2,0.2-0.2,0.4v0.9c0,0.1,0,0.2,0.1,0.3 s0.2,0.1,0.3,0.1s0.2,0,0.3-0.1S107.4,8.5,107.4,8.4z"/> <path fill="#fff" d="M120.7,5.1c0-0.2,0-0.4-0.1-0.5s-0.3-0.1-0.5-0.1h-3.7V3.4h3.7c0.5,0,0.9,0.1,1.2,0.4s0.5,0.7,0.5,1.1v0.8 c0,0.3-0.1,0.6-0.2,0.9s-0.4,0.8-0.8,1.3l-1.7,2.4l-1-0.6l1.8-2.4c0.3-0.4,0.5-0.7,0.6-0.9s0.2-0.5,0.2-0.8V5.1z M120.6,0.5v1.1 h-3.5V0.5H120.6z"/> <path fill="#fff" d="M132.3,9.9c-0.2,0.2-0.5,0.3-0.8,0.3s-0.6-0.1-0.8-0.3c-0.2-0.2-0.3-0.4-0.3-0.7c0-0.3,0.1-0.6,0.3-0.8 c0.2-0.2,0.5-0.3,0.8-0.3s0.6,0.1,0.8,0.3c0.2,0.2,0.3,0.5,0.3,0.8C132.6,9.5,132.5,9.7,132.3,9.9z M131.1,7.2l-0.3-4.4l0-1.6h1.8 l0,1.6l-0.4,4.4H131.1z"/> </g> </svg> 