<svg version="1.1" id="Layer_1" xmlns="http://www.w3.org/2000/svg" xmlns:xlink="http://www.w3.org/1999/xlink" x="0px" y="0px" viewBox="0 0 1174.7 112.4" enable-background="new 0 0 1174.7 112.4" xml:space="preserve">
<g>
	<g>
		<path fill="#FFFFFF" d="M0,99.9l6.4-7.5c6.3,6.3,15.1,10.6,24.8,10.6c11.6,0,18.4-5.5,18.4-13.4c0-9-6.6-11.6-15.2-15.4l-12.1-5.3
			C13.8,65.6,4,59.5,4,47.1c0-12.9,11.6-22.4,27.7-22.4c10.6,0,19.9,4.3,26.1,10.4l-5.7,7c-5.5-4.9-12-8-20.8-8
			c-9.8,0-16.4,4.8-16.4,12.4c0,8.1,7.9,11.1,15.1,14.1l11.9,5.2C52.4,70,60.6,75.8,60.6,88.3c0,13.4-11.4,24.1-29.9,24.1
			C18.3,112.4,7.6,107.5,0,99.9z"/>
		<path fill="#FFFFFF" d="M275.4,26.2H301c18.7,0,31.3,6.3,31.3,24.9c0,17.8-12.8,26.2-31.3,26.2h-14.8v33.5h-10.7V26.2z
			 M299.7,68.6c14.8,0,21.8-5.4,21.8-17.4c0-12.3-7.2-16.3-21.8-16.3h-13.5v33.7H299.7z"/>
		<path fill="#FFFFFF" d="M565.8,26.2h12.1l28.5,84.6h-11.4l-8-25.8h-30.7l-8.1,25.8h-11L565.8,26.2z M559.1,76.4h25.3l-4-12.9
			c-3-9.4-5.8-18.7-8.4-28.5h-0.5c-2.7,9.8-5.4,19.1-8.4,28.5L559.1,76.4z"/>
		<path fill="#FFFFFF" d="M812.4,68.6c0-27.2,15.9-43.9,37.9-43.9c10.1,0,18.2,4.9,23.1,10.3l-6.1,6.8c-4.4-4.6-9.9-7.7-17-7.7
			c-16.3,0-26.8,13.2-26.8,34.2c0,21.3,10.6,34.7,26.8,34.7c7.7,0,13.7-3.4,19.1-9.4l6.1,6.6c-6.7,7.7-15,12.3-26.2,12.3
			C828.4,112.4,812.4,96.2,812.4,68.6z"/>
		<path fill="#FFFFFF" d="M1089.7,26.2h52.4v9h-41.5v26.6h35.1V71h-35.1v30.7h42.8v9.2h-53.7V26.2z"/>
	</g>
	<g>
		<path fill="#FFFFFF" d="M1155.6,10c0-6,4.3-10,9.6-10c5.2,0,9.6,4.1,9.6,10s-4.3,10-9.6,10C1159.9,20,1155.6,16,1155.6,10z
			 M1172.7,10c0-4.8-3.3-8.2-7.5-8.2c-4.3,0-7.6,3.4-7.6,8.2c0,4.8,3.3,8.1,7.6,8.1C1169.5,18.2,1172.7,14.9,1172.7,10z M1161.5,4.7
			h3.9c2.1,0,4,0.9,4,3.3c0,1.2-0.8,2.4-1.9,2.8l2.3,4.2h-2.3l-1.8-3.6h-2.1v3.6h-2.1V4.7z M1164.9,9.9c1.4,0,2.2-0.6,2.2-1.7
			c0-1-0.6-1.7-2.1-1.7h-1.4v3.4H1164.9z"/>
	</g>
	<g>
		<path fill="#FFFFFF" d="M158.3,70.2c1.9,0.5,3.3,1.6,4.4,3.4c1.1,1.8,1.6,4.2,1.6,7.1v10.1h-4.8v-10c0.2-1.9,0-3.4-0.7-4.4
			c-0.6-1.1-1.4-1.7-2.4-1.8l-11.1,17.3l-4.2-2.6l10.7-16.5c1.2-1.7,2.1-3.9,2.7-6.5c0.5-2.6,0.7-4.8,0.6-6.7h-13v-5.1h18.3V59
			C160.3,63.3,159.6,67,158.3,70.2z"/>
		<path fill="#FFFFFF" d="M431.8,67.7c1.2,1.7,2,3.4,2.4,5c0.3,1.6,0.5,3.6,0.4,5.9v9h-5.2v-8.8c0-1.8,0-3.3-0.2-4.4
			c-0.2-1.1-0.7-2.3-1.5-3.6l-8.9-13.3c-0.2-0.4-0.4-0.6-0.8-0.7c-0.3-0.1-0.7,0.1-0.9,0.6l-2.6,4c-0.3,0.5-0.5,1.1-0.5,1.8v9h-5.1
			v-9.7c0.1-1.1,0.5-2.1,1.1-3l5.5-8.6c0.6-1,1.4-1.5,2.4-1.4c1,0,1.8,0.5,2.5,1.5L431.8,67.7z M438.3,54.7
			c-0.8-0.8-1.3-1.9-1.3-3.1c0-1.3,0.4-2.3,1.3-3.1c0.8-0.8,1.9-1.3,3.1-1.3c1.2,0,2.2,0.4,3.1,1.3c0.9,0.9,1.3,1.9,1.3,3.1
			c0,1.1-0.4,2.2-1.3,3.1c-0.9,0.9-1.9,1.3-3.1,1.3C440.2,56,439.2,55.6,438.3,54.7z M439.1,51.6c0,0.7,0.2,1.2,0.7,1.6
			c0.4,0.5,0.9,0.7,1.6,0.7c0.7,0,1.2-0.2,1.6-0.7c0.5-0.5,0.7-1,0.7-1.6c0-0.6-0.2-1.2-0.7-1.6c-0.5-0.5-1-0.7-1.6-0.7
			s-1.2,0.2-1.6,0.7C439.3,50.5,439.1,51,439.1,51.6z"/>
		<path fill="#FFFFFF" d="M690.4,74.4v-5.6h33.2v5.6H690.4z"/>
		<path fill="#FFFFFF" d="M985.4,70.2c1.9,0.5,3.3,1.6,4.4,3.4c1.1,1.8,1.6,4.2,1.6,7.1v10.1h-4.8v-10c0.2-1.9,0-3.4-0.7-4.4
			c-0.6-1.1-1.4-1.7-2.4-1.8l-11.1,17.3l-4.2-2.6l10.7-16.5c1.2-1.7,2.1-3.9,2.7-6.5c0.5-2.6,0.7-4.8,0.6-6.7h-13v-5.1h18.3V59
			C987.5,63.3,986.8,67,985.4,70.2z"/>
	</g>
</g>
</svg>
