<svg version="1.1" id="Layer_1" xmlns="http://www.w3.org/2000/svg" xmlns:xlink="http://www.w3.org/1999/xlink" x="0px" y="0px" viewBox="0 0 1372.3 733.8" enable-background="new 0 0 1372.3 733.8" xml:space="preserve">
<g>
	<g>
		<path fill="#DCDCDC" d="M1163,288.1c-24.1,1.9-50.7,4-80.1,6.4c-9.8,0.8-19.9,1.7-30.3,2.5c-1.1,0.1-4.5,1.2-2.1-0.9
			c170.2-63.1,260.6-96.6,316.6-117.4c0.8-0.3,1.8-0.4,2.4-1.1c0.9-0.2,1.8-0.5,2.7-0.7c0,0.1,0.1,0.1,0.1,0.2
			c-1.9,1-3.8,2.1-5.7,3.1c-12.5,6.8-26.5,14.3-42.1,22.7c-15.4,8.3-32.6,17.5-52,28c-15.6,8.4-32.8,17.7-51.9,28
			c-1.1,0.6-2.3,1.2-3.5,1.8c-1.3-0.1-2.4,0.4-3.3,1.4c-0.2,0.1-0.4,0.2-0.6,0.3c-9.7,4.5-20.2,8.2-31,13.1c-3.5,1.6-6.5,3.6-8.9,6
			l0.1,0c-0.5,0.4-1.1,0.7-1.6,1.1C1168.9,284.5,1166.3,286.6,1163,288.1z"/>
		<path fill="#FCFDFC" d="M1369.5,177.6c-0.7,0.7-1.6,0.8-2.4,1.1c-56.1,20.8-146.5,54.3-316.6,117.4c32.9-24,61.7-45.1,87.2-63.7
			c1.3-0.9,3-1.8,3.5-2.9c3.8-0.5,7.5-1,11.1-1.6c4-0.7,7.8-0.9,11.8-2.1c11.4-3.6,22.1-7.4,32.6-10c28.3-6.2,53-11.7,74.9-16.5
			c19.5-4.3,36.8-8.1,52.5-11.5c10.9-2.4,21-4.7,30.4-6.7C1359.6,179.7,1364.7,178.7,1369.5,177.6z"/>
		<path fill="#DBDCDD" d="M1108.4,211.9c-33.4-4.1-70.9-8.7-113.5-13.8c-55.2-6.7-120.1-14.5-197.5-23.9c-1.3-0.2-3.2,0-4.8,0
			c0.7-0.3,1.3-0.7,2-1c51.4,1,96.9,2,137.5,2.8c89.6,1.8,159.2,3.3,214.8,4.3c4.1,0.1,5.6,0.7,6.1,3c1.4,6.5,3.7,12.8,5.7,19.2
			c-3.3,0.8-6.6,0.5-10.1,1.3c-6.7,1.6-13.7,3-20.8,4.4C1121.4,209.4,1115.1,211.2,1108.4,211.9z"/>
		<path fill="#DBDCDD" d="M1193.7,297.1c3,6.6,5.9,13.2,9,19.6c0.7,1.4-0.6,2.5-2.2,4c-33.7,30.3-74.2,66.6-123.7,111.1
			c-37.7,33.8-81.5,73.2-133.3,119.7c-1.2,1-2.5,2.1-3.8,3.1c-0.4,0.1-0.7,0.1-1.1,0.2c65.5-72,118.1-129.7,161.2-177.1
			c17.9-19.7,34.5-37.8,49.7-54.6c3-2.7,6.9-4.3,10.3-6.3C1171.7,309.9,1183.7,304.5,1193.7,297.1z"/>
		<path fill="#15489C" d="M1196.7,215.6c-10.5,2.6-21.2,6.4-32.6,10c-4.1,1.3-7.8,1.5-11.8,2.1c-3.7,0.6-7.4,1.1-11.1,1.6
			c-7.2,0.3-14.9,1.8-22.7,2.7c-19.1,2.3-39.7,5.2-62,8.1c-27,3.5-56.6,7.4-89.2,11.6c-28.7,3.7-59.9,7.8-94.1,12.2
			c-2.9,0.4-5.8,0.7-8.1,0.4c3-0.6,6-1.4,8.9-1.9c58.8-10.1,109.1-18.8,152.5-26.2c46.4-7.9,86-14.5,120.4-20.3
			c31.7-5.4,59.4-10.3,83.9-14.4c5.3-0.9,10.5-2.1,15.6-2.3c-0.6,0.6-1.6,0.8-2.5,1.1c-13.3,3.9-27.3,9-42.7,13.5
			C1199.5,214.4,1198,214.8,1196.7,215.6z"/>
		<path fill="#15489C" d="M1213.1,262.5c0.2-0.1,0.4-0.2,0.6-0.3c0.2,0,0.5-0.1,0.7-0.1c0.8,0.4,1.8-0.1,2.8-0.5
			c12.4-5.4,23.9-10.5,34.9-15.3c3-1.3,6-2.2,8.8-3.8c0.7-0.4,1.5-0.8,2.3-0.6c-4.8,3.6-10.4,6.5-16,9.9
			c-20.7,12.6-44.4,26.5-71,42.7c-18.4,11.1-38.5,23.3-60.6,36.5c-33.7,20.3-72.4,43.7-117.7,71c-20.1,12.1-41.2,25.6-65.2,38.8
			c4.5-5.4,13.6-9.7,20.2-14.1c27.5-18.3,53.7-34.7,76.6-50.1c19.9-13.5,39-25.6,56.3-37.3c16.3-11,32.2-20.9,46.5-30.5
			c10.7-7.2,21.4-13.6,30.7-20.5c3.3-1.6,5.9-3.6,8.6-5.5c0.7-0.3,1.3-0.6,1.6-1.1c0,0-0.1,0-0.1,0c5.1-3.7,10.8-6,16.4-8.3
			c7-3,13.8-5.9,20.3-8.8C1211,263.9,1212.5,263.7,1213.1,262.5z"/>
		<path fill="#416CB3" d="M1246.3,199.4c-5.1,0.2-10.3,1.4-15.6,2.3c-24.5,4.1-52.2,9-83.9,14.4c-34.3,5.9-74,12.5-120.4,20.3
			c-43.4,7.4-93.7,16-152.5,26.2c-2.9,0.5-5.9,1.2-8.9,1.9c-4.9,0.8-9.8,1.7-14.8,2.5c0-0.2-0.1-0.4-0.1-0.7c20-4.3,39-8.4,57-12.1
			c31.3-6.6,60-12.5,86.4-18c38.2-8,72-15,102.1-21.3c4.4-0.9,8.7-2,12.9-3.1c6.6-0.7,13-2.5,19.2-3.7c7.2-1.4,14.1-2.8,20.8-4.4
			c3.5-0.8,6.8-0.6,10.1-1.3c10.7,0.1,21.2-0.8,31.1-1.2c20.9-1,40-1.9,57.4-2.8c0.4,0,0.7,0,1.2,0
			C1247.9,199.2,1246.9,199.1,1246.3,199.4z"/>
		<path fill="#416CB3" d="M932.7,440.6c24-13.2,45.1-26.6,65.2-38.8c45.3-27.2,84-50.7,117.7-71c22.1-13.3,42.2-25.4,60.6-36.5
			c26.6-16.2,50.3-30.1,71-42.7c5.5-3.4,11.2-6.3,16-9.9c0.5-0.2,1-0.4,1.5-0.7c0.1,0.1,0.1,0.1,0.2,0.2c-4.9,3.8-9.9,7.7-15,11.7
			c-16.6,13-35.1,27.4-55.6,43.4c-0.2,0.2-0.3,0.4-0.5,0.6c-9.9,7.4-22,12.8-33.9,19.8c-3.4,2-7.3,3.6-10.3,6.3
			c-6.6,2.1-12.6,6.5-19,10c-17.7,9.5-36.6,20.2-57.1,31.6c-42.2,23.4-91.8,50.9-150.8,83.6c-1.4,0.8-2.8,1.5-4.9,2.6
			c1.9-2.2,5-3.8,7.4-5.4c2.3-1.1,4.4-2.3,5.9-3.8C931.5,441.3,932.1,441,932.7,440.6z"/>
		<path fill="#DBDCDD" d="M1214.4,262c-0.2,0-0.5,0.1-0.7,0.1c0.9-1,2.1-1.5,3.3-1.4C1216.1,261.2,1215.3,261.6,1214.4,262z"/>
		<path fill="#15489C" d="M931,441.6c-1.5,1.5-3.7,2.7-5.9,3.8C926.4,443.8,928.6,442.7,931,441.6z"/>
		<path fill="#DBDCDD" d="M939.6,554.6c-0.4,0.9-1.3,1.8-2.9,2.6c0.6-0.8,1.2-1.6,1.8-2.4C938.9,554.7,939.2,554.7,939.6,554.6z"/>
		<path fill="#DBDCDD" d="M1213.1,262.5c-0.6,1.2-2.1,1.5-3.3,2c-6.5,2.9-13.3,5.8-20.3,8.8c-5.5,2.4-11.3,4.7-16.4,8.3
			c2.4-2.5,5.4-4.5,8.9-6C1192.9,270.7,1203.4,267,1213.1,262.5z"/>
		<path fill="#DBDCDD" d="M1173.2,281.5c-0.3,0.5-0.9,0.9-1.6,1.1C1172.2,282.3,1172.7,281.9,1173.2,281.5z"/>
	</g>
	<g>
		<path fill="#D422FF" d="M371.9,54.3l-13,8.1l-7.7,17.3L374.5,93l2.3-2.8l9.6-3.8l9.6,3.9l2.3,2.8l23.4-13.4l-7.7-17.3l-12.9-8.1
			l-14.6-12.6L371.9,54.3z M369.1,77l-1.5-7.2l11.5,5.3l1.8,6.2L369.1,77z M403.5,76L392,81.3l1.5-7.2l11.8-4.3L403.5,76z"/>
		<polygon fill="#D422FF" points="398.4,97 396.1,94.2 386.5,90.3 376.8,94.2 374.5,97 386.5,103.8 		"/>
		<polygon fill="#D422FF" points="409.1,89.7 411.8,95 403.3,102.6 410.2,103.8 420.6,94.4 422.4,82.4 		"/>
		<polygon fill="#D422FF" points="364.5,89.7 361.9,95 370.4,102.6 363.5,103.8 353.1,94.4 351.3,82.4 		"/>
	</g>
	<g>
		<path fill="#D422FF" d="M136.7,6.8l-7,4.4l-4.2,9.3l12.6,7.2l1.2-1.5l5.2-2.1l5.2,2.1l1.2,1.5l12.6-7.2l-4.2-9.3l-7-4.4L144.6,0
			L136.7,6.8z M135.2,19l-0.8-3.9l6.2,2.9l1,3.4L135.2,19z M153.8,18.5l-6.2,2.9l0.8-3.9l6.4-2.3L153.8,18.5z"/>
		<polygon fill="#D422FF" points="151.1,29.8 149.8,28.3 144.6,26.2 139.4,28.3 138.2,29.8 144.6,33.5 		"/>
		<polygon fill="#D422FF" points="156.8,25.9 158.3,28.7 153.7,32.8 157.4,33.5 163,28.4 164,22 		"/>
		<polygon fill="#D422FF" points="132.8,25.9 131.4,28.7 136,32.8 132.2,33.5 126.6,28.4 125.6,22 		"/>
	</g>
	<g>
		<path fill="#D422FF" d="M372.1,297.8l-15.4,9.6l-9.2,20.6l27.7,15.8l2.7-3.3l11.4-4.5l11.4,4.6l2.7,3.4l27.7-15.9l-9.2-20.6
			l-15.3-9.6l-17.4-14.9L372.1,297.8z M368.8,324.8l-1.8-8.5l13.7,6.3l2.2,7.4L368.8,324.8z M409.7,323.6l-13.7,6.3l1.8-8.5
			l14.1-5.1L409.7,323.6z"/>
		<polygon fill="#D422FF" points="403.6,348.5 400.9,345.2 389.4,340.6 378,345.2 375.2,348.5 389.4,356.6 		"/>
		<polygon fill="#D422FF" points="416.3,339.9 419.4,346.1 409.3,355.2 417.5,356.6 429.9,345.4 432,331.3 		"/>
		<polygon fill="#D422FF" points="363.4,339.9 360.3,346.1 370.4,355.2 362.2,356.6 349.8,345.4 347.7,331.3 		"/>
	</g>
	<g>
		<path fill="#D422FF" d="M347.1,168.2l-3.2,2l-1.9,4.2l5.7,3.3l0.6-0.7l2.4-0.9l2.4,0.9l0.6,0.7l5.7-3.3l-1.9-4.2l-3.2-2l-3.6-3.1
			L347.1,168.2z M346.4,173.8l-0.4-1.8l2.8,1.3l0.4,1.5L346.4,173.8z M354.9,173.5l-2.8,1.3l0.4-1.8l2.9-1.1L354.9,173.5z"/>
		<polygon fill="#D422FF" points="353.6,178.7 353.1,178 350.7,177 348.3,178 347.8,178.7 350.7,180.3 		"/>
		<polygon fill="#D422FF" points="356.2,176.9 356.9,178.2 354.8,180 356.5,180.3 359.1,178 359.5,175.1 		"/>
		<polygon fill="#D422FF" points="345.3,176.9 344.7,178.2 346.8,180 345.1,180.3 342.5,178 342.1,175.1 		"/>
	</g>
	<g>
		<path fill="#0013FF" d="M657.5,67.8h-19.2l8.1-3.7l1.7-10.4l-13.7,3.9l-4.2,10.2h-28.6l-4.2-9.9l-13.7-4.2l1.7,10.1l8.1,4h-19.3
			l-11.6,27l35.2,20.5l3.5-4l14.5-5.7l14.5,5.9l3.5,4.3l35.2-21L657.5,67.8z M589.8,91.5l-2.3-10.8l17.4,8l2.8,9.4L589.8,91.5z
			 M641.7,90l-17.4,8l2.3-10.8l17.9-6.5L641.7,90z"/>
		<polygon fill="#0013FF" points="634,121.7 630.5,117.4 616,111.6 601.4,117.4 598,121.7 616,131.9 		"/>
	</g>
	<g>
		<path fill="#0013FF" d="M306.6,210.8h-8.1l3.4-1.4l0.7-4.3l-5.8,1.5l-1.8,4.2H283l-1.8-4l-5.8-1.7l0.7,4.1l3.4,1.5h-8.2l-4.9,11.6
			l14.9,8.8l1.5-1.6l6.1-2.4l6.1,2.5l1.5,1.8l14.9-9.1L306.6,210.8z M277.9,221.2l-1-4.6l7.3,3.4l1.2,4L277.9,221.2z M299.9,220.6
			l-7.3,3.4l1-4.6l7.6-2.8L299.9,220.6z"/>
		<polygon fill="#0013FF" points="296.6,234 295.1,232.2 289,229.8 282.8,232.2 281.4,234 289,238.3 		"/>
	</g>
	<g>
		<path fill="#0013FF" d="M266,127.8h-5.6l2.4-0.7l0.5-2.8l-4,0.9l-1.2,2.7h-8.3l-1.2-2.5l-4-1l0.5,2.7l2.4,0.9h-5.6l-3.4,8.2
			l10.2,6.1l1-1.1l4.2-1.6l4.2,1.7l1,1.3l10.2-6.4L266,127.8z M246.4,135.4l-0.7-3.1l5,2.3l0.8,2.7L246.4,135.4z M261.5,135l-5,2.3
			l0.7-3.1l5.2-1.9L261.5,135z"/>
		<polygon fill="#0013FF" points="259.2,144.2 258.2,142.9 254,141.2 249.8,142.9 248.8,144.2 254,147.1 		"/>
	</g>
	<g>
		<path fill="#0013FF" d="M492.3,104.8h-9.4l4-1.9l0.8-5.2l-6.7,2l-2.1,5.1h-14l-2.1-5l-6.7-2.1l0.8,5.1l4,2h-9.5l-5.7,13.1l17.2,10
			l1.7-2l7.1-2.8l7.1,2.9l1.7,2.1l17.2-10.2L492.3,104.8z M459.1,116.1l-1.1-5.3l8.5,3.9l1.4,4.6L459.1,116.1z M484.6,115.4
			l-8.5,3.9l1.1-5.3l8.7-3.2L484.6,115.4z"/>
		<polygon fill="#0013FF" points="480.8,130.9 479.1,128.8 472,126 464.9,128.8 463.2,130.9 472,135.9 		"/>
	</g>
	<g>
		<path fill="#FF0000" d="M451.7,229.8h26.7l-11.3,6.4l-2.4,15.1l19-6.5l5.8-15.1h39.6l5.8,15.1l19,6.5l-2.4-15.1l-11.3-6.5h26.8
			l16.1-36.2l-48.9-27.8l-4.8,5.9l-20.2,8l-20.2-8.1l-4.8-5.9l-48.9,27.9L451.7,229.8z M540.5,192.8l12.9,8.4l-24.9,9.2l-11.9-6.5
			L540.5,192.8z M490.3,210.4l-24.9-9.2l12.9-8.4l23.9,11.1L490.3,210.4z"/>
		<polygon fill="#FF0000" points="492,234.8 525.7,234.8 531.3,248 509.5,258.6 487.7,248.1 		"/>
	</g>
	<g>
		<path fill="#FF0000" d="M260,61.8h7.1l-3,1.8l-0.6,4l5.1-1.7l1.6-4.1h10.5l1.6,4l5.1,1.8l-0.6-4l-3-1.8h7.1l4.3-9.6l-13-7.4
			l-1.3,1.6l-5.4,2.1l-5.4-2.1l-1.3-1.6l-13,7.4L260,61.8z M283.7,52l3.4,2.2l-6.6,2.5l-3.2-1.7L283.7,52z M270.3,56.7l-6.6-2.5
			l3.4-2.2l6.4,3L270.3,56.7z"/>
		<polygon fill="#FF0000" points="270.7,62.8 279.7,62.8 281.2,66.5 275.4,69.4 269.6,66.5 		"/>
	</g>
	<g>
		<path fill="#FF0000" d="M563.8,357.8h18.3l-7.7,4.7l-1.6,10.5l13-4.6l4-10.6h27.2l4,10.6l13,4.6l-1.6-10.5l-7.7-4.6H643l11.1-24.6
			l-33.6-18.9l-3.3,4.1l-13.8,5.5l-13.8-5.5l-3.3-4.1l-33.5,18.9L563.8,357.8z M624.7,332.9l8.8,5.8l-17.1,6.3l-8.2-4.4L624.7,332.9
			z M590.3,344.9l-17.1-6.3l8.8-5.8l16.4,7.6L590.3,344.9z"/>
		<polygon fill="#FF0000" points="591.4,361.8 614.6,361.8 618.4,370.8 603.5,378.1 588.5,370.9 		"/>
	</g>
	<g>
		<path fill="#D422FF" d="M954.6,390.1c0,0-2.2,1.8-6.5,5.1c-4.3,3.2-10.7,7.8-19.1,13.4c-4.2,2.8-8.9,5.8-14,9
			c-5.2,3.2-10.8,6.5-16.8,10c-12.2,6.9-26.1,14.5-41.6,21.9c-7.8,3.8-15.9,7.5-24.4,11.3c-8.5,3.8-17.4,7.4-26.6,11.1
			c-9.2,3.6-18.7,7.2-28.5,10.6c-4.9,1.8-9.9,3.4-14.9,5c-5.1,1.6-10.1,3.2-15.3,4.8c-20.7,6.1-42.3,11.7-64.5,16.2
			c-22.2,4.5-44.9,8.4-67.7,11.2c-22.8,2.8-45.7,4.8-68.3,5.8c-22.6,1-44.9,1.1-66.4,0.4c-21.5-0.7-42.3-2.2-61.9-4.2
			c-19.6-2.1-38.1-4.8-55-7.6c-8.5-1.5-16.6-2.9-24.3-4.5c-3.8-0.8-7.6-1.5-11.2-2.2c-3.6-0.8-7.1-1.6-10.6-2.3
			c-6.8-1.4-13.2-3-19.1-4.4c-2.9-0.7-5.8-1.4-8.4-2c-2.7-0.7-5.2-1.4-7.7-2c-4.8-1.3-9.2-2.4-12.9-3.4c-3.7-1.1-6.9-2-9.5-2.7
			c-5.2-1.5-7.9-2.3-7.9-2.3l0.2-0.8c0,0,2.8,0.7,7.9,2.1c2.6,0.7,5.8,1.5,9.5,2.5c3.8,1,8.1,2,13,3.2c2.4,0.6,5,1.2,7.7,1.9
			c2.7,0.6,5.5,1.2,8.5,1.9c5.9,1.3,12.2,2.8,19.1,4.1c3.4,0.7,6.9,1.4,10.6,2.1c3.6,0.7,7.4,1.3,11.2,2c7.7,1.5,15.8,2.7,24.3,4
			c17,2.5,35.4,4.9,55,6.6c19.6,1.7,40.2,2.9,61.6,3.3c21.4,0.4,43.5,0.1,66-1.2c22.4-1.3,45.2-3.5,67.8-6.6
			c22.6-3.2,45-7.3,66.9-12.2c21.9-4.9,43.2-10.6,63.7-16.8c20.5-6.1,40-12.8,58.4-19.6c9.2-3.5,18-6.9,26.6-10.4
			c8.5-3.5,16.7-7,24.5-10.5c7.8-3.5,15.2-7,22.3-10.3c7-3.4,13.6-6.8,19.8-9.9c6.2-3.2,11.9-6.3,17.2-9.2
			c5.3-2.9,10.1-5.6,14.4-8.1c8.6-5,15.3-9.3,19.8-12.1c4.5-2.9,6.8-4.6,6.8-4.6L954.6,390.1z"/>
	</g>
	<g>
		<path fill="#D422FF" d="M1049.4,272.3c0,0-1.5,1.1-4.4,3.2c-2.9,2.1-7.2,5.1-12.7,8.8c-5.5,3.7-12.3,8.1-20.2,13
			c-7.9,4.9-16.8,10.3-26.7,16c-2.5,1.4-5,2.9-7.6,4.3c-2.6,1.5-5.2,2.9-7.9,4.4c-5.4,3-11,6-16.8,9.1
			c-11.6,6.1-23.9,12.4-36.8,18.5c-3.2,1.5-6.5,3-9.8,4.6c-3.3,1.5-6.6,3-10,4.5c-6.7,3-13.6,5.8-20.5,8.8
			c-3.4,1.5-6.9,2.8-10.4,4.3c-3.5,1.4-7,2.8-10.5,4.3c-3.5,1.4-7.1,2.8-10.6,4.1c-3.5,1.4-7.1,2.8-10.7,4.1
			c-7.1,2.6-14.2,5.4-21.4,7.8c-3.6,1.3-7.1,2.5-10.7,3.7c-3.6,1.3-7.1,2.4-10.7,3.6c-3.6,1.2-7.1,2.3-10.6,3.5
			c-3.5,1.1-7.1,2.2-10.6,3.2c-3.5,1.1-7,2.2-10.5,3.2c-3.5,1-6.9,1.9-10.4,2.9c-3.4,0.9-6.8,2-10.2,2.8c-3.4,0.9-6.8,1.7-10.1,2.6
			c-3.3,0.8-6.6,1.7-9.9,2.5c-3.3,0.7-6.5,1.5-9.7,2.2c-3.2,0.7-6.3,1.4-9.4,2.1c-3.1,0.6-6.2,1.2-9.2,1.8c-3,0.6-6,1.2-8.9,1.7
			c-2.9,0.6-5.8,1-8.6,1.5c-2.8,0.5-5.6,0.9-8.3,1.4c-2.7,0.4-5.3,0.9-7.9,1.2c-5.2,0.7-10,1.3-14.6,1.9c-1.1,0.2-2.3,0.3-3.4,0.4
			c-1.1,0.1-2.2,0.2-3.3,0.3c-2.2,0.2-4.2,0.4-6.2,0.6c-4,0.4-7.7,0.7-11,1c-13.3,0.7-20.9,1.2-20.9,1.2l0-0.8c0,0,7.6-0.6,20.8-1.8
			c3.3-0.4,6.9-0.9,10.9-1.3c2-0.2,4-0.5,6.2-0.7c1.1-0.1,2.2-0.3,3.3-0.4c1.1-0.2,2.2-0.3,3.4-0.5c4.6-0.7,9.4-1.5,14.5-2.3
			c2.6-0.4,5.2-0.9,7.8-1.4c2.7-0.5,5.4-1,8.2-1.6c2.8-0.6,5.6-1,8.5-1.7c2.9-0.6,5.8-1.3,8.8-1.9c3-0.7,6-1.3,9.1-2
			c3.1-0.8,6.2-1.5,9.3-2.3c3.2-0.8,6.4-1.6,9.6-2.4c3.2-0.8,6.5-1.8,9.8-2.6c3.3-0.9,6.6-1.8,10-2.8c3.4-0.9,6.7-2,10.1-3
			c3.4-1,6.8-2.1,10.3-3.1c3.4-1.1,6.9-2.2,10.4-3.3c3.5-1.1,7-2.3,10.5-3.4c3.5-1.2,7-2.4,10.5-3.7c3.5-1.2,7.1-2.4,10.6-3.7
			c3.5-1.3,7-2.6,10.6-3.9c7.1-2.6,14.1-5.4,21.1-8.2c3.5-1.4,7-2.8,10.5-4.3c3.5-1.4,7-2.9,10.5-4.3c6.9-3,13.8-6,20.6-9
			c6.8-3.1,13.5-6.1,20.1-9.2c3.3-1.5,6.6-3.1,9.9-4.6c3.2-1.6,6.5-3.1,9.7-4.6c6.4-3,12.7-6.1,18.8-9c6.1-3,12.1-5.9,18-8.8
			c5.8-2.9,11.5-5.7,16.9-8.5c2.7-1.4,5.4-2.7,8.1-4.1c2.6-1.4,5.2-2.7,7.7-4c5-2.6,9.9-5.1,14.4-7.5c4.6-2.4,8.9-4.7,13-6.9
			c4.1-2.2,7.9-4.2,11.4-6.1c3.5-1.9,6.7-3.7,9.6-5.3c2.9-1.6,5.5-3,7.8-4.3c2.2-1.3,4.2-2.3,5.7-3.2c3.1-1.8,4.7-2.7,4.7-2.7
			L1049.4,272.3z"/>
	</g>
	<g>
		<path fill="#D422FF" d="M0.3,297.1c0,0,1.2,1.4,3.6,3.8c2.4,2.5,6,6,10.8,10.3c4.8,4.3,10.7,9.4,17.7,15
			c7,5.5,15.1,11.7,24.2,17.9c9.1,6.2,19.1,12.8,30,19.1c5.4,3.3,11.1,6.4,16.8,9.6c2.9,1.6,5.9,3.1,8.9,4.7c3,1.6,6,3.2,9.1,4.7
			c3.1,1.5,6.2,3,9.3,4.6c1.6,0.8,3.1,1.5,4.8,2.2c1.6,0.7,3.2,1.5,4.8,2.2c3.2,1.4,6.4,3,9.7,4.4c3.3,1.4,6.6,2.8,9.9,4.2
			c1.7,0.7,3.3,1.4,5,2.1c1.7,0.7,3.4,1.3,5.1,2c3.4,1.3,6.8,2.6,10.2,3.9c3.4,1.3,6.9,2.5,10.3,3.7c3.5,1.2,6.9,2.5,10.4,3.6
			c3.5,1.1,7,2.2,10.5,3.3c3.5,1.1,7,2.3,10.5,3.2c3.5,1,7,2,10.5,3c3.5,1,7,2,10.5,2.8c3.5,0.9,7,1.7,10.5,2.6
			c3.5,0.9,6.9,1.7,10.4,2.4c3.5,0.8,6.9,1.5,10.3,2.3c3.4,0.7,6.8,1.6,10.1,2.2c6.7,1.3,13.4,2.6,19.8,3.9
			c6.5,1.1,12.9,2.2,19.1,3.3c1.6,0.3,3.1,0.5,4.6,0.8c1.5,0.2,3.1,0.4,4.6,0.7c3,0.4,6,0.9,8.9,1.3c2.9,0.4,5.8,0.9,8.6,1.3
			c0.7,0.1,1.4,0.2,2.1,0.3c0.7,0.1,1.4,0.2,2.1,0.2c1.4,0.2,2.8,0.3,4.1,0.5c5.5,0.6,10.7,1.3,15.7,1.9c1.2,0.2,2.5,0.3,3.7,0.5
			c1.2,0.1,2.4,0.2,3.6,0.3c2.4,0.2,4.7,0.4,6.9,0.7c8.9,0.9,16.7,1.7,23.1,2.1c6.4,0.5,11.5,0.9,14.9,1.2c3.4,0.3,5.3,0.5,5.3,0.5
			l0,0.8c0,0-1.8,0-5.3,0.1c-3.5,0.1-8.5,0.2-15,0.3c-3.2,0-6.8,0.2-10.7,0c-3.9-0.1-8.1-0.2-12.6-0.3c-2.3-0.1-4.6-0.1-7-0.2
			c-1.2,0-2.4-0.1-3.6-0.1c-1.2-0.1-2.5-0.2-3.7-0.2c-5-0.3-10.3-0.7-15.9-1.1c-1.4-0.1-2.8-0.2-4.2-0.3c-0.7-0.1-1.4-0.1-2.1-0.2
			c-0.7-0.1-1.4-0.2-2.1-0.2c-2.9-0.3-5.8-0.6-8.8-0.9c-3-0.3-6-0.7-9.1-1c-1.5-0.2-3.1-0.3-4.6-0.5c-1.6-0.2-3.1-0.4-4.7-0.7
			c-6.3-0.9-12.8-1.9-19.4-2.9c-6.6-1.2-13.3-2.5-20.1-3.8c-3.4-0.6-6.8-1.5-10.2-2.3c-3.4-0.8-6.9-1.6-10.4-2.5
			c-1.7-0.4-3.5-0.8-5.2-1.3c-1.7-0.5-3.5-1-5.2-1.4c-3.5-1-7-1.9-10.5-2.9c-3.5-0.9-7-2-10.5-3.1c-3.5-1.1-7-2.2-10.5-3.3
			c-3.5-1-7-2.3-10.5-3.5c-3.5-1.2-7-2.4-10.5-3.6c-3.5-1.2-6.9-2.6-10.4-3.9c-3.5-1.3-6.9-2.6-10.4-3.9c-3.4-1.4-6.8-2.8-10.2-4.2
			c-1.7-0.7-3.4-1.4-5.1-2.1c-1.7-0.7-3.3-1.5-5-2.2c-3.3-1.5-6.6-3-9.9-4.4c-3.3-1.5-6.5-3.1-9.7-4.6c-1.6-0.8-3.2-1.5-4.8-2.3
			c-1.6-0.8-3.2-1.5-4.7-2.4c-3.1-1.6-6.2-3.2-9.3-4.8c-3.1-1.6-6.1-3.3-9.1-4.9c-3-1.7-5.9-3.2-8.8-4.9
			c-5.7-3.4-11.4-6.6-16.7-10.1c-10.8-6.7-20.7-13.6-29.6-20.1c-9-6.5-16.9-12.9-23.8-18.6c-6.9-5.8-12.7-11.1-17.3-15.6
			c-4.6-4.5-8.2-8.1-10.5-10.7c-2.3-2.5-3.5-4-3.5-4L0.3,297.1z"/>
	</g>
	<g>
		<path fill="#D422FF" d="M792.8,584.2c0,0-1,0.5-2.8,1.6c-1.8,1-4.5,2.5-7.9,4.4c-3.4,1.9-7.6,4.1-12.3,6.8
			c-4.8,2.6-10.1,5.5-16,8.7c-5.9,3.2-12.2,6.6-18.9,10.2c-6.7,3.7-13.8,7.4-21.1,11.3c-7.4,3.9-15,7.8-22.7,11.9
			c-7.7,4.1-15.5,8.3-23.2,12.7c-3.9,2.2-7.7,4.4-11.5,6.6c-1.9,1.1-3.8,2.2-5.7,3.3c-1.9,1.1-3.8,2.3-5.6,3.4
			c-7.5,4.5-14.7,9.1-21.7,13.6c-3.5,2.2-6.9,4.6-10.2,6.8c-3.3,2.2-6.5,4.5-9.6,6.7c-3.1,2.2-6.1,4.4-9,6.5
			c-2.9,2.1-5.6,4.2-8.3,6.2c-2.7,2-5.1,4-7.5,5.9c-1.2,1-2.3,1.9-3.4,2.8c-1.1,0.9-2.1,1.8-3.2,2.7c-2,1.8-4,3.4-5.7,5
			c-1.7,1.6-3.3,3-4.8,4.3c-1.5,1.3-2.7,2.5-3.8,3.6c-1.1,1.1-2,2-2.7,2.7c-1.5,1.5-2.3,2.2-2.3,2.2l-0.6-0.5c0,0,0.8-0.8,2.2-2.4
			c0.7-0.8,1.6-1.7,2.6-2.8c1-1.1,2.2-2.4,3.6-3.8c1.4-1.4,2.9-2.9,4.6-4.6c1.6-1.7,3.6-3.4,5.5-5.2c1-0.9,2-1.9,3.1-2.9
			c1.1-1,2.2-1.9,3.3-2.9c2.3-2,4.7-4.2,7.3-6.3c2.6-2.1,5.2-4.4,8.1-6.6c2.8-2.2,5.7-4.6,8.8-6.9c6.1-4.7,12.6-9.4,19.5-14.2
			c6.8-4.8,14-9.7,21.4-14.5c1.8-1.2,3.7-2.4,5.5-3.6c1.9-1.2,3.7-2.4,5.6-3.6c3.7-2.4,7.5-4.7,11.3-7.1c7.6-4.7,15.3-9.2,22.8-13.7
			c7.6-4.5,15.1-8.8,22.4-12.7c3.7-1.9,7.3-3.9,10.9-5.7c3.6-1.8,7.1-3.6,10.6-5.2c3.5-1.6,6.8-3.2,10.1-4.8
			c3.3-1.5,6.5-2.9,9.5-4.3c3.1-1.4,6-2.6,8.8-3.8c2.8-1.2,5.5-2.3,8-3.3c2.5-1,4.9-2,7.1-2.8c2.2-0.8,4.2-1.6,6-2.3
			c3.7-1.4,6.5-2.4,8.5-3.1c2-0.7,3-1,3-1L792.8,584.2z"/>
	</g>
</g>
</svg>
