<svg xmlns="http://www.w3.org/2000/svg" x="0px" y="0px" viewBox="0 0 417 92.5"> <g> <path fill="#fff" d="M53.5,14v60.4c0.1,4.4-1.2,8.2-3.8,11.4c-2.6,3.3-5.7,5-9.2,5.1H27V80.1h9.2c4.7,0,6.9-2.8,6.8-8.3V24.9 H30.3v13.7c0.3,5.5-1.8,13.8-6.4,24.9c-4.6,11.1-9.6,20.7-15.1,28.9L0,87.1c5.5-8.6,10.1-17.6,14.1-27.3c3.9-9.6,5.7-17.3,5.4-23 V24.9H3.9V14h15.6V0.4h10.7V14H53.5z M59.6,0.4h5.2v14.9h-5.2V0.4z M70.3,0.4h5.2v14.9h-5.2V0.4z"/> <path fill="#fff" d="M169.3,0h10.5v8.8c0,3.6-1.1,7.9-3.2,13.1c-2.1,5.2-4.9,9.7-8.5,13.7v55h-10.3V46.4l-19.1,18.2l-7.2-7.2 l24.7-23.6c4.2-4,7.4-8.5,9.7-13.3c2.2-4.8,3.4-8.9,3.5-12.1V0z"/> <path fill="#fff" d="M301,57.5c-7.4-5.2-12.9-8.7-16.5-10.7c-3.6-2-7-2.9-10.3-2.7V91h-10.8V0.2h10.7v32.5 c3.6-0.2,8.1,1.2,13.6,4.1c5.4,3,11.8,6.9,18.9,11.9L301,57.5z M317.8,0.4h5.2v14.9h-5.2V0.4z M328.5,0.4h5.2v14.9h-5.2V0.4z"/> <path fill="#fff" d="M399.8,75.8H417v14.9h-17.2V75.8z"/> </g> </svg> 