<?xml version="1.0" encoding="utf-8"?>
<!-- Generator: Adobe Illustrator 20.1.0, SVG Export Plug-In . SVG Version: 6.00 Build 0)  -->
<svg version="1.1" id="Layer_1" xmlns="http://www.w3.org/2000/svg" xmlns:xlink="http://www.w3.org/1999/xlink" x="0px" y="0px"
	 width="231.6px" height="103.3px" viewBox="0 0 231.6 103.3" enable-background="new 0 0 231.6 103.3" xml:space="preserve">
<g>
	<path fill="#FFFFFF" d="M14.6,92.2l0-1.2h5.1v1.6c0,0.5-0.2,1.1-0.8,1.8s-1.3,1.6-2.5,2.8l-0.8-0.8c1.2-1.1,1.9-2,2.3-2.5
		s0.6-1,0.6-1.3v-0.4H14.6z M15.4,88.7h3.6v1.2h-3.6V88.7z"/>
	<path fill="#FFFFFF" d="M29.9,87.3H31v0.9c0,0.4-0.1,0.8-0.3,1.4s-0.5,1-0.9,1.4v5.8h-1.1v-4.7l-2,1.9l-0.8-0.8l2.6-2.5
		c0.4-0.4,0.8-0.9,1-1.4s0.4-0.9,0.4-1.3V87.3z"/>
	<path fill="#FFFFFF" d="M37.1,89.9v-1.2h5.3v3.4c0,0.5-0.3,1.1-0.8,1.9s-1.2,1.8-2.1,3l-1-0.6c1-1.3,1.7-2.3,2.1-2.8s0.6-1,0.6-1.5
		v-2.2H37.1z"/>
</g>
<g>
	<path fill="#FFFFFF" d="M94.8,85.3c0.4,0.1,0.8,0.4,1,0.8s0.4,0.9,0.4,1.6v2.3H95v-2.2c0-0.4,0-0.8-0.1-1s-0.3-0.4-0.5-0.4
		l-2.5,3.9l-0.9-0.6l2.4-3.7c0.3-0.4,0.5-0.9,0.6-1.5s0.2-1.1,0.1-1.5h-2.9v-1.2h4.1v1C95.2,83.7,95.1,84.5,94.8,85.3z"/>
	<path fill="#FFFFFF" d="M107,84.7c0.3,0.4,0.4,0.8,0.5,1.1s0.1,0.8,0.1,1.3v2h-1.2v-2c0-0.4,0-0.7,0-1s-0.2-0.5-0.3-0.8l-2-3
		c0-0.1-0.1-0.1-0.2-0.2s-0.1,0-0.2,0.1l-0.6,0.9c-0.1,0.1-0.1,0.2-0.1,0.4v2h-1.2v-2.2c0-0.2,0.1-0.5,0.2-0.7l1.2-1.9
		c0.1-0.2,0.3-0.3,0.5-0.3s0.4,0.1,0.6,0.3L107,84.7z M108.5,81.8c-0.2-0.2-0.3-0.4-0.3-0.7c0-0.3,0.1-0.5,0.3-0.7
		c0.2-0.2,0.4-0.3,0.7-0.3c0.3,0,0.5,0.1,0.7,0.3c0.2,0.2,0.3,0.4,0.3,0.7c0,0.3-0.1,0.5-0.3,0.7c-0.2,0.2-0.4,0.3-0.7,0.3
		C108.9,82.1,108.7,82,108.5,81.8z M108.7,81.1c0,0.2,0.1,0.3,0.2,0.4c0.1,0.1,0.2,0.2,0.4,0.2s0.3-0.1,0.4-0.2
		c0.1-0.1,0.2-0.2,0.2-0.4s-0.1-0.3-0.2-0.4s-0.2-0.2-0.4-0.2s-0.3,0.1-0.4,0.2S108.7,80.9,108.7,81.1z"/>
	<path fill="#FFFFFF" d="M113.5,83.9l2.5,0.7l-0.3,1.1l-2.5-0.7L113.5,83.9z M113.5,81.7l2.5,0.7l-0.3,1.1l-2.5-0.7L113.5,81.7z
		 M113.4,89.9v-1.2h1.5c0.7,0,1.3-0.5,1.6-1.6l1.3-5.4L119,82l-1.3,5.3c-0.5,1.8-1.3,2.6-2.5,2.6H113.4z"/>
	<path fill="#FFFFFF" d="M126.1,83.1v-1.1h1v1.1h2.4v0.5c-0.1,1.2-0.4,2.4-0.9,3.6l-0.9-0.4c0.4-0.6,0.6-1.5,0.8-2.6H127v0.9
		c0,0.8,0.1,1.5,0.2,2.3s0.3,1.4,0.6,1.9l-1,0.4c-0.3-0.7-0.5-1.4-0.6-2.1s-0.2-1.5-0.2-2.5v-1h-0.9v-1.1H126.1z"/>
	<path fill="#FFFFFF" d="M135.7,81.7h1.1v8.2h-1.1V81.7z M139.4,88.6l1-2.1l1,0.4l-0.9,1.8c-0.2,0.4-0.4,0.7-0.7,0.9
		s-0.6,0.3-1.1,0.3H138v-8.2h1.1v7.1C139.2,88.8,139.4,88.7,139.4,88.6z"/>
	<path fill="#FFFFFF" d="M102.1,102.2c0.2-1,0.3-2.6,0.4-4.8h1.1c0,2.2-0.2,3.8-0.4,4.9L102.1,102.2z M105.3,96.1v7h-1.1v-7h-2v-1.2
		h2v-1.5h1.1v1.5h1.9v1.2H105.3z M106.2,99.1c0-0.3,0-0.5-0.1-0.7s-0.3-0.4-0.5-0.5l0.9-0.7c0.2,0.2,0.4,0.4,0.6,0.7
		s0.3,0.7,0.3,1.1v3.2h-1.1V99.1z M108.2,93.5h0.6V95h-0.6V93.5z M109.4,93.5h0.6V95h-0.6V93.5z"/>
	<path fill="#FFFFFF" d="M113.4,94.8l2.5,0.7l-0.3,1.1l-2.5-0.7L113.4,94.8z M113.4,103.1v-1.2h1.1c0.5,0,0.9-0.2,1.2-0.5
		s0.5-0.6,0.6-1.1l1.5-5.5l1.1,0.3l-1.5,5.4c-0.1,0.7-0.5,1.3-0.9,1.7s-1.1,0.7-1.8,0.7H113.4z"/>
	<path fill="#FFFFFF" d="M124.7,96.1v-1.2h5.3v3.4c0,0.5-0.3,1.1-0.8,1.9s-1.2,1.8-2.1,3l-1-0.6c1-1.3,1.7-2.3,2.1-2.8
		s0.6-1,0.6-1.5v-2.2H124.7z M130.8,93.5h0.6V95h-0.6V93.5z M131.9,93.5h0.6V95h-0.6V93.5z"/>
</g>
<g>
	<path fill="#FFFFFF" d="M188.2,86.1v-1.4h0.8v1.4c0,1.7-0.2,2.9-0.5,3.8c-0.1-0.2-0.4-0.4-0.7-0.5
		C188.1,88.6,188.2,87.6,188.2,86.1z M192.3,84h-1.6v6.9h-1V84H188v-1h4.3V84z M192.1,80.6v1h-3.8v-1H192.1z M192.1,84.7v4.2h-0.8
		v-4.2H192.1z M195.7,89.8h1.2c0.2,0,0.3-0.1,0.4-0.4c0.1-0.2,0.1-0.7,0.1-1.5c0.3,0.2,0.6,0.4,0.9,0.4c0,0.9-0.2,1.5-0.4,1.9
		c-0.2,0.3-0.5,0.5-1,0.5h-1.4c-0.5,0-0.9-0.1-1.1-0.3c-0.2-0.2-0.3-0.6-0.3-1.2v-0.1c-0.5,0.5-1,0.9-1.6,1.3
		c-0.2-0.2-0.4-0.4-0.8-0.7c0.9-0.6,1.7-1.3,2.4-2.1v-5.1h1v3.7c0.9-1.4,1.7-3.3,2.3-5.5l1,0.2c-0.4,1.3-0.7,2.4-1.1,3.4L198,84
		c0.2,0.5,0.4,1.1,0.6,1.8c0.2,0.7,0.3,1.3,0.3,1.7l-1,0.3c-0.1-0.9-0.3-2-0.8-3.2c-0.6,1.3-1.2,2.4-1.9,3.3v1.3
		c0,0.2,0,0.4,0.1,0.5S195.5,89.8,195.7,89.8z M193.1,87.9l-0.8-0.4c0.4-0.7,0.7-1.8,0.8-3.4l0.9,0.2
		C193.8,86.1,193.5,87.3,193.1,87.9z M196.9,81.5l-0.7,0.8c-0.3-0.3-0.6-0.6-1-0.9c-0.4-0.3-0.9-0.6-1.3-0.8l0.7-0.7
		c0.4,0.2,0.8,0.5,1.3,0.8C196.3,81,196.7,81.3,196.9,81.5z"/>
	<path fill="#FFFFFF" d="M208.1,86.6h-2.3c-0.6,0-1-0.1-1.2-0.2c-0.8,0.4-1.8,0.7-3,1c-0.2-0.4-0.4-0.7-0.6-0.9
		c1.2-0.3,2.2-0.6,3.2-1v-0.2v-2.2h1V85c1.5-0.7,2.6-1.6,3.3-2.7l1,0.4c-0.8,1.1-2,2.1-3.5,2.9h2c0.3,0,0.4-0.1,0.5-0.2
		c0.1-0.1,0.1-0.4,0.1-0.9c0.2,0.1,0.5,0.3,0.9,0.3c-0.1,0.6-0.2,1.1-0.4,1.3C209,86.5,208.7,86.6,208.1,86.6z M202.7,83.2l0.9,0.4
		c-0.4,1.1-0.9,1.9-1.6,2.3l-0.9-0.6C201.9,84.9,202.4,84.2,202.7,83.2z M202.6,81.8v1.4h-1.1v-2.4h4.5v-1h1.1v1h4.5v2.4h-1.1v-1.4
		H202.6z M209.6,89.3v-2h1.1v3.5h-1.1v-0.5h-6v0.5h-1.1v-3.5h1.1v2h2.4v-2.6h1.1v2.6H209.6z M207.3,83l-0.6,0.7
		c-0.5-0.4-1.2-0.9-2.1-1.2l0.5-0.6C206.2,82.2,206.9,82.6,207.3,83z M209.2,83.9l0.8-0.5c0.4,0.4,0.8,0.7,1.2,1.1
		c0.4,0.4,0.7,0.8,0.9,1.1l-0.8,0.6c-0.2-0.3-0.5-0.7-0.9-1.1C210,84.6,209.6,84.2,209.2,83.9z"/>
	<path fill="#FFFFFF" d="M218.9,82.3v6.4c0,0.4-0.1,0.8-0.4,1s-0.7,0.4-1.1,0.4s-0.8-0.1-1.1-0.4s-0.4-0.6-0.5-1l0-6.4
		c0-0.6,0.2-1.1,0.6-1.5s0.8-0.5,1.4-0.5h1.5c0.5,0,0.9,0.2,1.3,0.5s0.6,0.8,0.6,1.5v7.6h-1v-7.6c0-0.3-0.1-0.5-0.2-0.7
		s-0.4-0.3-0.6-0.3h-1.6c-0.3,0-0.5,0.1-0.7,0.3s-0.2,0.4-0.2,0.7v6.4c0,0.1,0,0.2,0.1,0.3s0.2,0.1,0.3,0.1s0.2,0,0.3-0.1
		s0.1-0.2,0.1-0.3v-6.4H218.9z"/>
	<path fill="#FFFFFF" d="M185.8,102.2c0.2-1,0.3-2.6,0.4-4.8h1.1c0,2.2-0.2,3.8-0.4,4.9L185.8,102.2z M188.9,96.1v7h-1.1v-7h-2v-1.2
		h2v-1.5h1.1v1.5h1.9v1.2H188.9z M189.9,99.1c0-0.3,0-0.5-0.1-0.7s-0.3-0.4-0.5-0.5l0.9-0.7c0.2,0.2,0.4,0.4,0.6,0.7
		s0.3,0.7,0.3,1.1v3.2h-1.1V99.1z M191.9,93.5h0.6V95h-0.6V93.5z M193.1,93.5h0.6V95h-0.6V93.5z"/>
	<path fill="#FFFFFF" d="M197.4,96.9l1-0.3c0.3,0.9,0.5,1.8,0.6,2.5l-1.1,0.2C197.9,98.4,197.7,97.7,197.4,96.9z M200.9,98.5v-2.1
		h1.1v2.2c0,0.6-0.3,1.3-0.7,2.1s-1,1.6-1.6,2.4l-0.9-0.7c0.6-0.8,1.1-1.4,1.5-2.1S200.9,99.1,200.9,98.5z M198.9,96.5l1-0.3
		c0.3,0.9,0.5,1.8,0.6,2.4l-1.1,0.2C199.4,98.1,199.2,97.3,198.9,96.5z"/>
	<path fill="#FFFFFF" d="M212.5,96.1h-1.8c-0.3,1.3-0.8,2.4-1.4,3.3l-1-0.6c0.4-0.7,0.8-1.5,1.1-2.4s0.5-2,0.7-3.1l1.1,0.2l-0.3,1.4
		h2.8v2.8c0,0.5-0.2,1.1-0.6,1.9s-1.4,2-3,3.8l-0.9-0.8c1.6-1.7,2.5-2.9,2.8-3.5s0.5-1.1,0.5-1.6V96.1z"/>
	<path fill="#FFFFFF" d="M223.6,98.4c0.4,0.1,0.8,0.4,1,0.8s0.4,0.9,0.4,1.6v2.3h-1.1v-2.2c0-0.4,0-0.8-0.1-1s-0.3-0.4-0.5-0.4
		l-2.5,3.9l-0.9-0.6l2.4-3.7c0.3-0.4,0.5-0.9,0.6-1.5s0.2-1.1,0.1-1.5h-2.9v-1.2h4.1v1C224,96.9,223.9,97.7,223.6,98.4z"/>
</g>
<g>
	<path fill="none" stroke="#5AFF4D" stroke-width="2" stroke-linecap="round" stroke-linejoin="round" stroke-miterlimit="10" d="
		M105.3,30.8c8.7-7.5,8.4-18.7,11.2-29c0.6,3.4,1.2,6.7,1.9,10.1c0.7,3.5,1.2,7.2,2.6,10.4c1.4,3.2,4,6,6,8.9
		c-3.6,5.6-8.3,10.8-6.8,18.2c0.2,1,0.2,2.6,0.9,2.9c5.2,2.8,4.5,7.6,4.4,12.2c0,0.5,0.1,1.1,0.1,1.9c1.6-0.3,3.1-0.7,4.7-1
		c0,2,0,3.8,0,6.6c-2.6-0.9-4.9-1.5-7-2.6c-1.9-1-3.3-1.5-4.7,0.5c-1.6,2.2-3.3,1.9-4.8-0.1c-1.3-1.8-2.7-1.5-4.4-0.5
		c-2,1.1-4.3,1.8-7,2.9c0-2.7,0-4.6,0-6.7c1.5,0.3,2.9,0.6,4.8,1c0-2.5-0.3-4.9,0.1-7.2c0.3-1.8,1-3.8,2.2-5
		c2.5-2.7,3.9-10.2,2-13.5C109.5,37.6,107.5,34.5,105.3,30.8z"/>
	<path fill="none" stroke="#5AFF4D" stroke-width="2" stroke-linecap="round" stroke-linejoin="round" stroke-miterlimit="10" d="
		M105.3,30.8c0,0,9.2-12.5,21.7,0"/>
</g>
<g>
	
		<polygon fill="none" stroke="#5AFF4D" stroke-width="2" stroke-linecap="round" stroke-linejoin="round" stroke-miterlimit="10" points="
		42.1,16.4 28.7,29.8 15.3,16.4 1,30.7 28.7,57.6 56.4,30.7 	"/>
	
		<polygon fill="none" stroke="#5AFF4D" stroke-width="2" stroke-linecap="round" stroke-linejoin="round" stroke-miterlimit="10" points="
		42.2,25 28.7,38.5 15.2,25 10.1,30.2 28.7,48.5 47.3,30.2 	"/>
</g>
<g>
	<path fill="#5AFF4D" d="M177.2,37c0-4.9,0-9.8,0-14.7c0-1.4,0.5-2.1,1.8-2.5c7.9-2.6,15.8-5.3,23.7-8c1.2-0.4,2.2-0.4,3.4,0
		c7.8,2.8,15.6,5.5,23.4,8.2c1.5,0.5,2.2,1.2,2.2,2.9c-0.1,9.6-0.1,19.2,0,28.7c0,1.5-0.4,2.2-1.9,2.7c-7.9,2.5-15.8,5.2-23.6,7.8
		c-0.9,0.3-1.7,0.4-2.6,0.1c-8-2.6-16.1-5.3-24.2-7.8c-1.6-0.5-2.2-1.2-2.1-2.9C177.3,46.7,177.2,41.9,177.2,37z M205.6,37
		c0,7,0,13.9,0,20.9c0,1.1,0,1.7,1.4,1.2c6.9-2.3,13.8-4.6,20.8-6.9c1-0.3,1.2-0.8,1.2-1.8c0-8.8,0-17.6,0-26.4
		c0-1.1-0.4-1.5-1.4-1.9c-6.8-2.4-13.6-4.7-20.4-7.2c-1.4-0.5-1.6-0.1-1.6,1.2C205.7,23.1,205.6,30.1,205.6,37z M203.1,36.8
		c0-6.9,0-13.8,0-20.7c0-1.4-0.2-1.7-1.7-1.2c-6.8,2.4-13.6,4.7-20.4,6.9c-1.1,0.4-1.2,0.8-1.2,1.7c0,9,0,17.9,0,26.9
		c0,1.2,0.4,1.7,1.5,2c6.7,2.1,13.4,4.2,20,6.4c1.6,0.5,1.9,0.2,1.9-1.4C203.1,50.6,203.1,43.7,203.1,36.8z"/>
	
		<polyline fill="none" stroke="#5AFF4D" stroke-width="2" stroke-linecap="round" stroke-linejoin="round" stroke-miterlimit="10" points="
		184.6,33.5 184.6,26.1 196.6,22.6 196.6,38.9 190.6,41.8 190.6,45.5 	"/>
	
		<line fill="none" stroke="#5AFF4D" stroke-width="2" stroke-linecap="round" stroke-linejoin="round" stroke-miterlimit="10" x1="190.6" y1="49.5" x2="190.6" y2="51.5"/>
</g>
</svg>
