<svg xmlns="http://www.w3.org/2000/svg" x="0px" y="0px" width="740.8px" height="51.2px" viewBox="0 0 740.8 51.2"> <g> <path fill="#fff" d="M19.8,26.3c2.2,0.6,3.8,1.9,5.1,3.9c1.2,2.1,1.8,4.8,1.8,8.2V50h-5.5V38.6c0.2-2.2,0-3.9-0.8-5.1 s-1.6-1.9-2.8-2.1L4.8,51.2L0,48.3l12.2-18.9c1.4-2,2.4-4.5,3.1-7.5s0.8-5.6,0.6-7.7H1V8.3h21v5.1C22.1,18.3,21.3,22.6,19.8,26.3z" /> <path fill="#fff" d="M255.3,23.4c1.4,2,2.3,3.9,2.7,5.8c0.4,1.9,0.6,4.1,0.5,6.7v10.4h-6V36.1c0-2.1,0-3.8-0.2-5 c-0.2-1.3-0.8-2.7-1.8-4.2l-10.2-15.3c-0.2-0.4-0.5-0.7-0.9-0.8c-0.4-0.1-0.8,0.1-1.1,0.7l-2.9,4.6c-0.3,0.5-0.5,1.2-0.6,2.1v10.3 H229V17.3c0.1-1.3,0.5-2.4,1.2-3.4l6.3-9.9c0.7-1.1,1.6-1.7,2.8-1.7c1.2,0,2.1,0.6,2.9,1.7L255.3,23.4z M262.8,8.5 c-1-1-1.4-2.1-1.4-3.5c0-1.5,0.5-2.6,1.4-3.5c1-1,2.1-1.4,3.5-1.4c1.4,0,2.6,0.5,3.5,1.4c1,1,1.5,2.2,1.5,3.5 c0,1.3-0.5,2.5-1.5,3.5c-1,1-2.2,1.5-3.5,1.5C265,10,263.8,9.5,262.8,8.5z M263.7,5c0,0.8,0.3,1.4,0.8,1.9c0.5,0.5,1.1,0.8,1.9,0.8 c0.8,0,1.4-0.3,1.9-0.8c0.5-0.5,0.8-1.2,0.8-1.9c0-0.7-0.3-1.4-0.8-1.9c-0.5-0.5-1.2-0.8-1.9-0.8s-1.4,0.3-1.9,0.8 C263.9,3.6,263.7,4.2,263.7,5z"/> <path fill="#fff" d="M473.7,31.1v-6.5h38.1v6.5H473.7z"/> <path fill="#fff" d="M733.9,26.3c2.2,0.6,3.8,1.9,5.1,3.9c1.2,2.1,1.8,4.8,1.8,8.2V50h-5.5V38.6c0.2-2.2,0-3.9-0.8-5.1 s-1.6-1.9-2.8-2.1L719,51.2l-4.8-2.9l12.2-18.9c1.4-2,2.4-4.5,3.1-7.5s0.8-5.6,0.6-7.7h-14.9V8.3h21v5.1 C736.2,18.3,735.4,22.6,733.9,26.3z"/> </g> </svg> 