<svg xmlns="http://www.w3.org/2000/svg" x="0px" y="0px" viewBox="0 0 202.4 26.1"> <g> <g> <path fill="#fff" d="M9.7,13.9c1.1,0.3,1.9,0.9,2.5,1.9c0.6,1,0.9,2.3,0.9,4v5.7h-2.7v-5.6c0.1-1.1,0-1.9-0.4-2.5 c-0.3-0.6-0.8-0.9-1.4-1l-6.3,9.7L0,24.6l6-9.3c0.7-1,1.2-2.2,1.5-3.7C7.8,10.2,7.9,9,7.8,8H0.5V5.1h10.3v2.5 C10.8,10,10.4,12.1,9.7,13.9z"/> <path fill="#fff" d="M67.4,12.4c0.7,1,1.1,1.9,1.3,2.8c0.2,0.9,0.3,2,0.3,3.3v5.1h-2.9v-5c0-1,0-1.8-0.1-2.5 c-0.1-0.6-0.4-1.3-0.9-2l-5-7.5c-0.1-0.2-0.2-0.3-0.4-0.4c-0.2,0-0.4,0.1-0.5,0.3l-1.4,2.2c-0.2,0.3-0.3,0.6-0.3,1V15h-2.9V9.5 c0.1-0.6,0.3-1.2,0.6-1.7L58.2,3c0.3-0.6,0.8-0.8,1.4-0.8c0.6,0,1,0.3,1.4,0.8L67.4,12.4z M71.1,5.2c-0.5-0.5-0.7-1-0.7-1.7 c0-0.7,0.2-1.3,0.7-1.7c0.5-0.5,1-0.7,1.7-0.7c0.7,0,1.2,0.2,1.7,0.7c0.5,0.5,0.7,1.1,0.7,1.7c0,0.6-0.2,1.2-0.7,1.7 c-0.5,0.5-1.1,0.7-1.7,0.7C72.2,5.9,71.6,5.6,71.1,5.2z M71.5,3.4c0,0.4,0.1,0.7,0.4,0.9c0.2,0.3,0.5,0.4,0.9,0.4 c0.4,0,0.7-0.1,0.9-0.4c0.3-0.3,0.4-0.6,0.4-0.9c0-0.4-0.1-0.7-0.4-0.9c-0.3-0.3-0.6-0.4-0.9-0.4c-0.4,0-0.7,0.1-0.9,0.4 C71.7,2.8,71.5,3.1,71.5,3.4z"/> <path fill="#fff" d="M108.8,16.2v-3.2h18.7v3.2H108.8z"/> <path fill="#fff" d="M175.7,13.9c1.1,0.3,1.9,0.9,2.5,1.9c0.6,1,0.9,2.3,0.9,4v5.7h-2.7v-5.6c0.1-1.1,0-1.9-0.4-2.5 c-0.3-0.6-0.8-0.9-1.4-1l-6.3,9.7l-2.4-1.4l6-9.3c0.7-1,1.2-2.2,1.5-3.7c0.3-1.5,0.4-2.7,0.3-3.7h-7.3V5.1h10.3v2.5 C176.8,10,176.4,12.1,175.7,13.9z"/> </g> <g> <path fill="#fff" d="M192.8,5c0-3,2.1-5,4.8-5c2.6,0,4.8,2,4.8,5s-2.2,5-4.8,5C194.9,10.1,192.8,8,192.8,5z M201.3,5 c0-2.4-1.6-4.1-3.8-4.1s-3.8,1.7-3.8,4.1c0,2.4,1.7,4.1,3.8,4.1S201.3,7.5,201.3,5z M195.7,2.4h1.9c1.1,0,2,0.4,2,1.7 c0,0.6-0.4,1.2-1,1.4l1.2,2.1h-1.2l-0.9-1.8h-1v1.8h-1V2.4z M197.4,5c0.7,0,1.1-0.3,1.1-0.9c0-0.5-0.3-0.8-1.1-0.8h-0.7V5H197.4z" /> </g> </g> </svg> 