<?xml version="1.0" encoding="utf-8"?>
<!-- Generator: Adobe Illustrator 20.1.0, SVG Export Plug-In . SVG Version: 6.00 Build 0)  -->
<svg version="1.1" id="Layer_1" xmlns="http://www.w3.org/2000/svg" xmlns:xlink="http://www.w3.org/1999/xlink" x="0px" y="0px"
	 width="745.8px" height="51.2px" viewBox="0 0 745.8 51.2" enable-background="new 0 0 745.8 51.2" xml:space="preserve">
<g>
	<path fill="#FFFFFF" d="M19.8,26.3c2.2,0.6,3.8,1.9,5.1,3.9c1.2,2.1,1.8,4.8,1.8,8.2V50h-5.5V38.6c0.2-2.2,0-3.9-0.8-5.1
		s-1.6-1.9-2.8-2.1L4.8,51.2L0,48.3l12.2-18.9c1.4-2,2.4-4.5,3.1-7.5s0.8-5.6,0.6-7.7H1V8.3h21v5.1C22.1,18.3,21.3,22.6,19.8,26.3z"
		/>
	<path fill="#FFFFFF" d="M257,23.4c1.4,2,2.3,3.9,2.7,5.8c0.4,1.9,0.6,4.1,0.5,6.7v10.4h-6V36.1c0-2.1,0-3.8-0.2-5
		c-0.2-1.3-0.8-2.7-1.8-4.2L242,11.6c-0.2-0.4-0.5-0.7-0.9-0.8c-0.4-0.1-0.8,0.1-1.1,0.7l-2.9,4.6c-0.3,0.5-0.5,1.2-0.6,2.1v10.3
		h-5.9V17.3c0.1-1.3,0.5-2.4,1.2-3.4l6.3-9.9c0.7-1.1,1.6-1.7,2.8-1.7c1.2,0,2.1,0.6,2.9,1.7L257,23.4z M264.5,8.5
		c-1-1-1.4-2.1-1.4-3.5c0-1.5,0.5-2.6,1.4-3.5c1-1,2.1-1.4,3.5-1.4c1.4,0,2.6,0.5,3.5,1.4c1,1,1.5,2.2,1.5,3.5
		c0,1.3-0.5,2.5-1.5,3.5c-1,1-2.2,1.5-3.5,1.5C266.6,10,265.4,9.5,264.5,8.5z M265.3,5c0,0.8,0.3,1.4,0.8,1.9
		c0.5,0.5,1.1,0.8,1.9,0.8c0.8,0,1.4-0.3,1.9-0.8c0.5-0.5,0.8-1.2,0.8-1.9c0-0.7-0.3-1.4-0.8-1.9c-0.5-0.5-1.2-0.8-1.9-0.8
		s-1.4,0.3-1.9,0.8C265.6,3.6,265.3,4.2,265.3,5z"/>
	<path fill="#FFFFFF" d="M477,31.1v-6.5h38.1v6.5H477z"/>
	<path fill="#FFFFFF" d="M738.9,26.3c2.2,0.6,3.8,1.9,5.1,3.9c1.2,2.1,1.8,4.8,1.8,8.2V50h-5.5V38.6c0.2-2.2,0-3.9-0.8-5.1
		s-1.6-1.9-2.8-2.1L724,51.2l-4.8-2.9l12.2-18.9c1.4-2,2.4-4.5,3.1-7.5s0.8-5.6,0.6-7.7h-14.9V8.3h21v5.1
		C741.2,18.3,740.4,22.6,738.9,26.3z"/>
</g>
</svg>
