<svg xmlns="http://www.w3.org/2000/svg" x="0px" y="0px" viewBox="0 0 157.5 15"> <g> <path fill="#fff" d="M2.9,13.3h1.2v1.1H3c-1,0-1.7-0.2-2.2-0.7S0,12.5,0,11.6v-1.1h1.1v1c0,0.6,0.2,1.1,0.5,1.4 S2.3,13.3,2.9,13.3z M3.9,7.8l0.3,3.3l-1.1,0.1L2.7,7.8H0.5V6.7h2.1L2.4,4.8l1.1-0.1l0.2,2h0.8v1.2H3.9z"/> <path fill="#fff" d="M12.5,4.8v3.4c0.9,0,1.7,0.2,2.3,0.7s1,1,0.9,1.7v0.3c0,0.6-0.1,1.2-0.4,1.9l-1,2.1l-1-0.5l1-2.1 c0.3-0.6,0.4-1,0.4-1.5v-0.4c0-0.4-0.3-0.7-0.7-0.9s-1-0.3-1.5-0.3h-1V4.8H12.5z M14.2,4.8h1v2.9h-1V4.8z"/> <path fill="#fff" d="M22.1,14.4V4.8h1.1v9.6H22.1z M26.5,14.4c-0.7,0-1.3-0.2-1.7-0.7s-0.6-1-0.6-1.7v-1.8h1.1V12 c0,0.4,0.1,0.7,0.3,1s0.5,0.4,0.8,0.4h1v1.1H26.5z M27.6,5.7l0,1.1h-3.2V5.7H27.6z"/> <path fill="#fff" d="M39.3,12.8h2.9v1.6h-2.9c-0.6,0-1.1-0.1-1.6-0.4c-0.5-0.3-0.7-0.9-0.7-1.7V8.7h-2.5V7h2.5V4h-2V2.2h6.4V4 h-2.8v3h3.7v1.6h-3.7v3.6c0,0.2,0.1,0.3,0.2,0.4C39,12.7,39.1,12.8,39.3,12.8z"/> <path fill="#fff" d="M51.2,14.4c1-4,1.5-6.5,1.7-7.3c0.1-0.8,0.1-2.5,0-4.9h1.7c0,2.4,0,4.1-0.1,5.1c-0.1,1-0.6,3.5-1.6,7.5 L51.2,14.4z M57.8,6c0-0.7-0.2-1.3-0.4-1.6c-0.3-0.4-0.6-0.7-1.1-1l1.3-1.2c0.7,0.5,1.1,1,1.5,1.6c0.3,0.6,0.5,1.3,0.5,2.1v8.5 h-1.7V6z M60.5,0.1h0.8v2.4h-0.8V0.1z M62.2,0.1h0.8v2.4h-0.8V0.1z"/> <path fill="#fff" d="M74.3,0H76v1.4c0,0.6-0.2,1.3-0.5,2.1c-0.3,0.8-0.8,1.5-1.3,2.2v8.7h-1.6v-7l-3,2.9l-1.1-1.1l3.9-3.7 c0.7-0.6,1.2-1.3,1.5-2.1c0.4-0.8,0.5-1.4,0.6-1.9V0z"/> <path fill="#fff" d="M84.8,2.2h1.6v12.2h-1.6V2.2z M90.3,12.4l1.5-3.2l1.5,0.6L92,12.6c-0.3,0.6-0.6,1-1,1.3 c-0.4,0.3-1,0.5-1.6,0.5h-1.3V2.2h1.7v10.6C90,12.8,90.2,12.7,90.3,12.4z"/> <path fill="#fff" d="M105.4,13.6l0,1c-1.3,0-2.2-0.2-2.8-0.7s-0.8-1-0.9-1.8v-0.6c0-0.5,0-1,0.1-1.4s0.2-0.9,0.5-1.4l1.4-2.9 h-3.2V4.8h5.9v1.1h-1.4l-1.6,3.2c-0.3,0.5-0.5,0.9-0.5,1.4s-0.1,0.8-0.1,1.2V12c0,0.5,0.2,0.9,0.5,1.1S104.5,13.6,105.4,13.6z M107,4.8h0.6v1.6H107V4.8z M108.1,4.8h0.6v1.6h-0.6V4.8z"/> <path fill="#fff" d="M112.3,9.5V8.4h1.2V7h-1.2V5.9h1.2V4.8h1.1v1.2h2.8V7h-2.8v1.4h2.8v1.1h-2.8v1.1c0,0.5,0,0.8,0.1,1.1 s0.4,0.6,0.9,1l2,1.3l-0.5,0.9l-2-1.3c-0.7-0.5-1.2-1-1.3-1.4s-0.3-1-0.3-1.6V9.5H112.3z"/> <path fill="#fff" d="M127.6,2.1c1.5,0,2.7,0.7,3.4,2.2c0.7,1.2,1,2.5,1,4c0,1.8-0.4,3.1-1,4.1c-0.8,1.4-1.9,2.1-3.4,2.1 c-1.6-0.1-2.7-0.8-3.4-2.1c-0.6-1.2-1-2.6-1-4.1c0.1-1.5,0.4-2.8,1-4C125,2.9,126.1,2.2,127.6,2.1z M125.5,5.5 c-0.3,1-0.4,2-0.4,2.9c0,0.4,0.1,1.3,0.4,2.8c0.4,1.1,1.1,1.7,2.1,1.7c0.9,0,1.6-0.6,2.1-1.7c0.2-0.9,0.4-1.9,0.4-2.8 c0-0.9-0.1-1.9-0.4-2.9c-0.5-1.2-1.2-1.8-2.1-1.7C126.6,3.9,125.9,4.4,125.5,5.5z"/> <path fill="#fff" d="M139.3,7.9l5.5-5.7l1.3,1.1l-4.1,4.2l4.4,6l-1.5,1l-4.1-6l-1.5,1.6l0,4.3h-1.8V2.2h1.8L139.3,7.9z"/> <path fill="#fff" d="M155,1.3h2.5c0,3-0.2,5.8-0.5,8.2h-1.6C155.2,7,155,4.2,155,1.3z M155.1,12.5h2.2v1.9h-2.2V12.5z"/> </g> </svg> 