<svg xmlns="http://www.w3.org/2000/svg" x="0px" y="0px" width="393.1px" height="206.5px" viewBox="0 0 393.1 206.5"> <g> <path fill="none" stroke="#5aff4d" stroke-width="0.25" stroke-miterlimit="10" d="M231.2,151.3c-0.7,0.7-1.4,1.4-2.1,2.1 c-0.2,0.2-0.4,0.4-0.7,0.6c0,0,0,0.1-0.1,0c1.3-6.3,2.6-12.6,3.9-18.9c0-0.1,0.1-0.2,0-0.4c0-0.1,0.1-0.2,0.1-0.4c0,0,0,0,0,0 c0,0.3,0,0.6-0.1,0.9c-0.1,1.8-0.2,3.5-0.3,5.3c-0.1,1.5-0.2,3.1-0.3,4.6c-0.1,1.1-0.1,2.2-0.2,3.3c0,0.1,0,0.1,0,0.2 c-0.1,0-0.1,0.1,0,0.2c0,0,0,0,0,0c-0.1,0.5-0.2,0.9-0.3,1.4c0,0.2,0,0.3,0.1,0.4l0,0c0,0,0,0.1,0,0.1 C231.2,151,231.2,151.1,231.2,151.3z"/> <path fill="none" stroke="#5aff4d" stroke-width="0.25" stroke-miterlimit="10" d="M232.2,134.8c0,0.1,0,0.2,0,0.4 c-1.3,6.3-2.6,12.6-3.9,18.9c-0.5-1.1-0.9-2.3-1.4-3.4c0-0.1,0-0.1-0.1-0.2c0.1-0.1,0.1-0.3,0.2-0.4c0.1-0.1,0.2-0.3,0.2-0.4 c0.1-0.5,0.2-1,0.3-1.5c0.5-1.4,1-2.8,1.5-4.1c0.5-1.4,1-2.8,1.5-4.2c0.4-1.1,0.7-2.1,1.1-3.2C231.8,136,232,135.4,232.2,134.8z"/> <path fill="none" stroke="#5aff4d" stroke-width="0.25" stroke-miterlimit="10" d="M224.9,150.8c-0.9,0.8-1.9,1.5-2.8,2.3 c-1.1,0.9-2.1,1.7-3.2,2.6c0,0,0,0,0,0.1c0,0,0,0,0,0c0.4-0.6,0.9-1.3,1.3-1.9c1.2-1.7,2.3-3.4,3.5-5c0.1-0.1,0.2-0.2,0.3-0.1 c0.5,0.1,1,0.2,1.5,0.4c0,0.1-0.1,0.2-0.2,0.4c-0.1,0.3-0.1,0.5-0.2,0.8C225,150.4,225,150.6,224.9,150.8z"/> <path fill="none" stroke="#5aff4d" stroke-width="0.25" stroke-miterlimit="10" d="M232.9,150.6c0.5,0.1,1.1,0.2,1.6,0.3 c0.1,0,0.1,0.1,0.1,0.2c0.3,1.7,0.7,3.3,1,5c0.2,1.1,0.4,2.1,0.7,3.2c0,0,0,0,0,0.1c0,0,0,0,0,0c-0.8-1.5-1.6-3.1-2.4-4.6 c-0.4-0.7-0.8-1.5-1.2-2.2c0-0.1,0-0.3,0-0.4C232.8,151.6,233,151.1,232.9,150.6z"/> <path fill="none" stroke="#5aff4d" stroke-width="0.25" stroke-miterlimit="10" d="M227.5,148.1c-0.1,0.5-0.2,1-0.3,1.5 c0,0.2-0.1,0.3-0.2,0.4c-0.1,0.1-0.1,0.3-0.2,0.4c-0.2,0.2-0.3,0.5-0.4,0.7c-0.3,0.6-0.6,1.1-0.9,1.7c-0.3,0.6-0.7,1.2-1,1.9 c-0.3,0.5-0.6,1-0.8,1.5c0,0,0,0.1-0.1,0.1c0,0,0-0.1,0-0.1c0.4-0.9,0.8-1.9,1.1-2.8c0.5-1.2,1-2.3,1.4-3.4c0.5-1.2,1-2.4,1.5-3.7 c0.1-0.3,0.2-0.6,0.4-0.8c0,0.1,0,0.1,0,0.2c-0.2,0.8-0.3,1.6-0.4,2.4C227.5,147.9,227.5,148,227.5,148.1z"/> <path fill="none" stroke="#5aff4d" stroke-width="0.25" stroke-miterlimit="10" d="M231.4,148.9 C231.4,148.9,231.4,148.9,231.4,148.9C231.4,148.9,231.4,148.9,231.4,148.9c0.1-0.1,0.1-0.1,0.1-0.2c0.1-0.7,0.3-1.3,0.4-2 c0-0.2,0.1-0.4,0.1-0.6c0,0,0-0.1,0.1-0.1c0.1,0.4,0,0.7,0,1.1c0,1.3-0.1,2.6-0.1,3.8c0,0.8,0,1.6,0,2.4c0,1.1,0,2.1,0,3.2 c0,0.4,0,0.9,0,1.3c-0.1-0.1-0.1-0.3-0.1-0.4c-0.1-0.6-0.1-1.1-0.2-1.7c-0.1-0.5-0.1-1.1-0.2-1.6c-0.1-0.5-0.1-1.1-0.2-1.6 c-0.1-0.4-0.1-0.9-0.2-1.3c0-0.1,0-0.3,0-0.4c0,0,0-0.1,0-0.1l0,0c0-0.3,0-0.5,0.1-0.7c0.1-0.3,0.1-0.6,0.2-0.9 C231.4,149.1,231.5,149,231.4,148.9z"/> <path fill="none" stroke="#5aff4d" stroke-width="0.25" stroke-miterlimit="10" d="M228,145.3c-0.2,0.3-0.3,0.6-0.4,0.8 c-0.5,1.2-1,2.4-1.5,3.7c-0.5,1.2-1,2.3-1.4,3.4c-0.4,0.9-0.8,1.9-1.1,2.8c0,0,0,0.1,0,0.1c0,0.1-0.1,0.1-0.1,0.2c0,0,0,0,0,0 c0.1-0.3,0.2-0.6,0.2-0.9c0.2-0.5,0.3-1.1,0.5-1.6c0.2-0.9,0.5-1.8,0.7-2.6c0-0.1,0.1-0.3,0.1-0.4c0.1-0.2,0.1-0.4,0.2-0.6 c0.1-0.3,0.2-0.5,0.2-0.8c0-0.1,0.1-0.2,0.2-0.4c0.3-0.4,0.5-0.8,0.8-1.2C226.8,147,227.4,146.1,228,145.3c0-0.1,0-0.1,0-0.1 C228,145.2,228,145.3,228,145.3z"/> <path fill="none" stroke="#5aff4d" stroke-width="0.25" stroke-miterlimit="10" d="M232,157.9c0.1-0.4,0-0.9,0-1.3 c0-1.1,0-2.1,0-3.2c0-0.8,0-1.6,0-2.4c0-1.3,0-2.6,0.1-3.8c0-0.4,0-0.7,0-1.1c0,0,0-0.1,0-0.1c0,0,0,0,0,0c0.1,0.4,0.1,0.8,0.2,1.1 c0.2,1.1,0.4,2.3,0.6,3.4c0,0,0,0,0,0c0.1,0.5-0.1,1-0.1,1.5c0,0.1-0.1,0.3,0,0.4c-0.1,0.2-0.1,0.4-0.1,0.7 c-0.1,0.6-0.2,1.2-0.2,1.8c-0.1,1.1-0.3,2.1-0.4,3.2c0,0,0,0,0,0.1c0,0,0-0.1,0-0.1C232,158,232,158,232,157.9 C232,157.9,232,157.9,232,157.9z"/> <path fill="none" stroke="#5aff4d" stroke-width="0.25" stroke-miterlimit="10" d="M231.5,148.9 C231.4,148.9,231.4,148.9,231.5,148.9c-0.1,0,0-0.1,0-0.1C231.5,148.8,231.5,148.8,231.5,148.9z"/> <path fill="none" stroke="#5aff4d" stroke-width="0.25" stroke-miterlimit="10" d="M232,157.9c0,0,0,0.1,0,0.1 C231.9,158,231.9,158,232,157.9z"/> <path fill="none" stroke="#5aff4d" stroke-width="0.25" stroke-miterlimit="10" d="M236.4,159.3 C236.4,159.3,236.4,159.3,236.4,159.3C236.4,159.3,236.4,159.3,236.4,159.3C236.4,159.3,236.4,159.3,236.4,159.3z"/> <path fill="none" stroke="#5aff4d" stroke-width="0.25" stroke-miterlimit="10" d="M231.4,148.9c0.1,0.1,0,0.1,0,0.2 c-0.1,0.3-0.1,0.6-0.2,0.9c-0.1,0.2-0.1,0.5-0.1,0.7c-0.1-0.1-0.1-0.3-0.1-0.4C231.2,149.9,231.3,149.4,231.4,148.9z"/> <path fill="none" stroke="#5aff4d" stroke-width="0.25" stroke-miterlimit="10" d="M231.2,150.8 C231.2,150.8,231.2,150.8,231.2,150.8C231.2,150.8,231.2,150.8,231.2,150.8z"/> </g> <path fill="none" stroke="#5aff4d" stroke-miterlimit="10" d="M177.2,63.3l-2.3,0.8l-1.8,2.5l3.2,2.9l0.5-0.4l1.6-0.3l1.4,0.9 l0.3,0.5l4.1-1.3l-0.6-3l-1.8-1.7l-1.9-2.5L177.2,63.3z M176.1,66.7v-1.2l1.6,1.2l0.1,1L176.1,66.7z M181.5,67.7l-2,0.5l0.5-1.1 l2-0.3L181.5,67.7z"/> <polygon fill="none" stroke="#5aff4d" stroke-width="0.25" stroke-miterlimit="10" points="180,70.9 179.7,70.4 178.3,69.4 176.7,69.7 176.2,70.1 177.9,71.5 "/> <polygon fill="none" stroke="#5aff4d" stroke-width="0.25" stroke-miterlimit="10" points="181.9,70.1 182.1,71 180.5,71.9 181.6,72.3 183.5,71.2 184.2,69.4 "/> <polygon fill="none" stroke="#5aff4d" stroke-width="0.25" stroke-miterlimit="10" points="174.9,68.6 174.3,69.3 175.4,70.8 174.2,70.8 172.9,69 173,67 "/> <path fill="none" stroke="#5aff4d" stroke-miterlimit="10" d="M191,66.2l-2.3,0.8l-1.8,2.5l3.2,2.9l0.5-0.4l1.6-0.3l1.4,0.9l0.3,0.5 l4.1-1.3l-0.6-3l-1.8-1.7l-1.9-2.5L191,66.2z M189.1,69.7v-1.2l2,1.2l-0.1,1L189.1,69.7z M195.3,70.6l-2,0.5l0.5-1.1l2-0.3 L195.3,70.6z"/> <polygon fill="none" stroke="#5aff4d" stroke-width="0.25" stroke-miterlimit="10" points="193.7,73.8 193.5,73.3 192.1,72.3 190.4,72.6 190,73 191.6,74.4 "/> <polygon fill="none" stroke="#5aff4d" stroke-width="0.25" stroke-miterlimit="10" points="195.7,73 195.9,73.9 194.3,74.8 195.4,75.2 197.3,74.1 198,72.3 "/> <polygon fill="none" stroke="#5aff4d" stroke-width="0.25" stroke-miterlimit="10" points="188.7,71.5 188.1,72.2 189.2,73.7 188,73.7 186.7,71.9 186.8,69.9 "/> <path fill="none" stroke="#5aff4d" stroke-miterlimit="10" d="M204.8,69.1l-2.3,0.8l-1.8,2.5l3.2,2.9l0.5-0.4l1.6-0.3l1.4,0.9 l0.3,0.5l4.1-1.3l-0.6-3l-1.8-1.7l-1.9-2.5L204.8,69.1z M203.1,72.6v-1.2l1.9,1.2l0,1L203.1,72.6z M209,73.5l-2,0.5l0.5-1.1l2-0.3 L209,73.5z"/> <polygon fill="none" stroke="#5aff4d" stroke-width="0.25" stroke-miterlimit="10" points="207.5,76.7 207.3,76.2 205.9,75.2 204.2,75.5 203.8,75.9 205.4,77.4 "/> <polygon fill="none" stroke="#5aff4d" stroke-width="0.25" stroke-miterlimit="10" points="209.5,75.9 209.7,76.8 208.1,77.7 209.2,78.1 211.1,77 211.8,75.2 "/> <polygon fill="none" stroke="#5aff4d" stroke-width="0.25" stroke-miterlimit="10" points="202.4,74.4 201.9,75.2 202.9,76.6 201.8,76.6 200.5,74.8 200.6,72.8 "/> <path fill="none" stroke="#5aff4d" stroke-miterlimit="10" d="M218.6,72l-2.3,0.8l-1.8,2.5l3.2,2.9l0.5-0.4l1.6-0.3l1.4,0.9l0.3,0.5 l4.1-1.3l-0.6-3l-1.8-1.7l-1.9-2.5L218.6,72z M217.1,75.5v-1.2l1.8,1.2l0,1L217.1,75.5z M222.8,76.5l-2,0.5l0.5-1.1l2-0.3 L222.8,76.5z"/> <polygon fill="none" stroke="#5aff4d" stroke-width="0.25" stroke-miterlimit="10" points="221.3,79.6 221,79.1 219.7,78.1 218,78.4 217.6,78.8 219.2,80.3 "/> <polygon fill="none" stroke="#5aff4d" stroke-width="0.25" stroke-miterlimit="10" points="223.2,78.8 223.5,79.7 221.9,80.6 222.9,81 224.9,79.9 225.6,78.1 "/> <polygon fill="none" stroke="#5aff4d" stroke-width="0.25" stroke-miterlimit="10" points="216.2,77.3 215.6,78.1 216.7,79.5 215.6,79.5 214.3,77.7 214.4,75.7 "/> <g> <path fill="none" stroke="#5aff4d" stroke-miterlimit="10" d="M232.3,74.9l-2.3,0.8l-1.8,2.5l3.2,2.9l0.5-0.4l1.6-0.3l1.4,0.9 l0.3,0.5l4.1-1.3l-0.6-3l-1.8-1.7l-1.9-2.5L232.3,74.9z M231.1,78.4v-1.2l1.6,1.2l0.1,1L231.1,78.4z M236.6,79.4l-2,0.5l0.5-1.1 l2-0.3L236.6,79.4z"/> <polygon fill="none" stroke="#5aff4d" stroke-width="0.25" stroke-miterlimit="10" points="235.1,82.5 234.8,82 233.4,81 231.8,81.3 231.3,81.7 233,83.2 	"/> <polygon fill="none" stroke="#5aff4d" stroke-width="0.25" stroke-miterlimit="10" points="237,81.7 237.3,82.6 235.7,83.5 236.7,83.9 238.7,82.8 239.4,81 	"/> <polygon fill="none" stroke="#5aff4d" stroke-width="0.25" stroke-miterlimit="10" points="230,80.2 229.4,81 230.5,82.4 229.4,82.4 228,80.6 228.2,78.6 	"/> </g> <path fill="none" stroke="#5aff4d" stroke-miterlimit="10" d="M247.5,78.1l-2.3,0.8l-1.8,2.5l3.2,2.9l0.5-0.4l1.6-0.3l1.4,0.9 l0.3,0.5l4.1-1.3l-0.6-3l-1.8-1.7l-1.9-2.5L247.5,78.1z M246.1,81.6v-1.2l1.7,1.2l0,1L246.1,81.6z M251.7,82.5l-2,0.5l0.5-1.1l2-0.3 L251.7,82.5z"/> <polygon fill="none" stroke="#5aff4d" stroke-width="0.25" stroke-miterlimit="10" points="250.2,85.7 249.9,85.2 248.6,84.2 246.9,84.5 246.5,84.9 248.1,86.3 "/> <polygon fill="none" stroke="#5aff4d" stroke-width="0.25" stroke-miterlimit="10" points="252.1,84.9 252.4,85.8 250.8,86.7 251.8,87.1 253.8,86 254.5,84.2 "/> <polygon fill="none" stroke="#5aff4d" stroke-width="0.25" stroke-miterlimit="10" points="245.1,83.4 244.5,84.2 245.6,85.6 244.5,85.6 243.2,83.8 243.3,81.8 "/> <g> <path fill="none" stroke="#5aff4d" stroke-miterlimit="10" d="M261.2,81l-2.3,0.8l-1.8,2.5l3.2,2.9l0.5-0.4l1.6-0.3l1.4,0.9 l0.3,0.5l4.1-1.3l-0.6-3l-1.8-1.7l-1.9-2.5L261.2,81z M260.1,84.5v-1.2l1.6,1.2l0.1,1L260.1,84.5z M265.5,85.5l-2,0.5l0.5-1.1 l2-0.3L265.5,85.5z"/> <polygon fill="none" stroke="#5aff4d" stroke-width="0.25" stroke-miterlimit="10" points="264,88.6 263.7,88.1 262.3,87.1 260.7,87.4 260.2,87.8 261.9,89.3 	"/> <polygon fill="none" stroke="#5aff4d" stroke-width="0.25" stroke-miterlimit="10" points="265.9,87.8 266.2,88.7 264.6,89.6 265.6,90 267.6,88.9 268.3,87.1 	"/> <polygon fill="none" stroke="#5aff4d" stroke-width="0.25" stroke-miterlimit="10" points="258.9,86.3 258.3,87.1 259.4,88.5 258.3,88.5 256.9,86.7 257.1,84.7 	"/> </g> <g> <path fill="none" stroke="#5aff4d" stroke-miterlimit="10" d="M275,83.9l-2.3,0.8l-1.8,2.5l3.2,2.9l0.5-0.4l1.6-0.3l1.4,0.9 l0.3,0.5l4.1-1.3l-0.6-3l-1.8-1.7l-1.9-2.5L275,83.9z M273.1,87.4v-1.2l2,1.2l-0.1,1L273.1,87.4z M279.3,88.4l-2,0.5l0.5-1.1l2-0.3 L279.3,88.4z"/> <polygon fill="none" stroke="#5aff4d" stroke-width="0.25" stroke-miterlimit="10" points="277.8,91.5 277.5,91 276.1,90 274.5,90.3 274,90.7 275.7,92.2 	"/> <polygon fill="none" stroke="#5aff4d" stroke-width="0.25" stroke-miterlimit="10" points="279.7,90.7 280,91.6 278.4,92.5 279.4,92.9 281.4,91.8 282,90 	"/> <polygon fill="none" stroke="#5aff4d" stroke-width="0.25" stroke-miterlimit="10" points="272.7,89.2 272.1,90 273.2,91.4 272.1,91.4 270.7,89.6 270.8,87.6 	"/> </g> <g> <path fill="none" stroke="#5aff4d" stroke-miterlimit="10" d="M288.8,86.8l-2.3,0.8l-1.8,2.5l3.2,2.9l0.5-0.4l1.6-0.3l1.4,0.9 l0.3,0.5l4.1-1.3l-0.6-3l-1.8-1.7l-1.9-2.5L288.8,86.8z M287.1,90.3v-1.2l1.9,1.2l0,1L287.1,90.3z M293.1,91.3l-2,0.5l0.5-1.1 l2-0.3L293.1,91.3z"/> <polygon fill="none" stroke="#5aff4d" stroke-width="0.25" stroke-miterlimit="10" points="291.6,94.4 291.3,93.9 289.9,93 288.3,93.2 287.8,93.6 289.5,95.1 	"/> <polygon fill="none" stroke="#5aff4d" stroke-width="0.25" stroke-miterlimit="10" points="293.5,93.6 293.7,94.5 292.1,95.4 293.2,95.9 295.1,94.7 295.8,92.9 	"/> <polygon fill="none" stroke="#5aff4d" stroke-width="0.25" stroke-miterlimit="10" points="286.5,92.1 285.9,92.9 287,94.3 285.8,94.3 284.5,92.5 284.6,90.5 	"/> </g> <g> <path fill="none" stroke="#5aff4d" stroke-miterlimit="10" d="M302.6,89.7l-2.3,0.8l-1.8,2.5l3.2,2.9l0.5-0.4l1.6-0.3l1.4,0.9 l0.3,0.5l4.1-1.3l-0.6-3l-1.8-1.7l-1.9-2.5L302.6,89.7z M301.1,93.2V92l1.8,1.2l0,1L301.1,93.2z M306.9,94.2l-2,0.5l0.5-1.1l2-0.3 L306.9,94.2z"/> <polygon fill="none" stroke="#5aff4d" stroke-width="0.25" stroke-miterlimit="10" points="305.3,97.3 305.1,96.8 303.7,95.9 302,96.1 301.6,96.5 303.2,98 	"/> <polygon fill="none" stroke="#5aff4d" stroke-width="0.25" stroke-miterlimit="10" points="307.3,96.5 307.5,97.4 305.9,98.3 307,98.8 308.9,97.6 309.6,95.8 	"/> <polygon fill="none" stroke="#5aff4d" stroke-width="0.25" stroke-miterlimit="10" points="300.3,95 299.7,95.8 300.8,97.3 299.6,97.2 298.3,95.4 298.4,93.4 	"/> </g> <path fill="none" stroke="#5aff4d" stroke-miterlimit="10" d="M191.8,50.8l-3.2-0.7l1.5-0.6l0.7-1.8l-2.5,0.4l-1.1,1.8l-4.8-1 l-0.3-2.1l-2.1-1.3l-0.1,2l1.2,1.2l-3.2-0.7l-2.8,3.8l5.2,4.5l0.7-0.6l2.6-0.5l2.2,1.5l0.4,0.8l6.6-2L191.8,50.8z M179.1,51.8v-1.9 l2.9,1.9l0,1.7L179.1,51.8z M188.5,53.4l-3.2,0.7l0.8-1.7l3.2-0.5L188.5,53.4z"/> <polygon fill="none" stroke="#5aff4d" stroke-width="0.25" stroke-miterlimit="10" points="186,58.4 185.6,57.6 183.4,56.1 180.7,56.6 180,57.2 182.7,59.5 "/> <path fill="none" stroke="#5aff4d" stroke-miterlimit="10" d="M216,55.9l-3.2-0.7l1.5-0.6l0.7-1.8l-2.5,0.4l-1.1,1.8l-4.8-1 l-0.3-2.1l-2.1-1.3l-0.1,2l1.2,1.2l-3.2-0.7l-2.8,3.8l5.2,4.5l0.7-0.6l2.6-0.5l2.2,1.5l0.4,0.8l6.6-2L216,55.9z M203.1,56.9V55 l3,1.9l-0.1,1.7L203.1,56.9z M212.7,58.5l-3.2,0.7l0.8-1.7l3.2-0.5L212.7,58.5z"/> <polygon fill="none" stroke="#5aff4d" stroke-width="0.25" stroke-miterlimit="10" points="210.3,63.6 209.9,62.7 207.6,61.2 205,61.7 204.3,62.3 206.9,64.6 "/> <g> <path fill="none" stroke="#5aff4d" stroke-miterlimit="10" d="M240.3,61l-3.2-0.7l1.5-0.6l0.7-1.8l-2.5,0.4l-1.1,1.8l-4.8-1 l-0.3-2.1l-2.1-1.3l-0.1,2l1.2,1.2l-3.2-0.7l-2.8,3.8l5.2,4.5l0.7-0.6l2.6-0.5l2.2,1.5l0.4,0.8l6.6-2L240.3,61z M228.1,62.1v-1.9 l2.7,1.9l0.1,1.7L228.1,62.1z M236.9,63.6l-3.2,0.7l0.8-1.7l3.2-0.5L236.9,63.6z"/> <polygon fill="none" stroke="#5aff4d" stroke-width="0.25" stroke-miterlimit="10" points="234.5,68.7 234.1,67.8 231.9,66.3 229.2,66.8 228.5,67.4 231.2,69.7 	"/> </g> <g> <path fill="none" stroke="#5aff4d" stroke-miterlimit="10" d="M264.5,66.1l-3.2-0.7l1.5-0.6l0.7-1.8l-2.5,0.4l-1.1,1.8l-4.8-1 l-0.3-2.1l-2.1-1.3l-0.1,2l1.2,1.2l-3.2-0.7l-2.8,3.8l5.2,4.5l0.7-0.6l2.6-0.5l2.2,1.5l0.4,0.8l6.6-2L264.5,66.1z M252.1,67.2v-1.9 l2.8,1.9l0.1,1.7L252.1,67.2z M261.2,68.8l-3.2,0.7l0.8-1.7l3.2-0.5L261.2,68.8z"/> <polygon fill="none" stroke="#5aff4d" stroke-width="0.25" stroke-miterlimit="10" points="258.8,73.8 258.4,72.9 256.1,71.5 253.5,71.9 252.8,72.5 255.4,74.9 	"/> </g> <g> <path fill="none" stroke="#5aff4d" stroke-miterlimit="10" d="M288.8,71.3l-3.2-0.7l1.5-0.6l0.7-1.8l-2.5,0.4l-1.1,1.8l-4.8-1 l-0.3-2.1l-2.1-1.3l-0.1,2l1.2,1.2l-3.2-0.7l-2.8,3.8l5.2,4.5l0.7-0.6l2.6-0.5l2.2,1.5l0.4,0.8l6.6-2L288.8,71.3z M276.1,72.3v-1.9 l2.9,1.9l0,1.7L276.1,72.3z M285.4,73.9l-3.2,0.7l0.8-1.7l3.2-0.5L285.4,73.9z"/> <polygon fill="none" stroke="#5aff4d" stroke-width="0.25" stroke-miterlimit="10" points="283,78.9 282.6,78.1 280.4,76.6 277.7,77 277,77.6 279.7,80 	"/> </g> <g> <path fill="none" stroke="#5aff4d" stroke-miterlimit="10" d="M313,76.4l-3.2-0.7l1.5-0.6l0.7-1.8l-2.5,0.4l-1.1,1.8l-4.8-1 l-0.3-2.1l-2.1-1.3l-0.1,2l1.2,1.2l-3.2-0.7l-2.8,3.8l5.2,4.5l0.7-0.6l2.6-0.5l2.2,1.5l0.4,0.8l6.6-2L313,76.4z M300.1,77.4v-1.9 l3,1.9l-0.1,1.7L300.1,77.4z M309.7,79l-3.2,0.7l0.8-1.7l3.2-0.5L309.7,79z"/> <polygon fill="none" stroke="#5aff4d" stroke-width="0.25" stroke-miterlimit="10" points="307.3,84 306.9,83.2 304.6,81.7 302,82.1 301.3,82.7 303.9,85.1 	"/> </g> <path fill="none" stroke="#5aff4d" stroke-width="0.25" stroke-miterlimit="10" d="M182.8,34.6l4.7,1l-2.2,0.7l-1,2.6l3.6-0.5 l1.6-2.5l7,1.5l0.5,2.9l3.1,1.9l0.1-2.8l-1.7-1.6l4.7,1l4.2-5.7l-7.6-6.7l-1.1,0.9l-3.9,0.7l-3.3-2.2l-0.6-1.2l-9.6,3.1L182.8,34.6z M199.8,31.4l2,2l-4.7,0.7l-1.9-1.6L199.8,31.4z M190.3,32.6l-4-2.5l2.6-1l3.8,2.9L190.3,32.6z"/> <polygon fill="none" stroke="#5aff4d" stroke-width="0.25" stroke-miterlimit="10" points="189.7,37.2 195.6,38.5 196.1,40.9 191.9,41.9 188.4,39.3 "/> <g> <path fill="none" stroke="#5aff4d" stroke-width="0.25" stroke-miterlimit="10" d="M220.1,42.4l4.7,1l-2.2,0.7l-1,2.6l3.6-0.5 l1.6-2.5l7,1.5l0.5,2.9l3.1,1.9l0.1-2.8l-1.7-1.6l4.7,1l4.2-5.7l-7.6-6.7l-1.1,0.9l-3.9,0.7l-3.3-2.2l-0.6-1.2l-9.6,3.1L220.1,42.4 z M237.1,39.2l2,2l-4.7,0.7l-1.9-1.6L237.1,39.2z M227.6,40.5l-4-2.5l2.6-1l3.8,2.9L227.6,40.5z"/> <polygon fill="none" stroke="#5aff4d" stroke-width="0.25" stroke-miterlimit="10" points="227,45.1 232.9,46.3 233.4,48.7 229.2,49.8 225.7,47.2 	"/> </g> <g> <path fill="none" stroke="#5aff4d" stroke-width="0.25" stroke-miterlimit="10" d="M257.4,50.3l4.7,1l-2.2,0.7l-1,2.6l3.6-0.5 l1.6-2.5l7,1.5l0.5,2.9l3.1,1.9l0.1-2.8l-1.7-1.6l4.7,1l4.2-5.7l-7.6-6.7l-1.1,0.9l-3.9,0.7l-3.3-2.2l-0.6-1.2l-9.6,3.1L257.4,50.3 z M274.4,47.1l2,2l-4.7,0.7l-1.9-1.6L274.4,47.1z M264.9,48.3l-4-2.5l2.6-1l3.8,2.9L264.9,48.3z"/> <polygon fill="none" stroke="#5aff4d" stroke-width="0.25" stroke-miterlimit="10" points="264.2,52.9 270.2,54.2 270.7,56.6 266.5,57.6 263,55 	"/> </g> <g> <path fill="none" stroke="#5aff4d" stroke-width="0.25" stroke-miterlimit="10" d="M294.7,58.1l4.7,1l-2.2,0.7l-1,2.6l3.6-0.5 l1.6-2.5l7,1.5l0.5,2.9l3.1,1.9L312,63l-1.7-1.6l4.7,1l4.2-5.7l-7.6-6.7l-1.1,0.9l-3.9,0.7l-3.3-2.2l-0.6-1.2l-9.6,3.1L294.7,58.1z M311.7,55l2,2l-4.7,0.7l-1.9-1.6L311.7,55z M302.2,56.2l-4-2.5l2.6-1l3.8,2.9L302.2,56.2z"/> <polygon fill="none" stroke="#5aff4d" stroke-width="0.25" stroke-miterlimit="10" points="301.5,60.8 307.5,62 308,64.5 303.8,65.5 300.3,62.9 	"/> </g> <circle fill="#5AFF4D" cx="122" cy="146.2" r="5"/> <polyline fill="none" stroke="#5AFF4D" stroke-miterlimit="10" points="122,145.4 78.5,188.9 0,188.9 "/> <g> <path fill="#FFFFFF" d="M7.1,158.2c0.5,0.1,0.9,0.4,1.2,0.9c0.3,0.5,0.4,1.1,0.4,1.9v2.7H7.4V161c0-0.5,0-0.9-0.2-1.2 c-0.2-0.3-0.4-0.4-0.6-0.5l-2.9,4.5l-1.1-0.7l2.8-4.3c0.3-0.5,0.6-1,0.7-1.7c0.1-0.7,0.2-1.3,0.1-1.7H2.8v-1.3h4.8v1.2 C7.6,156.4,7.5,157.4,7.1,158.2z"/> <path fill="#FFFFFF" d="M19.2,155.5H17c-0.4,1.5-0.9,2.8-1.6,3.9l-1.1-0.7c0.5-0.8,0.9-1.7,1.3-2.9c0.4-1.1,0.6-2.3,0.8-3.6 l1.3,0.2l-0.3,1.7h3.2v3.3c0,0.6-0.2,1.3-0.7,2.2c-0.5,0.9-1.7,2.4-3.6,4.5l-1-0.9c1.8-2,2.9-3.4,3.3-4.1c0.4-0.7,0.6-1.3,0.6-1.9 V155.5z"/> <path fill="#FFFFFF" d="M26.3,154.1h1.3v5.3h-1.3V154.1z M30.6,158.2v-4.1H32v4.1c0,0.5-0.2,1.1-0.6,1.8s-1.4,2-2.9,4l-1.1-0.8 c1.5-1.9,2.4-3.2,2.8-3.7C30.5,159,30.6,158.5,30.6,158.2z"/> <path fill="#FFFFFF" d="M37,159.3v-1.5h8.7v1.5H37z"/> <path fill="#FFFFFF" d="M49.6,154l2.9,0.8l-0.4,1.3l-2.9-0.8L49.6,154z M49.6,163.6v-1.3h1.3c0.6,0,1.1-0.2,1.4-0.5 c0.3-0.3,0.5-0.8,0.7-1.3l1.7-6.4l1.3,0.3l-1.7,6.4c-0.2,0.8-0.5,1.5-1.1,2c-0.6,0.6-1.3,0.9-2.1,0.8H49.6z"/> <path fill="#FFFFFF" d="M3.1,170.9h5.2v9.5H3V179h4v-6.8H3.1V170.9z"/> <path fill="#FFFFFF" d="M14.3,170.8l2.9,0.8l-0.4,1.3l-2.9-0.8L14.3,170.8z M14.3,180.4v-1.3h1.3c0.6,0,1.1-0.2,1.4-0.5 c0.3-0.3,0.5-0.8,0.7-1.3l1.7-6.4l1.3,0.3l-1.7,6.4c-0.2,0.8-0.5,1.5-1.1,2c-0.6,0.6-1.3,0.9-2.1,0.8H14.3z"/> <path fill="#FFFFFF" d="M31.1,176.3c-0.9-0.6-1.6-1.1-2-1.3c-0.4-0.2-0.9-0.4-1.3-0.3v5.8h-1.3v-11.2h1.3v4c0.4,0,1,0.1,1.7,0.5 c0.7,0.4,1.5,0.9,2.3,1.5L31.1,176.3z"/> <path fill="#FFFFFF" d="M38.1,170.9h5.5v9.5h-5.5V170.9z M39.4,172.3v6.7h2.9v-6.7H39.4z"/> <path fill="#FFFFFF" d="M48.8,176.1v-1.5h8.7v1.5H48.8z"/> <path fill="#FFFFFF" d="M61.1,170.9h1.2v9.5h-1.2V170.9z M65.4,178.9l1.2-2.5l1.1,0.5l-1,2.1c-0.2,0.4-0.5,0.8-0.8,1.1 c-0.3,0.3-0.7,0.4-1.3,0.4h-1v-9.6h1.3v8.3C65.1,179.2,65.3,179.1,65.4,178.9z"/> </g> <g>  <rect x="143.6" y="131" transform="matrix(0.9827 0.1851 -0.1851 0.9827 28.1695 -25.5101)" fill="none" stroke="#FFFFFF" stroke-miterlimit="10" width="14.2" height="14.2"/> <polygon fill="#5aff4d" points="150,134.1 153.1,138.7 148.5,141.8 	"/> </g> <g>  <rect x="122.3" y="126.5" transform="matrix(-0.9827 -0.1851 0.1851 -0.9827 231.8066 288.9066)" fill="none" stroke="#FFFFFF" stroke-miterlimit="10" width="14.2" height="14.2"/> <polygon fill="#5aff4d" points="130.1,137.7 127,133.1 131.6,130 	"/> </g> <g>  <text transform="matrix(0.9813 0.1925 -0.1925 0.9813 290.6008 167.622)" fill="#5aff4d" font-family="'SourceCodePro-Regular'" font-size="4.9952px" letter-spacing="1">LASER</text> </g> <rect x="272.6" y="162.3" transform="matrix(0.9813 0.1925 -0.1925 0.9813 37.9912 -54.9969)" fill="none" stroke="#FFFFFF" stroke-miterlimit="10" width="58.9" height="11.4"/> <g> <g> <path fill="#5aff4d" d="M224.8,171.4c-25.1-4.8-50.2-9.7-75.3-14.5c-15-2.9-30-5.8-45-8.7c-13.1-2.5-21.5-14.9-19-28 C90.3,95,95.2,69.7,100,44.5c1.6-8.3,3.2-16.7,4.8-25c2.6-13.2,14.9-21.5,28-19c21.5,4.2,43.1,8.3,64.6,12.5 c21,4.1,42,8.1,63.1,12.1c23.5,4.5,46.9,9.1,70.4,13.6c14.2,2.7,28.4,5.5,42.6,8.2c13.3,2.6,21.7,14.8,19.1,28.2 c-4.7,24.5-9.5,49-14.2,73.5c-1.8,9.1-3.5,18.2-5.3,27.3c-2.5,12.9-14.9,21.4-27.8,18.9c-31.8-6.1-63.6-12.3-95.4-18.4 C241.6,174.7,233.2,173.1,224.8,171.4C224.8,171.5,224.8,171.4,224.8,171.4z M253.2,24.8c-28.8-5.6-57.7-11.1-86.5-16.7 c-11.3-2.2-22.5-4.4-33.8-6.5c-1.6-0.3-3.2-0.5-4.8-0.5C117,1.3,108,8.9,105.9,19.8c-1.7,8.7-3.4,17.4-5,26.1 c-4.8,24.9-9.6,49.7-14.4,74.6c-0.7,3.7-0.6,7.4,0.6,11c2.8,8.5,8.7,13.8,17.5,15.6c14.5,2.9,29,5.6,43.5,8.4 c22.4,4.3,44.8,8.6,67.2,13c22.8,4.4,45.5,8.8,68.3,13.2c20.6,4,41.3,8,62,11.9c1.7,0.3,3.5,0.5,5.2,0.4 c10.8-0.5,19.4-8,21.5-18.6c1.9-9.7,3.7-19.4,5.6-29.2c4.6-23.8,9.2-47.7,13.8-71.5c0.2-1.2,0.4-2.5,0.4-3.8 c0.3-11.3-7.8-21-18.7-23c-14.1-2.6-28.1-5.4-42.1-8.1C305.2,34.8,279.2,29.8,253.2,24.8z"/> <path fill="#5aff4d" d="M251.3,29c27.9,5.4,55.7,10.7,83.6,16.1c8.7,1.7,17.5,3.4,26.2,5.1c2.1,0.4,2.9,1.5,2.5,3.6 c-1.5,7.5-3,15.1-4.4,22.6c-3.6,19-7.3,37.9-10.9,56.9c-3.3,17-6.6,34.1-9.9,51.1c-0.5,2.4-1.5,3.1-3.9,2.6 c-18.8-3.6-37.6-7.3-56.4-10.9c-22.2-4.3-44.4-8.5-66.6-12.8c-22-4.2-44.1-8.5-66.1-12.8c-10-1.9-20-3.9-30.1-5.8 c-2.3-0.5-3.1-1.5-2.6-3.9c3.6-18.7,7.2-37.3,10.8-56c4-20.9,8.1-41.8,12.1-62.7c0.8-3.9,1.5-7.8,2.3-11.7c0.4-2.3,1.5-3,3.7-2.6 c20.1,3.9,40.2,7.8,60.4,11.7C218.4,22.7,234.9,25.8,251.3,29C251.3,29,251.3,29,251.3,29z M225.2,164.7 c28.2,5.4,56.4,10.9,84.6,16.3c8.4,1.6,16.9,3.2,25.3,4.9c1.4,0.3,1.9-0.1,2.2-1.5c2.4-12.2,4.8-24.3,7.1-36.5 c1-5.1,1.9-10.3,2.9-15.4c5-26.2,10.1-52.4,15.2-78.6c0.4-2,0.1-2.4-1.8-2.8c-8-1.6-16.1-3.1-24.1-4.7 c-22.6-4.4-45.2-8.7-67.8-13.1c-22.4-4.3-44.9-8.7-67.3-13c-19.9-3.8-39.7-7.7-59.6-11.5c-2-0.4-2.4-0.1-2.8,1.9 c-2.6,13.5-5.2,27-7.8,40.4c-5.8,29.8-11.5,59.7-17.3,89.5c-0.4,2-0.1,2.4,1.9,2.8c9.3,1.8,18.5,3.6,27.8,5.4 C170.8,154.2,198,159.5,225.2,164.7z"/> <path fill="#5aff4d" d="M104.5,71.7c0.7-3.8,1.4-7.6,2.2-11.4c0.5-2.5,2.1-4.1,4.6-4.7c2.5-0.6,4.6,0.3,6.2,2.3 c1.1,1.4,1.4,3,1.1,4.8c-1.4,7.6-2.9,15.2-4.4,22.7c-0.6,3.2-3.8,5.2-7,4.6c-3.3-0.6-5.5-3.5-4.9-6.7 C102.9,79.4,103.8,75.5,104.5,71.7C104.5,71.7,104.5,71.7,104.5,71.7z M105.6,71.8c-0.7,3.6-1.4,7.3-2.1,10.9 c-0.1,0.6-0.2,1.1-0.2,1.7c0.2,2.4,2.2,4.4,4.6,4.5c2.6,0.1,4.7-1.5,5.2-4.1c1.4-7.4,2.9-14.8,4.3-22.2c0.6-2.9-1.2-5.6-3.9-6 c-2.8-0.5-5.2,1.3-5.8,4.2C107,64.5,106.3,68.2,105.6,71.8z"/> <path fill="#5aff4d" d="M371,123.4c1-5.1,2-10.3,3-15.4c0.3-1.8,1.5-2.7,3-2.4c1.4,0.3,2.2,1.7,1.9,3.4c-2,10.2-3.9,20.4-5.9,30.6 c-0.1,0.5-0.2,1-0.4,1.4c-0.6,1.1-1.7,1.6-2.9,1.2c-1.1-0.3-1.8-1.5-1.6-2.7c0.3-1.6,0.6-3.2,0.9-4.8 C369.6,130.9,370.3,127.1,371,123.4z M372.1,123.5c-1,5.2-2,10.4-3,15.5c-0.2,0.9-0.1,1.7,0.9,2c0.8,0.2,1.5-0.4,1.7-1.5 c2-10.1,3.9-20.3,5.9-30.4c0.1-0.4,0.3-0.9,0.1-1.2c-0.2-0.5-0.6-1.2-1-1.2c-0.4-0.1-1.1,0.4-1.4,0.8c-0.3,0.3-0.2,0.8-0.3,1.2 C374,113.6,373.1,118.6,372.1,123.5z"/> <path fill="#5aff4d" d="M122,26.2c-0.2,0.9-0.4,1.9-0.5,2.8c-0.2,1.1-0.9,1.4-1.9,1.3c-0.1,0-0.1,0-0.2,0 c-3.4-0.6-3.6-0.8-2.9-4.1c0.3-1.3,0.5-2.5,0.7-3.8c0.3-1.2,0.9-1.7,2.1-1.5c3.3,0.6,3.7,0.6,2.9,4.1 C122.1,25.4,122.1,25.8,122,26.2C122,26.2,122,26.2,122,26.2z M117.8,25.3c-0.1,0.5-0.2,1-0.3,1.5c-0.4,2.1-0.4,2,1.8,2.5 c0.9,0.2,1.1-0.1,1.2-0.9c0.2-1.4,0.5-2.8,0.8-4.2c0.3-1.6,0.3-1.6-1.3-1.9c-1.5-0.3-1.5-0.3-1.8,1.2 C118,24.1,117.9,24.7,117.8,25.3z"/> <path fill="#5aff4d" d="M103.5,118.8c-0.6-0.2-0.9-0.3-1.5-0.5c0.8-1.1,1.6-2.1,2.3-3.1c0.1,0,0.2,0,0.3,0.1 c0.3,1.2,0.6,2.3,0.9,3.5c-0.1,0-0.2-0.1-0.3-0.1c-0.3,0.6-0.7,1.1-0.8,1.7c-0.2,0.7-0.3,1.4-0.5,2.1c-0.4,1.4-1.7,2.3-3.1,2 c-1.5-0.3-2.5-1.4-2.3-2.9c0.3-2,0.7-4.1,1.1-6.1c0.1-0.2,0.4-0.4,0.7-0.6c0.1,0.3,0.4,0.6,0.4,0.9c-0.3,1.7-0.6,3.5-1,5.2 c-0.3,1.3,0.2,2.2,1.2,2.4c1,0.2,1.8-0.4,2.1-1.8C103.2,120.7,103.4,119.8,103.5,118.8z"/> <path fill="#5aff4d" d="M362.5,171.4c-1.9-0.4-3.1-2.2-2.8-4.1c0.4-1.9,2.2-3.1,4.1-2.8c1.8,0.3,3.1,2.2,2.8,4 C366.2,170.5,364.5,171.8,362.5,171.4z M360.8,167.5c-0.2,1.2,0.7,2.5,1.8,2.8c1.2,0.3,2.6-0.6,2.9-1.9c0.2-1.2-0.6-2.5-1.9-2.8 C362.4,165.4,361.1,166.3,360.8,167.5z"/> <path fill="#5aff4d" d="M123.1,27.8c-0.2,1-0.4,2-0.6,3c-0.2,1-0.9,1.4-1.8,1.3c-1-0.1-2-0.3-2.9-0.6c-0.3-0.1-0.4-0.4-0.7-0.6 c0.3-0.1,0.6-0.4,0.9-0.4c0.7,0.1,1.4,0.2,2.1,0.4c0.9,0.3,1.2,0,1.4-0.9c0.3-1.8,0.6-3.5,1-5.3c0.1-0.3,0.5-0.6,0.8-0.9 c0.1,0.4,0.3,0.8,0.3,1.2C123.5,26,123.3,26.9,123.1,27.8C123.1,27.8,123.1,27.8,123.1,27.8z"/> <path fill="#5aff4d" d="M365.9,148.6c0.3-1.5,1.7-2.4,3.2-2.1c1.5,0.3,2.3,1.7,2,3.2c-0.3,1.4-1.7,2.3-3.1,2 C366.5,151.4,365.6,150.1,365.9,148.6z M366.8,148.8c-0.2,0.9,0.4,1.8,1.4,2c1,0.2,1.9-0.4,2.1-1.3c0.2-1-0.4-2-1.4-2.1 C367.9,147.2,367,147.8,366.8,148.8z"/> <path fill="#5aff4d" d="M364.8,154.6c0.3-1.5,1.7-2.4,3.1-2.1c1.4,0.3,2.3,1.7,2.1,3.1c-0.3,1.5-1.7,2.5-3.2,2.2 C365.4,157.4,364.5,156,364.8,154.6z M365.7,154.8c-0.1,0.9,0.6,1.9,1.4,2.1c1,0.2,1.9-0.6,2.1-1.5c0.1-0.9-0.5-1.9-1.5-2 C366.7,153.2,365.8,153.9,365.7,154.8z"/> </g> </g> <line fill="none" stroke="#5aff4d" stroke-width="0.25" stroke-miterlimit="10" x1="235.8" y1="120.3" x2="238.4" y2="106.7"/> </svg> 