<svg xmlns="http://www.w3.org/2000/svg" x="0px" y="0px" width="574px" height="126px" viewBox="0 0 574 126"> <g> <path fill="#999" d="M63,53.1c5.1,0,10.2,0,15.4,0c0.9,0,1.1,0.3,1.1,1.1c0,7.6,0,15.2,0,22.9c0,2.6-1.5,4.1-4.1,4.1 c-2.7,0-2.7,0-2.7,2.8c0,1.8,0,3.6,0,5.4c0,2.2-1.5,3.6-3.6,3.6c-2.1,0-3.6-1.5-3.6-3.6c0-2.4,0-4.9,0-7.3c0-0.6-0.2-0.9-0.9-0.9 c-1.1,0.1-2.1,0.1-3.2,0c-0.8,0-1,0.2-1,1c0,2.3,0,4.6,0,7c0,2.3-1.4,3.8-3.5,3.9c-2.3,0-3.8-1.4-3.8-3.8c0-2.4-0.1-4.8,0-7.2 c0-0.6-0.2-0.9-0.8-0.8c-0.6,0-1.2,0-1.8,0c-2.1-0.1-3.8-1.6-3.8-3.7c0-7.9,0-15.8,0-23.6c0-0.9,0.5-0.8,1.1-0.8 C52.7,53.1,57.9,53.1,63,53.1z"/> <path fill="#999" d="M62.9,51.8c-5,0-10.1,0-15.1,0c-1,0-1.2-0.3-1-1.2c0.9-4.9,3.3-8.7,7.5-11.3c0.7-0.4,0.8-0.7,0.4-1.4 c-0.8-1.3-1.5-2.6-2.3-3.9c-0.1-0.3-0.5-0.6-0.1-0.8c0.4-0.2,0.5,0.2,0.7,0.5c0.8,1.4,1.6,2.7,2.4,4.1c0.3,0.5,0.5,0.6,1.1,0.4 c4.3-1.8,8.6-1.8,12.9,0c0.6,0.2,0.8,0.1,1.1-0.4c0.7-1.4,1.5-2.7,2.3-4c0.2-0.3,0.3-0.8,0.7-0.5c0.6,0.3,0.1,0.6-0.1,0.9 c-0.7,1.3-1.4,2.6-2.2,3.8c-0.4,0.6-0.4,0.9,0.3,1.3c4.2,2.6,6.7,6.4,7.7,11.4c0.2,1,0,1.3-1.1,1.3C73,51.8,67.9,51.8,62.9,51.8z M71.8,44.5c0-0.8-0.7-1.6-1.5-1.6c-0.9,0.1-1.4,0.5-1.5,1.5c-0.1,0.9,0.6,1.6,1.5,1.6C71.1,46.1,71.8,45.4,71.8,44.5z M55.2,46 c0.8,0,1.5-0.7,1.5-1.5c0-0.8-0.7-1.6-1.6-1.5c-0.9,0.1-1.4,0.6-1.5,1.5C53.7,45.3,54.3,46,55.2,46z"/> <path fill="#999" d="M37.7,64c0-2.5,0-5,0-7.5c0-2.3,1.5-3.9,3.6-3.9c2.1,0,3.6,1.6,3.6,3.8c0.1,5.1,0.1,10.2,0.1,15.3 c0,2.3-1.6,3.9-3.7,3.9c-2.1,0-3.7-1.6-3.7-3.9C37.7,69.2,37.7,66.6,37.7,64C37.7,64,37.7,64,37.7,64z"/> <path fill="#999" d="M80.9,64.1c0-2.5,0-5,0-7.5c0-2.4,1.5-4,3.6-4c2.1,0,3.7,1.7,3.7,4c0,5.1,0,10.2,0,15.2 c0,2.2-1.6,3.8-3.6,3.8c-2.1,0-3.6-1.6-3.7-3.7C80.9,69.3,80.9,66.7,80.9,64.1C80.9,64.1,80.9,64.1,80.9,64.1z"/> </g> <circle fill="none" stroke="#5AFF4D" stroke-miterlimit="10" cx="63" cy="63" r="62.4"/> <g> <path fill="#999" d="M210.6,61.9c0-3.1,0-6.1,0-9.1c0-2.7,0-5.4,0-8.1c0-0.5-0.1-1,0.7-1.1c7.6-1,15.1-2.1,22.7-3.1 c0.2,0,0.4,0,0.7,0c0,7.1,0,14.2,0,21.4C226.8,61.9,218.8,61.9,210.6,61.9z"/> <path fill="#999" d="M234.8,64c0,7.2,0,14.2,0,21.5c-8-1.2-16-2.3-24.1-3.5c0-6,0-11.9,0-18C218.7,64,226.7,64,234.8,64z"/> <path fill="#999" d="M190.2,61.9c0-5.1,0-10.2,0-15.3c6.1-0.9,12.2-1.7,18.4-2.6c0,6,0,11.9,0,17.8 C202.5,61.9,196.4,61.9,190.2,61.9z"/> <path fill="#999" d="M190.2,64c6.2,0,12.2,0,18.4,0c0,5.9,0,11.7,0,17.7c-6.1-0.9-12.2-1.8-18.4-2.7 C190.2,74,190.2,69.1,190.2,64z"/> </g> <circle fill="none" stroke="#5AFF4D" stroke-miterlimit="10" cx="212.5" cy="63" r="62.4"/> <g> <path fill="#999" d="M383.8,75.4c-2,3.1-3.8,6.2-6,8.9c-2.6,3.3-5.8,4.5-10.3,3c-3-0.9-6.7-0.8-9.7,0.1c-4,1.2-6.9,0.4-9.5-2.5 c-5.7-6.6-8.8-14.1-7.9-22.9c0.9-8.8,8.5-13.8,17.2-11.9c3.3,0.7,7,0.6,10.3,0c5.5-1,10.2-0.6,13.8,4.2 C374.4,62.7,374.8,67.9,383.8,75.4z"/> <path fill="#999" d="M371.3,38c-0.4,7.1-3.2,10.2-9.5,11.4C361.1,43.4,364.2,39.4,371.3,38z"/> </g> <circle fill="none" stroke="#5AFF4D" stroke-miterlimit="10" cx="362.1" cy="63" r="62.4"/> <g> <path fill="#999" d="M509.1,75c-0.3-1.2-0.5-2.4-0.9-3.6c-0.5-1.6-1.1-3.2-1.7-4.8c-1.7-4.3-2.9-8.7-3.9-13.3 c-0.1-0.6-0.1-1.2,0-1.8c0.2-0.8,0.8-1.3,1.7-1.5c0.8-0.1,1.4,0.3,1.6,0.9c0.7,1.8,1.3,3.6,1.9,5.4c1.3,3.4,2.6,6.7,3.9,10.1 c0.1,0.2,0.3,0.4,0.6,0.5c0-0.5,0.1-1,0.1-1.5c0.1-1.7,0.6-2.5,1.7-2.8c1.5-0.4,2.4,0,3.3,1.5c0.2,0.3,0.4,0.6,0.5,0.9 c2.6-1.1,3.6-0.7,5.2,1.7c2-0.8,3.3-0.5,4.6,1.4c1.5,2.1,2.1,4.6,2.4,7.1c0.2,2.2,0.5,4.3,0.7,6.5c0.2,2.3,1.4,4,2.9,5.7 c1,1,1.1,1.6,0.1,2.7c-2.6,3.1-5.9,5-9.8,5.8c-1.2,0.2-2.2-0.2-3.1-1.1c-3.4-3.3-6.8-6.5-10.3-9.7c-2.2-2-4.2-4.1-5.5-6.9 c-1.2-2.4-2.7-4.6-4.2-6.8c-0.4-0.6-1-0.9-1.5-1.4c-0.4-0.4-0.6-0.9-0.9-1.4c0.6-0.3,1.3-0.9,1.9-0.8c1.6,0.1,3.1,0.7,4.2,2 c1.2,1.5,2.4,3.1,3.6,4.6c0.2,0.2,0.3,0.5,0.5,0.7C508.8,75,508.9,75,509.1,75z"/> <path fill="#999" d="M492.5,77.1c1.8,0,3.5,0,5.3,0c1,0,2,0.1,3,0c1.4-0.2,2.2,0.4,2.8,1.6c0.4,1,0.9,1.9,1.5,2.9 c-0.4,0-0.7,0.1-1,0.1c-3.7,0-7.4,0-11.1,0c-2.6,0-4.3-1.6-4.3-4.2c0-12.4,0-24.7,0-37.1c0-2.7,1.7-4.3,4.4-4.3 c6.7,0,13.4,0,20.1,0c2.7,0,4.4,1.7,4.4,4.3c0,5.1-0.1,10.2-0.1,15.3c0,1.9,0,3.8,0,5.5c-1.1-0.2-2.3-0.3-3.6-0.5 c0-6,0-12.2,0-18.4c-7.2,0-14.2,0-21.3,0C492.5,53.8,492.5,65.4,492.5,77.1z M503.1,40.3c1,0,2,0.1,2.9,0c0.4-0.1,0.8-0.5,1.2-0.8 c-0.4-0.3-0.7-0.8-1.1-0.8c-2-0.1-4-0.1-6,0c-0.4,0-0.7,0.5-1.1,0.8c0.4,0.3,0.7,0.8,1.1,0.8C501,40.4,502.1,40.3,503.1,40.3z"/> </g> <circle fill="none" stroke="#5AFF4D" stroke-miterlimit="10" cx="511.6" cy="63" r="62.4"/> </svg> 