<svg xmlns="http://www.w3.org/2000/svg" xmlns:xlink="http://www.w3.org/1999/xlink" x="0px" y="0px" width="127px" height="47.7px" viewBox="0 0 127 47.7"> <circle fill="#5AFF4D" cx="122" cy="5" r="5"/> <polyline fill="none" stroke="#5AFF4D" stroke-miterlimit="10" points="122,4.2 78.5,47.7 0,47.7 "/> <g> <path fill="#FFFFFF" d="M9,15.5c-0.6,2.3-1.5,3.7-2.4,4.9c1.5,1.2,2.8,2.4,4.2,3.8l-0.6,0.6c-1.6-1.8-3.7-3.5-4-3.8 c-0.9,1-2.4,2.7-5,3.9l-0.5-0.6c1.9-0.8,5.6-3.1,7.3-8H1.2v-0.7H9z"/> <path fill="#FFFFFF" d="M12.5,24.2c2.1-0.5,6.7-1.9,7.5-8h-4.6c-0.8,1.3-1.7,2.4-3.2,3.4L11.7,19c1-0.7,2.3-1.8,3.2-3.5h6 c-0.6,7.5-6.1,8.9-8,9.4L12.5,24.2z"/> <path fill="#FFFFFF" d="M23.8,21.6h-0.7v-6.5h0.7V21.6z M30.2,20.1c0,4-3.4,4.6-6.4,4.7l-0.2-0.7c3.7-0.1,5.8-0.9,5.8-4v-5.2h0.8 V20.1z"/> <path fill="#FFFFFF" d="M42.7,19.5v0.8H32.4v-0.8H42.7z"/> <path fill="#FFFFFF" d="M48.2,18c-1-0.7-2.6-1.4-3.7-1.7l0.4-0.7c1.2,0.3,2.7,1,3.7,1.7L48.2,18z M44.8,23.7c0.8,0,3.3-0.1,5.5-2 c2.2-1.8,3-4.3,3.3-5.3l0.6,0.5c-0.4,1.2-1.3,3.7-3.7,5.6c-1.6,1.3-3.6,2-5.7,2.1L44.8,23.7z"/> <path fill="#FFFFFF" d="M9.6,30.4v8H1.2v-0.7h7.6v-6.6H1.3v-0.7H9.6z"/> <path fill="#FFFFFF" d="M15.7,32.4c-1-0.7-2.6-1.4-3.7-1.7l0.4-0.7c1.2,0.3,2.7,1,3.7,1.7L15.7,32.4z M12.3,38.1 c0.8,0,3.3-0.1,5.5-2c2.2-1.8,3-4.3,3.3-5.3l0.6,0.5c-0.4,1.2-1.3,3.7-3.7,5.6c-1.6,1.3-3.6,2-5.7,2.1L12.3,38.1z"/> <path fill="#FFFFFF" d="M30.3,35.7c-1.3-0.8-3-1.8-5.6-2.6v6.3h-0.8V29.1h0.8v3.2c2.1,0.7,4.1,1.6,6,2.6L30.3,35.7z"/> <path fill="#FFFFFF" d="M41.1,30.2v8.4h-8.7v-8.4H41.1z M40.3,30.9h-7.2v7h7.2V30.9z"/> <path fill="#FFFFFF" d="M53.6,33.9v0.8H43.2v-0.8H53.6z"/> <path fill="#FFFFFF" d="M57.8,32.7c0,3-0.6,4.8-2.4,6.6l-0.5-0.5c2.1-1.9,2.2-4.2,2.2-6v-3.1h0.7V32.7z M60.9,38.2 c3-0.6,3.8-2.7,4.2-4.9l0.7,0.3c-0.5,2.4-1.4,5.1-5.6,5.5v-9.8h0.7V38.2z"/> </g> </svg> 