<svg xmlns="http://www.w3.org/2000/svg" x="0px" y="0px" width="574.8px" height="125.8px" viewBox="0 0 574.8 125.8"> <path fill="#999" d="M60.8,55.6c0-0.9-0.1-1.4-0.1-1.9C60.2,45,64.3,41.4,72.8,43c3.6,0.7,7.2,1.6,10.8,1.9 c7.5,0.6,10.2-3.1,7.6-10.2c-0.5-1.5-1.2-2.9-1.9-4.9c3.1,2.2,4.9,8.2,4,11.6c-0.8,2.9-3.1,4.8-7.3,4.8c-3.5,0-7-0.8-10.6-1.2 c-1.9-0.3-3.8-0.8-5.7-0.9c-5.1-0.2-7.5,2.1-7.7,7.3c0,1.3,0.1,2.6,0.2,4.3c4.1,0,8,0,12,0c4.9,0,9.8,0,14.7,0 c3.4,0,5.1,1.7,5.1,5.1c0.1,6.7,0.1,13.5,0,20.2c0,3.6-1.8,5.2-5.6,5.2c-10.1,0-20.2,0-30.3,0c-6.8,0-13.7,0-20.5,0 c-4.4,0-5.9-1.5-6-5.9c0-6.1,0-12.2,0-18.3c0-4.7,1.5-6.2,6.2-6.2C45.5,55.6,53,55.6,60.8,55.6z M43.4,81.8c1.1,0.1,1.9,0.2,2.7,0.2 c9,0,18.1,0,27.1,0c2,0,2.9-0.5,2.9-2.7c0-2.2-1.1-2.4-2.9-2.4C64,77,54.9,77,45.7,77c-0.8,0-1.5,0.2-2.4,0.3 C43.4,78.8,43.4,80.1,43.4,81.8z M78.1,68.7c0,1.7,0,3.1,0,4.6c4,0,7.7,0,11.5,0c0-1.6,0-3,0-4.6C85.8,68.7,82.1,68.7,78.1,68.7z M57.2,65.3c1.8-0.3,3.5-0.3,4.7-1.1c0.5-0.3,0.5-2.9,0-3.3c-1.2-0.8-2.9-0.8-4.6-1.1C57.2,61.8,57.2,63.2,57.2,65.3z M55.5,60.2 c-2.1,0-3.5,0-5.5,0c0.3,1.7,0.2,3.5,1,4.5c0.5,0.6,3,0.6,3.6,0C55.3,63.7,55.2,62,55.5,60.2z M57.2,73.1c5.1,0.9,5.7,0.2,4.4-4.5 c-1.4,0-2.8,0-4.4,0C57.2,70.2,57.2,71.7,57.2,73.1z M50.5,73.2c1.6,0,3,0,4.5,0c0-1.7,0-3,0-4.4C50,68,49.6,68.4,50.5,73.2z M71.1,73.2c1.8,0,3.3,0,4.7,0c0-1.7,0-3.1,0-4.5c-1.7,0-3.1,0-4.7,0C71.1,70.3,71.1,71.7,71.1,73.2z M75.8,60.3c-1.7,0-3.2,0-4.7,0 c0,1.6,0,3,0,4.5c1.6,0,3.1,0,4.7,0C75.8,63.2,75.8,61.8,75.8,60.3z M68.7,73.4c0-1.6,0-3.1,0-4.7c-1.6,0-3,0-4.4,0 c0,1.7,0,3.1,0,4.7C65.8,73.4,67.1,73.4,68.7,73.4z M43.4,73.3c1.8,0,3.1,0,4.6,0c0-1.6,0-3.1,0-4.6c-1.7,0-3.1,0-4.6,0 C43.4,70.3,43.4,71.7,43.4,73.3z M36.1,73.2c1.7,0,3.2,0,4.6,0c0-1.7,0-3.1,0-4.6c-1.6,0-3,0-4.6,0C36.1,70.2,36.1,71.6,36.1,73.2z M89.5,64.8c0-1.8,0-3.2,0-4.7c-1.6,0-3,0-4.5,0c0,1.6,0,3.1,0,4.7C86.6,64.8,88,64.8,89.5,64.8z M40.7,64.8c0-1.7,0-3.1,0-4.6 c-1.7,0-3.1,0-4.6,0c0,1.6,0,3,0,4.6C37.7,64.8,39.1,64.8,40.7,64.8z M78.1,65.3c1.9-0.4,3.6-0.5,4.7-1.3c0.6-0.4,0.5-3-0.1-3.3 c-1.2-0.7-2.9-0.6-4.6-0.9C78.1,61.8,78.1,63.1,78.1,65.3z M68.7,65c0-1.7,0-3.2,0-4.7c-1.6,0-3.1,0-4.6,0c0,1.6,0,3,0,4.5 c0.6,0.1,1.1,0.2,1.6,0.2C66.6,65,67.5,65,68.7,65z M43.6,60.1c-0.8,5.2-0.1,5.8,4.7,4.3c-0.1-1.4-0.1-2.9-0.2-4.3 C46.3,60.1,45,60.1,43.6,60.1z M40.7,81.8c0-1.7,0-3.1,0-4.6c-1.6,0-3.1,0-4.6,0c0,1.7,0,3.1,0,4.6C37.8,81.8,39.1,81.8,40.7,81.8z M82.6,81.7c0,0.1,0,0.1,0,0.2c0.3,0,0.6,0.2,0.9,0c0.7-0.3,1.4-0.7,2.1-1c-0.7-0.4-1.3-1-2-1.1c-1.2-0.2-2.5-0.2-3.8,0 c-0.6,0.1-1.2,0.7-1.8,1c0.6,0.4,1.1,1,1.7,1.1C80.6,82,81.6,81.7,82.6,81.7z"/> <circle fill="none" stroke="#5AFF4D" stroke-miterlimit="10" cx="63" cy="62.9" r="62.4"/> <g> <path fill="#999" d="M222.6,49.5c-16,0-30,0-45,0c0,11,0,21,0,31c15,0,29,0,45,0C222.6,70.5,222.6,60.5,222.6,49.5z M220.6,78.5 h-41v-27h41V78.5z"/> <path fill="#999" d="M246.8,41.4c0-1.7-0.8-2.5-2.5-2.5c-7.9,0-15.8-0.1-23.7,0.1c-0.9,0-2.3,1.2-2.4,2.1 c-0.4,2.1-0.1,4.4-0.1,6.4c1.4,0,2.5,0,3.7,0c0.1-1,0.1-3,0.2-4c7.2,0,14.7,0,20.7,0c0,2,0,3,0,5c-5,0-12,0-17,0c0,1,0,3,0,6 c5,0,11.3,0,17.1,0c0,1,0,1,0,1c-5.8,0-12,0-17,0c0,1,0,2,0,4c5,0,11.3,0,17.1,0c0,0,0,1,0,1c-5.9,0-12.1,0-17.1,0c0,8,0,14,0,22 c-3,0-5.3,0-7.4,0c-0.4,3,0,4.5,2.5,4.5c7.8,0.1,15.6-0.1,23.4-0.1c1.8,0,2.7-0.8,2.7-2.7C246.7,69.9,246.7,55.6,246.8,41.4z M235.1,71.3c-0.2,1.1-1.4,2.1-2.8,3.9c-1.3-1.9-2.7-3-2.6-4c0.1-1,1.5-2.5,2.6-2.7C234,68.1,235.4,69.6,235.1,71.3z"/> <path fill="#999" d="M202.6,82.1c-1.7,0.3-3.5,0.2-5.1,0c-3.8-0.6-6.3,1.4-8.5,4.4c7.4,0,14.4,0,21.8,0 C208.6,83.5,206.4,81.5,202.6,82.1z"/> </g> <circle fill="none" stroke="#5AFF4D" stroke-miterlimit="10" cx="212.5" cy="62.9" r="62.4"/> <g> <path fill="#999" d="M361.8,86.8c-9.6,0-19.2,0-28.8,0c-1.2,0-2.4-0.1-3.4-0.5c-2.2-0.9-2.8-3.1-1.1-4.7 c4.7-4.2,5.8-9.2,5.4-15.3c-0.5-7.8-0.1-15.6-0.1-23.4c0-3.1,0.8-3.9,3.9-3.9c16.3,0,32.6,0,48.9,0c3.1,0,3.8,0.8,3.9,3.9 c0,9.6,0.1,19.2,0,28.8c0,2.4,0.5,4.4,2.2,6.1c1.1,1.1,2,2.3,3,3.5c1.8,2.2,1.1,4.5-1.7,5.2c-0.9,0.2-2,0.2-3,0.2 C381.2,86.8,371.5,86.8,361.8,86.8z M362.1,72.8c7.1,0,14.1-0.1,21.2,0c2.6,0,3.6-1,3.5-3.5c-0.1-8.1-0.1-16.3,0-24.4 c0-2.6-1.1-3.6-3.6-3.5c-14.1,0-28.2,0-42.4,0c-2.5,0-3.6,1-3.5,3.6c0.1,8.1,0.1,16.3,0,24.4c0,2.6,1,3.5,3.6,3.5 C348,72.8,355.1,72.8,362.1,72.8z M372,82.9c0.1-0.3,0.3-0.6,0.4-0.9c-1.1-0.5-2.1-1.4-3.2-1.4c-4.7-0.2-9.4,0-14.1-0.1 c-1.7,0-2.6,0.7-3,2.4C358.8,82.9,365.4,82.9,372,82.9z M367.6,85.2c0-0.2,0-0.4,0-0.7c-3.6,0-7.3,0-10.9,0c0,0.2,0,0.4,0,0.7 C360.3,85.2,363.9,85.2,367.6,85.2z"/> <path fill="#999" d="M373.2,63.4c-1,1.6-1.9,3.1-3,4.5c-1.3,1.7-3,2.3-5.2,1.5c-1.5-0.5-3.4-0.4-4.9,0.1c-2,0.6-3.5,0.2-4.8-1.3 c-2.9-3.3-4.5-7.2-4-11.7c0.5-4.5,4.3-7,8.7-6c1.7,0.4,3.5,0.3,5.2,0c2.8-0.5,5.2-0.3,7,2.1C368.4,57,368.6,59.6,373.2,63.4z"/> <path fill="#999" d="M366.9,44.4c-0.2,3.6-1.6,5.2-4.8,5.8C361.7,47.1,363.3,45.1,366.9,44.4z"/> </g> <circle fill="none" stroke="#5AFF4D" stroke-miterlimit="10" cx="362.1" cy="62.9" r="62.4"/> <g> <path fill="#999" d="M511.4,48.1c-7.2,0-14.2,0-21.3,0c-3.9,0-4.1,0.2-4.1,4.2c0,7.1,0.1,14.1,0,21.2c0,2.6,0.9,3.5,3.5,3.5 c12.9-0.1,25.7-0.1,38.6,0c2.6,0,3.6-1,3.5-3.5c-0.1-1.8,0-3.6,0-5.6c1.1,0,2,0,3.3,0c0,2.6,0.1,5.3,0,8c-0.2,2.3,0.4,4.2,2.1,5.8 c0.8,0.8,1.7,1.7,2.2,2.7c0.6,1,1.4,2.5,1,3.2c-0.5,1-2,1.6-3.1,2.1c-0.6,0.3-1.4,0.1-2.2,0.1c-17.5,0-35,0-52.4,0c-1,0-2,0-3-0.3 c-2.6-0.7-3.5-2.9-1.5-4.8c3.9-3.7,5.1-8,4.8-13.3c-0.4-7.3-0.1-14.7-0.1-22c0-2.6,1-3.6,3.6-3.6c7.8,0.1,15.6,0,23.4,0 C510.9,46,512.2,45.9,511.4,48.1z M517.8,86.1c0.1-0.3,0.1-0.7,0.2-1c-5-2.3-10.4-0.6-15.6-1c-0.9-0.1-2,0.9-2.9,1.3 c0.1,0.2,0.2,0.4,0.3,0.7C505.7,86.1,511.8,86.1,517.8,86.1z M513.7,88.4c0-0.2,0-0.4,0-0.6c-3.3,0-6.6,0-9.9,0c0,0.2,0,0.4,0,0.6 C507.1,88.4,510.4,88.4,513.7,88.4z"/> <path fill="#999" d="M546.2,48.2c-4.1,0-8,0-12.2,0c0-4,0-8,0-12.3c4,0,8,0,12.2,0C546.2,40,546.2,44,546.2,48.2z"/> <path fill="#999" d="M539.8,64.9c-3.3,0-6.4,0-9.7,0c0-3.3,0-6.5,0-9.9c3.2,0,6.3,0,9.7,0C539.8,58.3,539.8,61.4,539.8,64.9z"/> <path fill="#999" d="M531.9,53.1c-2.6,0-4.8,0-7,0c-0.3,0-0.7-0.1-1.2-0.2c0-2.6,0-5.2,0-7.9c2.7,0,5.3,0,8.1,0 C531.9,47.6,531.9,50.3,531.9,53.1z"/> <path fill="#999" d="M525.3,42.3c0-1.8,0-3.6,0-5.5c1.8,0,3.6,0,5.6,0c0,1.8,0,3.5,0,5.5C529.1,42.3,527.4,42.3,525.3,42.3z"/> <path fill="#999" d="M520.2,47.4c0,1.9,0,3.6,0,5.5c-1.9,0-3.6,0-5.6,0c0-1.8,0-3.5,0-5.5C516.4,47.4,518.2,47.4,520.2,47.4z"/> <path fill="#999" d="M522.3,66.9c0-1.9,0-3.7,0-5.7c1.9,0,3.5,0,5.4,0c0,1.8,0,3.7,0,5.7C526,66.9,524.3,66.9,522.3,66.9z"/> <path fill="#999" d="M522.4,60.4c-1.8,0-3.5,0-5.4,0c0-1.9,0-3.6,0-5.6c1.7,0,3.4,0,5.4,0C522.4,56.7,522.4,58.5,522.4,60.4z"/> <path fill="#999" d="M512.7,61.5c-1.6,0-3,0-4.6,0c0-1.6,0-3.1,0-4.7c1.5,0,2.9,0,4.6,0C512.7,58.3,512.7,59.8,512.7,61.5z"/> <path fill="#999" d="M513,63c1.5,0,2.9,0,4.5,0c0,1.5,0,2.9,0,4.6c-1.4,0-2.9,0-4.5,0C513,66.1,513,64.6,513,63z"/> <path fill="#999" d="M509.8,63.6c0,1.6,0,3,0,4.6c-1.5,0-3,0-4.6,0c0-1.5,0-2.9,0-4.6C506.6,63.6,508,63.6,509.8,63.6z"/> </g> <circle fill="none" stroke="#5AFF4D" stroke-miterlimit="10" cx="511.6" cy="62.9" r="62.4"/> </svg> 