<svg xmlns="http://www.w3.org/2000/svg" x="0px" y="0px" viewBox="0 0 144.8 14.8">
<g>
	<path fill="#fff" d="M6,0h1.7v1.4c0,0.6-0.2,1.3-0.5,2.1C6.8,4.3,6.4,5,5.8,5.6v8.7H4.2v-7l-3,2.9L0,9.1l3.9-3.7
		C4.6,4.7,5.1,4,5.4,3.2C5.8,2.5,6,1.8,6,1.3V0z"/>
	<path fill="#fff" d="M16.8,2.1l3.7,1l-0.5,1.6l-3.7-1L16.8,2.1z M16.8,14.4v-1.7h1.7c0.8,0,1.4-0.3,1.8-0.7
		c0.4-0.4,0.7-1,0.9-1.6l2.2-8.2L25,2.6l-2.2,8.1c-0.2,1-0.7,1.9-1.4,2.6c-0.7,0.7-1.6,1.1-2.7,1.1H16.8z"/>
	<path fill="#fff" d="M33.6,4V2.2h7.9v5.1c0,0.7-0.4,1.7-1.2,2.9c-0.8,1.2-1.8,2.7-3.2,4.4l-1.5-0.9c1.5-2,2.6-3.4,3.1-4.2
		s0.9-1.6,0.9-2.2V4H33.6z M42.8,0.1h0.8v2.4h-0.8V0.1z M44.5,0.1h0.8v2.4h-0.8V0.1z"/>
	<path fill="#fff" d="M50.6,7.4l0-1.8h7.6V8c0,0.7-0.4,1.7-1.1,2.7s-2,2.4-3.7,4.1l-1.2-1.1c1.7-1.7,2.9-2.9,3.5-3.7
		c0.6-0.8,0.8-1.4,0.8-2V7.4H50.6z M51.7,2.2H57V4h-5.3V2.2z"/>
	<path fill="#fff" d="M75.3,2.2v5.1c0,0.9-0.4,1.9-1.2,3.2s-1.7,2.7-2.9,4.2l-1.5-0.9c1.1-1.4,1.9-2.7,2.7-3.9
		c0.7-1.1,1.1-2,1.1-2.6V4h-4.8v4.6h-1.6V2.2h3.2V0h1.7v2.2H75.3z"/>
	<path fill="#fff" d="M89.3,7.6V4h-2.7v4.9h-1.6V4h-1.3V2.2h1.3V0h1.6v2.2h2.7V0H91v2.2h1.4V4H91v3.6c0,0.9-0.4,2-1.1,3.1
		c-0.8,1.2-1.8,2.5-3,3.9l-1.3-1c1.3-1.5,2.2-2.6,2.8-3.5C89,9.2,89.3,8.4,89.3,7.6z M93.3,0.1h0.8v2.4h-0.8V0.1z M95,0.1h0.8v2.4
		H95V0.1z"/>
	<path fill="#fff" d="M100,8.9V7h11.1v1.9H100z"/>
	<path fill="#fff" d="M121.2,9.7c0,0.6-0.1,1.3-0.4,2.1s-0.9,1.8-1.8,3l-0.9-0.7c0.8-1.1,1.3-2,1.6-2.7s0.4-1.3,0.4-1.7V7.4h-1.5
		c0,0.4-0.1,0.9-0.2,1.3s-0.4,1.2-0.9,2.3l-1-0.4c0.5-1.3,0.9-2.2,1-2.9s0.2-1.7,0.3-2.9h1.1c0,0.5,0,1-0.1,1.5h3.5v1.2h-1.1V9.7z
		 M122.9,4.8h0.6v1.6h-0.6V4.8z M124.1,4.8h0.6v1.6h-0.6V4.8z"/>
	<path fill="#fff" d="M127.4,10.7V9.4h7.4v1.3H127.4z"/>
	<path fill="#fff" d="M143.5,9.9c0.5,0.7,0.8,1.3,0.9,1.8l0.5,2.5l-1.1,0.2l-0.2-1.1l-4.1,0.8l-0.2-1l0.8-0.1
		c0.1-1.2,0.2-2.1,0.3-2.6c0.1-0.6,0.5-2,1.3-4.3l1.1,0.3c-0.8,2.3-1.2,3.7-1.3,4.2c-0.1,0.5-0.2,1.2-0.3,2.2l2.3-0.4l0-0.2
		c0-0.3-0.3-0.8-0.7-1.5L143.5,9.9z"/>
</g>
</svg>
