<svg xmlns="http://www.w3.org/2000/svg" x="0px" y="0px" width="80px" height="24.8px" viewBox="0 0 80 24.8"> <g> <g> <path fill="#FFFFFF" d="M15.3,21.1c0-2.2,1.3-3.4,3-3.4c0.9,0,1.5,0.4,1.9,0.8l-0.8,0.9c-0.3-0.3-0.6-0.5-1.1-0.5 c-0.8,0-1.5,0.8-1.5,2.1c0,1.3,0.5,2.1,1.5,2.1c0.2,0,0.5-0.1,0.6-0.2v-1.1H18v-1.2h2.3v3c-0.4,0.4-1.2,0.8-2,0.8 C16.6,24.5,15.3,23.3,15.3,21.1z"/> <path fill="#FFFFFF" d="M24.9,17.8h1.8l2,6.5h-1.6l-0.4-1.5h-2l-0.4,1.5h-1.5L24.9,17.8z M25.1,21.6h1.4L26.3,21 c-0.2-0.7-0.4-1.4-0.5-2.1h0c-0.2,0.7-0.3,1.4-0.5,2.1L25.1,21.6z"/> <path fill="#FFFFFF" d="M31.4,17.8h1.5l0.6,2.3l0.2,0.9h0l0.2-0.9l0.6-2.3h1.5v6.5H35v-2c0-0.7,0.1-2.3,0.2-3h0L34.6,21l-0.5,1.6 h-0.7L32.9,21l-0.5-1.7h0c0.1,0.7,0.2,2.3,0.2,3v2h-1.2V17.8z"/> <path fill="#FFFFFF" d="M39.7,17.8H44v1.2h-2.8v1.3h2.4v1.2h-2.4v1.5h2.9v1.2h-4.4V17.8z"/> <path fill="#FFFFFF" d="M47.3,23.5l0.8-1c0.5,0.4,1.1,0.7,1.7,0.7c0.6,0,0.9-0.2,0.9-0.6c0-0.5-0.4-0.6-1-0.8l-0.8-0.4 c-0.7-0.3-1.4-0.8-1.4-1.8c0-1.1,1-1.9,2.4-1.9c0.8,0,1.6,0.3,2.2,0.9l-0.7,0.9c-0.4-0.3-0.9-0.5-1.5-0.5c-0.5,0-0.8,0.2-0.8,0.6 c0,0.4,0.4,0.5,1.1,0.8l0.8,0.3c0.9,0.3,1.4,0.8,1.4,1.8c0,1.1-0.9,2-2.5,2C48.9,24.5,48,24.1,47.3,23.5z"/> </g> <g> <path fill="#FF0000" d="M6.1,12.8C2.7,12.8,0,10,0,6.6c0-3.5,2.8-6.1,6.3-6.1c3.4,0,6.1,2.8,6,6.2C12.3,10.1,9.5,12.8,6.1,12.8z M4.1,3.4c0,2.2,0,4.4,0,6.6c0.4,0,0.8,0,1.3,0c0-0.7,0-1.3,0-2c0.6-0.1,1,0,1.2,0.5c0.3,0.4,0.6,0.8,0.9,1.3 C7.6,9.8,7.7,10,7.9,10c0.5,0,1,0,1.5,0C8.7,9.1,8.1,8.3,7.5,7.5c0.2-0.2,0.3-0.3,0.4-0.4c0.5-0.7,0.7-1.4,0.4-2.2 C8,4.1,7.5,3.5,6.6,3.4C5.8,3.3,5,3.4,4.1,3.4z"/> <path fill="#FFFFFF" d="M23.8,12.3c-0.9,0-1.7,0-2.5,0c-0.1,0-0.3-0.1-0.4-0.3c-0.7-0.9-1.4-1.9-2.1-2.8c-0.2-0.3-0.5-0.4-0.8-0.4 c-0.3,0-0.6,0-1,0c0,1.2,0,2.3,0,3.5c-0.7,0-1.4,0-2.1,0c0-3.7,0-7.5,0-11.2c0,0,0,0,0.1,0c1.3,0,2.7-0.1,4,0 c1.6,0.2,2.8,1.2,3.2,2.8c0.5,1.6,0,2.9-1.2,4c-0.1,0.1-0.2,0.1-0.3,0.2C21.7,9.5,22.7,10.9,23.8,12.3z M17,3.2c0,1.1,0,2.3,0,3.4 c0.6,0,1.1,0,1.6,0c0.8-0.1,1.4-0.8,1.5-1.7c0-0.8-0.5-1.6-1.3-1.7C18.2,3.1,17.6,3.2,17,3.2z"/> <path fill="#FFFFFF" d="M30.2,3.5c0.2-0.1,0.3-0.3,0.4-0.3c0.6,0,1.2,0,1.9,0c0,3,0,6,0,9c-0.7,0-1.3,0-2,0 c-0.1,0-0.2-0.2-0.3-0.3c-0.9,0.5-1.8,0.7-2.8,0.5c-1.3-0.3-2.2-1.1-2.8-2.2c-0.8-1.5-0.8-3.1-0.1-4.7C25.3,3.7,27.6,2.2,30.2,3.5 z M26.2,7.7c0,0.8,0.2,1.5,0.7,2.1c0.8,0.9,1.9,0.9,2.7,0c1-1,1-2.9,0-3.9C28.8,5,27.7,5,27,5.8C26.4,6.3,26.2,7,26.2,7.7z"/> <path fill="#FFFFFF" d="M39,7.5c1.6,1.6,3.2,3.2,4.8,4.8c-1,0-1.9,0-2.8,0c-0.1,0-0.3-0.1-0.4-0.3c-1.1-1-2.1-2.1-3.2-3.2 c-0.1-0.1-0.2-0.2-0.4-0.4c0,1.3,0,2.5,0,3.8c-0.7,0-1.4,0-2.1,0c0-4,0-8,0-12c0.7,0,1.4,0,2.1,0c0,2,0,4.1,0,6.2 c0.2-0.2,0.3-0.3,0.4-0.4c0.9-0.9,1.7-1.7,2.6-2.6c0.2-0.1,0.4-0.3,0.6-0.3c0.9,0,1.7,0,2.6,0C41.9,4.7,40.5,6.1,39,7.5z"/> <path fill="#FFFFFF" d="M70.4,8.4c-2,0-4,0-6.1,0c0.2,0.8,0.6,1.4,1.3,1.7c0.9,0.5,1.6,0.3,2.8-0.7c0.6,0.3,1.2,0.7,1.8,1 c-1,1.6-3.1,2.4-4.9,1.9c-3.5-1.1-4.6-5.7-1.9-8.2c1.5-1.5,3.8-1.5,5.4-0.1C70.1,5.2,70.5,6.7,70.4,8.4z M67.9,6.5 C67.7,5.6,67.1,5,66.2,5c-0.9,0-1.7,0.6-1.8,1.4C65.6,6.5,66.7,6.5,67.9,6.5z"/> <path fill="#FFFFFF" d="M74.2,12.3c-0.7,0-1.4,0-2.1,0c0-3,0-6,0-9.1c0.7,0,1.4,0.1,2.1,0.1c0.1,0,0.2,0,0.3-0.1 c2.7-1,5.4,0.9,5.4,3.8c0,1.6,0,3.2,0,4.8c0,0.1,0,0.3,0,0.4c-0.7,0-1.4,0-2.2,0c0-0.2,0-0.4,0-0.5c0-1.6,0-3.1,0-4.7 c0-1.5-1.5-2.4-2.7-1.7c-0.6,0.4-0.9,1-0.9,1.7c0,1.5,0,3.1,0,4.6C74.2,11.9,74.2,12.1,74.2,12.3z"/> <path fill="#FFFFFF" d="M44.2,3.3c0.7,0,1.4,0,2.1,0c0,0.2,0,0.3,0,0.5c0,1.6,0,3.1,0,4.7c0,1.1,0.8,2,1.8,2c1,0,1.8-0.8,1.8-1.9 c0-1.5,0-3.1,0-4.6c0-0.2,0-0.3,0-0.5c0.7,0,1.4,0,2.1,0c0,3,0,6,0,9.1c-0.7-0.1-1.5-0.1-2.2-0.2c-0.1,0-0.2,0-0.3,0.1 c-2.7,1-5.4-0.8-5.4-3.8C44.2,6.8,44.2,5.1,44.2,3.3z"/> <path fill="#FFFFFF" d="M61.4,10.4c-0.6,1.6-1.9,2.4-3.5,2.1c-1.5-0.2-2.6-1.5-2.6-3.1c0-1.1,0-2.3,0-3.4c0-0.2,0-0.3,0-0.5 c-0.5,0-1,0-1.5,0c0-0.7,0-1.4,0-2.2c0.5,0,1,0,1.5,0c0-0.8,0-1.5,0-2.2c0.7,0,1.4,0,2.2,0c0,0.7,0,1.4,0,2.2c1.1,0,2.1,0,3.1,0 c0,0.7,0,1.4,0,2.1c-1,0-2,0-3.1,0c0,0.3,0,0.5,0,0.8c0,1,0,2.1,0,3.1c0,0.5,0.1,0.9,0.6,1.1c0.5,0.2,0.8,0,1.1-0.3 c0.1-0.1,0.2-0.1,0.3-0.1C60.1,10,60.7,10.2,61.4,10.4z"/> <path fill="#FFFFFF" d="M4.1,3.4c0.9,0,1.7-0.1,2.5,0C7.5,3.5,8,4.1,8.3,4.9c0.3,0.8,0.1,1.6-0.4,2.2C7.8,7.2,7.7,7.4,7.5,7.5 C8.1,8.3,8.7,9.1,9.4,10c-0.6,0-1,0-1.5,0c-0.1,0-0.2-0.2-0.3-0.3C7.2,9.3,6.9,8.9,6.6,8.5C6.3,8,6,7.8,5.4,8c0,0.6,0,1.3,0,2 c-0.5,0-0.9,0-1.3,0C4.1,7.8,4.1,5.6,4.1,3.4z M5.4,4.6c0,0.7,0,1.3,0,2C6,6.6,6.6,6.8,7,6.2c0.2-0.4,0.2-0.7,0-1.1 C6.6,4.5,6,4.6,5.4,4.6z"/> <path fill="#FF0000" d="M5.4,4.6C6,4.6,6.6,4.5,7,5.1c0.2,0.4,0.2,0.7,0,1.1C6.6,6.8,6,6.6,5.4,6.6C5.4,6,5.4,5.3,5.4,4.6z"/> </g> </g> </svg> 