<svg xmlns="http://www.w3.org/2000/svg" x="0px" y="0px" width="219.1px" height="62.9px" viewBox="0 0 219.1 62.9"> <g> <g> <path fill="#D422FF" d="M11.7,7.1l-7.3,4.6L0,21.4l13.2,7.5l1.3-1.6l5.4-2.2l5.4,2.2l1.3,1.6l13.2-7.5l-4.4-9.8l-7.3-4.6L19.9,0 L11.7,7.1z M10.1,19.9l-0.9-4.1l6.5,3l1,3.5L10.1,19.9z M29.5,19.3l-6.5,3l0.9-4.1l6.7-2.4L29.5,19.3z"/> <polygon fill="#D422FF" points="26.6,31.2 25.3,29.6 19.9,27.4 14.5,29.6 13.2,31.2 19.9,35 		"/> <polygon fill="#D422FF" points="32.7,27.1 34.2,30 29.4,34.3 33.3,35 39.2,29.7 40.2,23 		"/> <polygon fill="#D422FF" points="7.5,27.1 6.1,30 10.9,34.3 7,35 1.1,29.7 0.1,23 		"/> </g> <g> <path fill="#D422FF" d="M2.2,57.9H0.4v-0.6h1.8v-1.9h0.6v1.9h1.8v0.6H2.9v1.9H2.2V57.9z"/> <path fill="#D422FF" d="M7.4,60.2h1.8v-4.6H7.8v-0.5C8.5,55,9,54.8,9.4,54.6H10v5.6h1.6v0.7H7.4V60.2z"/> <path fill="#D422FF" d="M14,57.7c0-2.1,0.8-3.2,2.2-3.2c1.4,0,2.2,1.1,2.2,3.2c0,2.1-0.8,3.2-2.2,3.2C14.8,61,14,59.8,14,57.7z M17.7,57.7c0-1.8-0.6-2.6-1.5-2.6c-0.9,0-1.5,0.8-1.5,2.6c0,1.8,0.6,2.6,1.5,2.6C17.1,60.3,17.7,59.5,17.7,57.7z M15.6,57.6 c0-0.4,0.3-0.6,0.6-0.6c0.3,0,0.6,0.2,0.6,0.6c0,0.4-0.3,0.7-0.6,0.7C15.9,58.3,15.6,58.1,15.6,57.6z"/> <path fill="#D422FF" d="M21,56.1h0.7l0.1,0.6h0c0.4-0.4,1.1-0.7,1.6-0.7c1.3,0,2,0.9,2,2.4c0,1.6-1,2.6-2.2,2.6 c-0.4,0-1-0.2-1.4-0.6h0l0,0.9v1.6H21V56.1z M24.5,58.4c0-1-0.4-1.7-1.3-1.7c-0.4,0-0.9,0.2-1.4,0.7v2.4c0.4,0.4,0.9,0.6,1.3,0.6 C23.9,60.3,24.5,59.6,24.5,58.4z"/> <path fill="#D422FF" d="M28.9,59v-2.2h-1.3v-0.6l1.4,0l0.1-1.5h0.7v1.5H32v0.7h-2.3V59c0,0.8,0.3,1.3,1.2,1.3 c0.4,0,0.8-0.1,1.1-0.2l0.2,0.6c-0.4,0.2-0.9,0.3-1.5,0.3C29.4,61,28.9,60.2,28.9,59z"/> <path fill="#D422FF" d="M34.4,60.2l0.4-0.5c0.5,0.4,1.2,0.6,2.1,0.6c0.8,0,1.2-0.3,1.2-0.7c0-0.4-0.2-0.6-1.5-0.9 c-1.2-0.3-1.9-0.7-1.9-1.4c0-0.8,0.7-1.3,2-1.3c0.7,0,1.4,0.3,1.9,0.6l-0.4,0.5c-0.4-0.3-1-0.5-1.6-0.5c-0.8,0-1.1,0.3-1.1,0.7 c0,0.4,0.4,0.6,1.4,0.8c1.6,0.3,2,0.7,2,1.5c0,0.8-0.8,1.4-2.1,1.4C35.8,61,35,60.6,34.4,60.2z"/> </g> <g> <path fill="#D422FF" d="M0.2,43h2.4c1.7,0,2.9,0.6,2.9,2.3c0,1.7-1.2,2.4-2.9,2.4H1.2v3.1h-1V43z M2.5,46.9c1.4,0,2-0.5,2-1.6 c0-1.1-0.7-1.5-2-1.5H1.2v3.1H2.5z"/> <path fill="#D422FF" d="M8.5,50h2v-6.2h-2V43h4.9v0.8h-2V50h2v0.9H8.5V50z"/> <path fill="#D422FF" d="M17,43h1v3.9h0l3.3-3.9h1.1L20,46l2.8,4.9h-1.1l-2.3-4.1L18,48.4v2.5h-1V43z"/> <path fill="#D422FF" d="M25.4,43h1v3.9h0l3.3-3.9h1.1l-2.5,3l2.8,4.9H30l-2.3-4.1l-1.4,1.6v2.5h-1V43z"/> <path fill="#D422FF" d="M35.6,43h1.1l2.7,7.9h-1.1l-0.7-2.4h-2.9L34,50.9h-1L35.6,43z M35,47.7h2.4L37,46.5 c-0.3-0.9-0.5-1.7-0.8-2.7h0c-0.3,0.9-0.5,1.8-0.8,2.7L35,47.7z"/> </g> </g> <g> <g> <path fill="#0013FF" d="M83.7,42h1.1l2.7,7.9h-1.1l-0.7-2.4h-2.9l-0.8,2.4h-1L83.7,42z M83.1,46.6h2.4l-0.4-1.2 c-0.3-0.9-0.5-1.7-0.8-2.7h0c-0.3,0.9-0.5,1.8-0.8,2.7L83.1,46.6z"/> <path fill="#0013FF" d="M89.8,49.3l4.4-6.4h-4V42h5.2v0.6L91.1,49h4.5v0.9h-5.7V49.3z"/> <path fill="#0013FF" d="M98.4,46.9V42h1v4.9c0,1.6,0.7,2.2,1.7,2.2s1.7-0.6,1.7-2.2V42h1v4.9c0,2.3-1.1,3.1-2.6,3.1 C99.5,50,98.4,49.1,98.4,46.9z"/> <path fill="#0013FF" d="M107.1,42h2.4c1.6,0,2.7,0.6,2.7,2.2c0,1.2-0.7,2-1.8,2.2l2,3.4h-1.1l-1.9-3.3h-1.4v3.3h-1V42z M109.4,45.7c1.2,0,1.9-0.5,1.9-1.5c0-1-0.7-1.4-1.9-1.4h-1.3v2.9H109.4z"/> <path fill="#0013FF" d="M117.3,42h1.1l2.7,7.9H120l-0.7-2.4h-2.9l-0.8,2.4h-1L117.3,42z M116.7,46.6h2.4l-0.4-1.2 c-0.3-0.9-0.5-1.7-0.8-2.7h0c-0.3,0.9-0.5,1.8-0.8,2.7L116.7,46.6z"/> </g> <g> <path fill="#0013FF" d="M120.5,7h-8.6l3.6-2l0.8-4.9l-6.1,2L108.3,7H95.4l-1.9-4.8l-6.1-2.1l0.8,4.8L91.8,7h-8.7l-5.2,11.8l15.8,9 l1.6-1.9l6.5-2.6l6.5,2.6l1.6,1.9l15.8-9.1L120.5,7z M90.1,16.9L89,12l7.8,3.6l1.2,4.2L90.1,16.9z M113.4,16.3l-7.8,3.6l1-4.9 l8-2.9L113.4,16.3z"/> <polygon fill="#0013FF" points="109.9,30.5 108.4,28.6 101.8,26 95.3,28.6 93.7,30.5 101.8,35 		"/> </g> <g> <path fill="#0013FF" d="M83.7,57.9h-1.8v-0.6h1.8v-1.9h0.6v1.9h1.8v0.6h-1.8v1.9h-0.6V57.9z"/> <path fill="#0013FF" d="M88.6,60.4c2.1-1.9,3.3-3,3.3-4c0-0.7-0.4-1.2-1.4-1.2c-0.6,0-1.1,0.3-1.5,0.8l-0.5-0.5 c0.6-0.6,1.2-0.9,2-0.9c1.2,0,2,0.7,2,1.8c0,1.2-1.2,2.3-2.9,3.9c0.4,0,0.8-0.1,1.2-0.1h2v0.7h-4.4V60.4z"/> <path fill="#0013FF" d="M95.4,57.7c0-2.1,0.8-3.2,2.2-3.2s2.2,1.1,2.2,3.2c0,2.1-0.8,3.2-2.2,3.2S95.4,59.8,95.4,57.7z M99.1,57.7 c0-1.8-0.6-2.6-1.5-2.6s-1.5,0.8-1.5,2.6c0,1.8,0.6,2.6,1.5,2.6S99.1,59.5,99.1,57.7z M97,57.7c0-0.4,0.3-0.6,0.6-0.6 c0.3,0,0.6,0.2,0.6,0.6c0,0.4-0.3,0.7-0.6,0.7C97.3,58.3,97,58.1,97,57.7z"/> <path fill="#0013FF" d="M102.4,56.1h0.7l0.1,0.6h0c0.4-0.4,1.1-0.7,1.6-0.7c1.3,0,2,0.9,2,2.4c0,1.6-1,2.6-2.2,2.6 c-0.4,0-1-0.2-1.4-0.6h0l0,0.9v1.6h-0.8V56.1z M106,58.4c0-1-0.4-1.7-1.3-1.7c-0.4,0-0.9,0.2-1.4,0.7v2.4c0.4,0.4,0.9,0.6,1.3,0.6 C105.3,60.3,106,59.6,106,58.4z"/> <path fill="#0013FF" d="M110.3,59v-2.2H109v-0.6l1.4,0l0.1-1.5h0.7v1.5h2.3v0.7h-2.3V59c0,0.8,0.3,1.3,1.2,1.3 c0.4,0,0.8-0.1,1.1-0.2l0.2,0.6c-0.4,0.2-0.9,0.3-1.5,0.3C110.8,61,110.3,60.2,110.3,59z"/> <path fill="#0013FF" d="M115.9,60.2l0.4-0.5c0.5,0.4,1.2,0.6,2.1,0.6c0.8,0,1.2-0.3,1.2-0.7c0-0.4-0.2-0.6-1.5-0.9 c-1.2-0.3-1.9-0.7-1.9-1.4c0-0.8,0.7-1.3,2-1.3c0.7,0,1.4,0.3,1.9,0.6l-0.4,0.5c-0.4-0.3-1-0.5-1.6-0.5c-0.8,0-1.1,0.3-1.1,0.7 c0,0.4,0.4,0.6,1.4,0.8c1.6,0.3,2,0.7,2,1.5c0,0.8-0.8,1.4-2.1,1.4C117.3,61,116.4,60.6,115.9,60.2z"/> </g> </g> <g> <g> <path fill="#FF0000" d="M167.4,41.9h2.4c1.6,0,2.7,0.6,2.7,2.2c0,1.2-0.7,2-1.8,2.2l2,3.4h-1.1l-1.9-3.3h-1.4v3.3h-1V41.9z M169.7,45.6c1.2,0,1.9-0.5,1.9-1.5c0-1-0.7-1.4-1.9-1.4h-1.3v2.9H169.7z"/> <path fill="#FF0000" d="M175.2,45.8c0-2.5,1.2-4,3-4c1.8,0,3,1.5,3,4c0,2.6-1.2,4.1-3,4.1C176.5,49.9,175.2,48.4,175.2,45.8z M180.2,45.8c0-2-0.8-3.2-2-3.2s-2,1.2-2,3.2c0,2,0.8,3.2,2,3.2S180.2,47.8,180.2,45.8z"/> <path fill="#FF0000" d="M183.8,49.2l4.4-6.4h-4v-0.8h5.2v0.6l-4.4,6.4h4.5v0.9h-5.7V49.2z"/> <path fill="#FF0000" d="M194.5,41.9h1.1l2.7,7.9h-1.1l-0.7-2.4h-2.9l-0.8,2.4h-1L194.5,41.9z M193.9,46.6h2.4l-0.4-1.2 c-0.3-0.9-0.5-1.7-0.8-2.7h0c-0.3,0.9-0.5,1.8-0.8,2.7L193.9,46.6z"/> <path fill="#FF0000" d="M200.9,41.9h1.9c2.4,0,3.6,1.4,3.6,3.9c0,2.5-1.3,4-3.6,4h-2V41.9z M202.8,49c1.8,0,2.7-1.2,2.7-3.2 c0-2-0.9-3.1-2.7-3.1h-0.9V49H202.8z"/> <path fill="#FF0000" d="M211.3,41.9h1.1l2.7,7.9H214l-0.7-2.4h-2.9l-0.8,2.4h-1L211.3,41.9z M210.7,46.6h2.4l-0.4-1.2 c-0.3-0.9-0.5-1.7-0.8-2.7h0c-0.3,0.9-0.5,1.8-0.8,2.7L210.7,46.6z"/> </g> <g> <path fill="#FF0000" d="M169.6,24h10l-4.2,2.5l-0.9,5.7l7.1-2.5l2.2-5.7h14.9l2.2,5.7l7.1,2.5l-0.9-5.7l-4.2-2.5H213l6.1-13.6 L200.7,0l-1.8,2.2l-7.6,3l-7.6-3L181.9,0l-18.4,10.4L169.6,24z M203,10.1l4.8,3.2l-9.4,3.5l-4.5-2.4L203,10.1z M184.1,16.8 l-9.4-3.5l4.8-3.2l9,4.2L184.1,16.8z"/> <polygon fill="#FF0000" points="184.7,26 197.4,26 199.5,31 191.3,34.9 183.2,31 		"/> </g> <g> <path fill="#FF0000" d="M173.4,57.9h-1.8v-0.6h1.8v-1.9h0.6v1.9h1.8v0.6h-1.8v1.9h-0.6V57.9z"/> <path fill="#FF0000" d="M178.2,60.1l0.4-0.5c0.4,0.4,0.9,0.7,1.8,0.7c0.9,0,1.6-0.6,1.6-1.4c0-0.9-0.6-1.4-1.5-1.4 c-0.5,0-0.8,0.1-1.3,0.4l-0.4-0.3l0.2-3h3.5v0.7h-2.8l-0.2,1.8c0.4-0.2,0.7-0.3,1.2-0.3c1.2,0,2.1,0.6,2.1,2s-1.1,2.1-2.3,2.1 C179.3,60.9,178.7,60.5,178.2,60.1z"/> <path fill="#FF0000" d="M185.2,57.7c0-2.1,0.8-3.2,2.2-3.2c1.4,0,2.2,1.1,2.2,3.2c0,2.1-0.8,3.2-2.2,3.2 C186,60.9,185.2,59.7,185.2,57.7z M188.9,57.7c0-1.8-0.6-2.6-1.5-2.6c-0.9,0-1.5,0.8-1.5,2.6c0,1.8,0.6,2.6,1.5,2.6 C188.3,60.3,188.9,59.4,188.9,57.7z M186.8,57.6c0-0.4,0.3-0.6,0.6-0.6c0.3,0,0.6,0.2,0.6,0.6c0,0.4-0.3,0.7-0.6,0.7 C187.1,58.2,186.8,58,186.8,57.6z"/> <path fill="#FF0000" d="M192.2,56h0.7l0.1,0.6h0c0.4-0.4,1.1-0.7,1.6-0.7c1.3,0,2,0.9,2,2.4c0,1.6-1,2.6-2.2,2.6 c-0.4,0-1-0.2-1.4-0.6h0l0,0.9v1.6h-0.8V56z M195.7,58.3c0-1-0.4-1.7-1.3-1.7c-0.4,0-0.9,0.2-1.4,0.7v2.4c0.4,0.4,0.9,0.6,1.3,0.6 C195.1,60.2,195.7,59.5,195.7,58.3z"/> <path fill="#FF0000" d="M200.1,58.9v-2.2h-1.3v-0.6l1.4,0l0.1-1.5h0.7V56h2.3v0.7h-2.3V59c0,0.8,0.3,1.3,1.2,1.3 c0.4,0,0.8-0.1,1.1-0.2l0.2,0.6c-0.4,0.2-0.9,0.3-1.5,0.3C200.6,60.9,200.1,60.1,200.1,58.9z"/> <path fill="#FF0000" d="M205.6,60.2l0.4-0.5c0.5,0.4,1.2,0.6,2.1,0.6c0.8,0,1.2-0.3,1.2-0.7c0-0.4-0.2-0.6-1.5-0.9 c-1.2-0.3-1.9-0.7-1.9-1.4c0-0.8,0.7-1.3,2-1.3c0.7,0,1.4,0.3,1.9,0.6l-0.4,0.5c-0.4-0.3-1-0.5-1.6-0.5c-0.8,0-1.1,0.3-1.1,0.7 c0,0.4,0.4,0.6,1.4,0.8c1.6,0.3,2,0.7,2,1.5c0,0.8-0.8,1.4-2.1,1.4C207,60.9,206.2,60.6,205.6,60.2z"/> </g> </g> </svg> 