<svg xmlns="http://www.w3.org/2000/svg" x="0px" y="0px" width="543.4px" height="503.8px" viewBox="0 0 543.4 503.8"> <g> <polygon fill="#DBDCDD" points="286.3,0 197.1,173 241.7,236.7 	"/> <polygon fill="#DCDCDC" points="248.1,216.7 0,503.8 353.3,211.7 	"/> <polygon fill="#FCFDFC" points="353.3,211.7 0,503.8 324.1,312.1 	"/> <polygon fill="#416CB3" points="233.1,189.9 163.5,291.8 353.7,92.6 	"/> <polygon fill="#15489C" points="354.2,92.2 353.7,92.6 163.5,291.8 163.1,292.4 163.2,292.4 254.2,228.1 	"/> <polygon fill="#DBDCDD" points="543.4,323.4 355.3,373.5 302.6,316.3 	"/> <polygon fill="#416CB3" points="346.5,334.8 232.1,381 467.3,237.7 	"/> <polygon fill="#15489C" points="467.8,237.3 467.3,237.7 232.2,381.1 231.7,381.4 231.7,381.2 313.9,306 	"/> </g> </svg> 