<svg xmlns="http://www.w3.org/2000/svg" x="0px" y="0px" width="127px" height="82.3px" viewBox="0 0 127 82.3"> <g> <circle fill="#5AFF4D" cx="122" cy="77.3" r="5"/> <polyline fill="none" stroke="#5AFF4D" stroke-miterlimit="10" points="122,78.1 78.5,34.6 0,34.6 	"/> </g> <g> <path fill="#FFFFFF" d="M9,1.6C8.4,3.9,7.5,5.3,6.6,6.5c1.5,1.2,2.8,2.4,4.2,3.8l-0.6,0.6C8.5,9,6.5,7.3,6.1,7 c-0.9,1-2.4,2.7-5,3.9l-0.5-0.6c1.9-0.8,5.6-3.1,7.3-8H1.2V1.6H9z"/> <path fill="#FFFFFF" d="M11.8,7.2c0.5-0.6,2.8-3.5,3-3.8c0.3-0.3,0.6-0.5,1-0.5c0.5,0,1,0.3,1.5,0.8L22.8,9l-0.6,0.7L16.7,4 c-0.2-0.2-0.6-0.4-0.8-0.4c-0.3,0-0.5,0.2-0.6,0.3c-0.4,0.4-1.1,1.4-2.9,3.9L11.8,7.2z M22.6,2.4c0,0.9-0.8,1.7-1.7,1.7 c-1,0-1.7-0.8-1.7-1.7c0-1,0.8-1.7,1.7-1.7S22.6,1.4,22.6,2.4z M19.8,2.4c0,0.6,0.5,1.1,1.1,1.1S22,3,22,2.4c0-0.6-0.5-1.1-1.1-1.1 C20.3,1.3,19.8,1.7,19.8,2.4z"/> <path fill="#FFFFFF" d="M34.5,5.6v0.8H24.2V5.6H34.5z"/> <path fill="#FFFFFF" d="M44.3,1.6c-0.6,2.3-1.5,3.7-2.4,4.9c1.5,1.2,2.8,2.4,4.2,3.8l-0.6,0.6c-1.6-1.8-3.7-3.5-4-3.8 c-0.9,1-2.4,2.7-5,3.9L36,10.3c1.9-0.8,5.6-3.1,7.3-8h-6.8V1.6H44.3z"/> <path fill="#FFFFFF" d="M10,16.2c-0.2,2.1-0.5,4.2-2.1,6.1C6,24.5,3.6,25,2.4,25.2l-0.3-0.7c5.4-1.1,6.8-4.4,7-7.7H0.9v-0.7H10z"/> <path fill="#FFFFFF" d="M19.5,17.8c-0.2,1.5-1.1,3.2-3,3.8l-0.3-0.6c0.7-0.2,2.2-0.8,2.6-2.6h-7v-0.6H19.5z M11.9,24.9 c2.9-1.4,2.9-3.1,2.9-5.5h0.7c0,2.7-0.4,4.6-3.2,6L11.9,24.9z"/> <path fill="#FFFFFF" d="M27.1,25.5h-0.8v-6c-1.1,0.8-2.9,2-5.1,2.7l-0.3-0.7c1.4-0.4,5.5-2.1,8.6-6.2l0.7,0.4 c-0.8,0.9-1.7,2-3.1,3.2V25.5z"/> <path fill="#FFFFFF" d="M32.4,19.7c1.5-0.9,2.5-2,3.3-3.6h5.9c-0.5,5.8-4.5,8.6-8,9.4l-0.3-0.7c1.3-0.3,3.5-1,5.3-3.1 c-0.8-0.7-2.1-1.8-4.1-2.7c-0.5,0.4-0.8,0.7-1.6,1.3L32.4,19.7z M36.1,16.7c-0.5,1-0.8,1.4-1.2,1.8c0.6,0.3,2.5,1.2,4.1,2.6 c0.7-1,1.4-2.2,1.7-4.4H36.1z"/> <path fill="#FFFFFF" d="M54.1,20v0.8H43.7V20H54.1z"/> </g> </svg> 