<svg xmlns="http://www.w3.org/2000/svg" x="0px" y="0px" viewBox="0 0 433.2 96.1"> <g> <path fill="#fff" d="M36.4,48.2c4,1,7.1,3.4,9.3,7.2c2.2,3.8,3.3,8.8,3.3,15V92H38.9V70.8c0.4-4-0.1-7.1-1.4-9.4 c-1.3-2.2-3-3.5-5.1-3.9L8.9,94.1L0,88.7l22.6-34.8c2.6-3.7,4.5-8.3,5.7-13.8c1.2-5.5,1.6-10.2,1.2-14.1H1.9V15h38.8v9.3 C40.7,33.5,39.3,41.4,36.4,48.2z"/> <path fill="#fff" d="M167.3,26h-17.4c-3.2,12.5-7.5,23-12.9,31.6l-9.3-5.4c3.9-6.2,7.3-13.9,10.1-23.1 c2.9-9.1,5.1-18.9,6.6-29.1L155,1.6l-2.6,13.5h26v26.5c0.1,4.8-1.8,10.8-5.8,18.1c-4,7.2-13.6,19.2-28.7,36.1l-8.1-7.1 c12.1-13.5,20.3-23.3,24.7-29.4l-11.1-5.9l4.8-8.1l11.2,5.5c1.5-3,2.2-6.3,2-10V26z"/> <path fill="#fff" d="M251.1,57.1V45.2h70.3v11.9H251.1z"/> <path fill="#fff" d="M427.6,58.6c-7.4-5.2-12.9-8.7-16.5-10.7c-3.6-2-7-2.9-10.3-2.7v46.9H390V1.3h10.7v32.5 c3.6-0.2,8.1,1.2,13.6,4.1c5.4,3,11.8,6.9,18.9,11.9L427.6,58.6z"/> </g> </svg> 