<svg version="1.1" xmlns="http://www.w3.org/2000/svg" xmlns:xlink="http://www.w3.org/1999/xlink" x="0px" y="0px" viewBox="0 0 590.5 84.5" enable-background="new 0 0 590.5 84.5" xml:space="preserve"> <line fill="none" stroke="#222222" stroke-miterlimit="10" x1="185.5" y1="46.3" x2="404.5" y2="46.3"/> <linearGradient id="SVGID_1_" gradientUnits="userSpaceOnUse" x1="47.7837" y1="128.5083" x2="122.0791" y2="-12.3967"> <stop  offset="0" style="stop-color:#222222"/> <stop  offset="1" style="stop-color:#111111"/> </linearGradient> <polygon fill="url(#SVGID_1_)" stroke="#222222" stroke-miterlimit="10" points="0.5,0.5 172.5,0.5 186,16.3 186,84 0.7,84 "/> <line fill="none" stroke="#222222" stroke-miterlimit="10" x1="11.5" y1="69.3" x2="185.5" y2="69.3"/> <polygon fill="#222222" points="123.5,60.8 118.5,66.2 118.5,76.8 167.5,76.8 172.5,72.2 172.5,60.8 "/> <path fill="#999999" d="M22.5,22.4l0.6-0.7c0.6,0.6,1.4,1,2.3,1c1.1,0,1.7-0.5,1.7-1.2c0-0.8-0.6-1.1-1.4-1.4l-1.1-0.5 c-0.8-0.3-1.7-0.9-1.7-2c0-1.2,1.1-2.1,2.6-2.1c1,0,1.8,0.4,2.4,1L27.4,17c-0.5-0.5-1.1-0.7-1.9-0.7c-0.9,0-1.5,0.4-1.5,1.2 c0,0.8,0.7,1,1.4,1.3l1.1,0.5c1,0.4,1.7,0.9,1.7,2.1c0,1.2-1.1,2.2-2.8,2.2C24.3,23.6,23.3,23.1,22.5,22.4z"/> <path fill="#999999" d="M35.6,16.4H33v-0.8h6.2v0.8h-2.6v7h-1V16.4z"/> <path fill="#999999" d="M44.7,15.6h4.9v0.8h-3.9v2.5H49v0.9h-3.3v2.9h4v0.9h-5V15.6z"/> <path fill="#999999" d="M55.4,15.6h2.4c1.7,0,2.9,0.6,2.9,2.3c0,1.7-1.2,2.4-2.9,2.4h-1.4v3.1h-1V15.6z M57.6,19.5 c1.4,0,2-0.5,2-1.6c0-1.1-0.7-1.5-2-1.5h-1.3v3.1H57.6z"/> <path fill="#5AFF4D" d="M66.1,22.6h2.2V17h-1.6v-0.6c0.8-0.1,1.4-0.3,1.9-0.6h0.7v6.8h2v0.8h-5.1V22.6z"/> <g> <path fill="#555555" d="M23.2,53.9h-0.8v-0.4l0.8,0v-0.2c0-0.7,0.4-1.2,1.2-1.2c0.3,0,0.6,0.1,0.8,0.2l-0.1,0.4 c-0.2-0.1-0.4-0.1-0.7-0.1c-0.5,0-0.7,0.3-0.7,0.8v0.3h1.2v0.4h-1.2v2.5h-0.5V53.9z"/> <path fill="#555555" d="M26.2,53.5h0.4l0,0.7h0c0.3-0.5,0.8-0.8,1.3-0.8c0.2,0,0.4,0,0.6,0.1L28.5,54c-0.2-0.1-0.3-0.1-0.5-0.1 c-0.4,0-0.9,0.2-1.2,0.8v1.7h-0.5V53.5z"/> <path fill="#555555" d="M29.4,55c0-0.9,0.7-1.5,1.5-1.5c0.8,0,1.3,0.5,1.3,1.4c0,0.1,0,0.2,0,0.3h-2.3c0.1,0.7,0.5,1,1.1,1 c0.3,0,0.6-0.1,0.9-0.3l0.2,0.3c-0.3,0.2-0.7,0.3-1.1,0.3C30,56.5,29.4,56,29.4,55z M29.9,54.7h1.9c0-0.6-0.4-0.9-0.9-0.9 C30.4,53.8,30,54.2,29.9,54.7z"/> <path fill="#555555" d="M33,55c0-0.9,0.7-1.5,1.5-1.5c0.8,0,1.3,0.5,1.3,1.4c0,0.1,0,0.2,0,0.3h-2.3c0.1,0.7,0.5,1,1.1,1 c0.3,0,0.6-0.1,0.9-0.3l0.2,0.3c-0.3,0.2-0.7,0.3-1.1,0.3C33.6,56.5,33,56,33,55z M33.5,54.7h1.9c0-0.6-0.4-0.9-0.9-0.9 C34,53.8,33.6,54.2,33.5,54.7z"/> <path fill="#555555" d="M40.1,53.5h0.4l0,0.4h0c0.1-0.3,0.3-0.5,0.7-0.5c0.3,0,0.5,0.2,0.6,0.5c0.2-0.3,0.3-0.5,0.7-0.5 c0.4,0,0.6,0.3,0.6,0.9v2.1h-0.5v-2.1c0-0.3-0.1-0.5-0.3-0.5c-0.2,0-0.3,0.1-0.5,0.4v2.1h-0.5v-2.1c0-0.3-0.1-0.5-0.3-0.5 c-0.2,0-0.3,0.1-0.5,0.4v2.1h-0.5V53.5z"/> <path fill="#555555" d="M43.8,55c0-0.9,0.7-1.5,1.5-1.5c0.8,0,1.3,0.5,1.3,1.4c0,0.1,0,0.2,0,0.3h-2.3c0.1,0.7,0.5,1,1.1,1 c0.3,0,0.6-0.1,0.9-0.3l0.2,0.3c-0.3,0.2-0.7,0.3-1.1,0.3C44.4,56.5,43.8,56,43.8,55z M44.3,54.7h1.9c0-0.6-0.4-0.9-0.9-0.9 C44.8,53.8,44.4,54.2,44.3,54.7z"/> <path fill="#555555" d="M47.3,53.5h0.4l0,0.4h0c0.1-0.3,0.3-0.5,0.7-0.5c0.3,0,0.5,0.2,0.6,0.5c0.2-0.3,0.3-0.5,0.7-0.5 c0.4,0,0.6,0.3,0.6,0.9v2.1h-0.5v-2.1c0-0.3-0.1-0.5-0.3-0.5c-0.2,0-0.3,0.1-0.5,0.4v2.1h-0.5v-2.1c0-0.3-0.1-0.5-0.3-0.5 c-0.2,0-0.3,0.1-0.5,0.4v2.1h-0.5V53.5z"/> <path fill="#555555" d="M51.6,56.1L51.6,56.1l-0.1,0.3h-0.4v-4.3h0.5v1.2l0,0.6h0c0.3-0.3,0.6-0.4,1-0.4c0.8,0,1.2,0.6,1.2,1.5 c0,1-0.6,1.6-1.3,1.6C52.2,56.5,51.8,56.4,51.6,56.1z M53.3,54.9c0-0.6-0.2-1.1-0.8-1.1c-0.3,0-0.6,0.1-0.9,0.4v1.5 c0.3,0.2,0.6,0.3,0.8,0.3C52.9,56.1,53.3,55.7,53.3,54.9z"/> <path fill="#555555" d="M54.6,55c0-0.9,0.7-1.5,1.5-1.5c0.8,0,1.3,0.5,1.3,1.4c0,0.1,0,0.2,0,0.3H55c0.1,0.7,0.5,1,1.1,1 c0.3,0,0.6-0.1,0.9-0.3l0.2,0.3c-0.3,0.2-0.7,0.3-1.1,0.3C55.2,56.5,54.6,56,54.6,55z M55.1,54.7h1.9c0-0.6-0.4-0.9-0.9-0.9 C55.6,53.8,55.2,54.2,55.1,54.7z"/> <path fill="#555555" d="M58.6,53.5H59l0,0.7h0c0.3-0.5,0.8-0.8,1.3-0.8c0.2,0,0.4,0,0.6,0.1L60.9,54c-0.2-0.1-0.3-0.1-0.5-0.1 c-0.4,0-0.9,0.2-1.2,0.8v1.7h-0.5V53.5z"/> <path fill="#555555" d="M61.8,56.1l0.2-0.3c0.3,0.2,0.7,0.4,1.3,0.4c0.5,0,0.7-0.2,0.7-0.5c0-0.2-0.1-0.4-0.9-0.5 c-0.8-0.2-1.1-0.4-1.1-0.9c0-0.5,0.4-0.8,1.2-0.8c0.4,0,0.9,0.2,1.2,0.4l-0.2,0.3c-0.3-0.2-0.6-0.3-1-0.3c-0.5,0-0.7,0.2-0.7,0.4 c0,0.3,0.3,0.4,0.8,0.5c1,0.2,1.2,0.5,1.2,0.9c0,0.5-0.5,0.9-1.3,0.9C62.6,56.5,62.1,56.3,61.8,56.1z"/> <path fill="#555555" d="M65.5,52.2H66v1.2l0,0.7h0c0.3-0.3,0.6-0.6,1.1-0.6c0.7,0,1,0.4,1,1.2v1.8h-0.5v-1.7c0-0.6-0.2-0.8-0.7-0.8 c-0.3,0-0.6,0.2-0.9,0.5v2h-0.5V52.2z"/> <path fill="#555555" d="M70.4,53.9h-1.4v-0.4h1.8v2.9h-0.5V53.9z M70.2,52.5c0-0.2,0.2-0.4,0.4-0.4c0.2,0,0.4,0.2,0.4,0.4 c0,0.2-0.2,0.4-0.4,0.4C70.4,52.9,70.2,52.8,70.2,52.5z"/> <path fill="#555555" d="M72.7,53.5h0.4l0,0.4h0c0.3-0.3,0.6-0.4,1-0.4c0.8,0,1.2,0.6,1.2,1.5c0,1-0.6,1.6-1.3,1.6 c-0.3,0-0.6-0.1-0.9-0.4h0l0,0.6v1h-0.5V53.5z M74.9,54.9c0-0.6-0.2-1.1-0.8-1.1c-0.3,0-0.6,0.1-0.9,0.4v1.5 c0.3,0.2,0.6,0.3,0.8,0.3C74.5,56.1,74.9,55.7,74.9,54.9z"/> <path fill="#555555" d="M22.6,60.7H23l0,0.7h0c0.3-0.5,0.8-0.8,1.3-0.8c0.2,0,0.4,0,0.6,0.1l-0.1,0.4c-0.2-0.1-0.3-0.1-0.5-0.1 c-0.4,0-0.9,0.2-1.2,0.8v1.7h-0.5V60.7z"/> <path fill="#555555" d="M25.8,62.2c0-0.9,0.7-1.5,1.5-1.5c0.8,0,1.3,0.5,1.3,1.4c0,0.1,0,0.2,0,0.3h-2.3c0.1,0.7,0.5,1,1.1,1 c0.3,0,0.6-0.1,0.9-0.3l0.2,0.3c-0.3,0.2-0.7,0.3-1.1,0.3C26.4,63.7,25.8,63.2,25.8,62.2z M26.3,61.9h1.9c0-0.6-0.4-0.9-0.9-0.9 C26.8,61,26.4,61.4,26.3,61.9z"/> <path fill="#555555" d="M29.4,64.2c0-0.2,0.2-0.5,0.5-0.6v0c-0.2-0.1-0.3-0.2-0.3-0.5c0-0.2,0.1-0.4,0.3-0.5v0 c-0.2-0.1-0.4-0.4-0.4-0.8c0-0.6,0.5-1,1.1-1c0.2,0,0.3,0,0.4,0.1h1.2v0.4h-0.8c0.1,0.1,0.2,0.4,0.2,0.6c0,0.6-0.5,1-1.1,1 c-0.1,0-0.3,0-0.5-0.1c-0.1,0.1-0.2,0.2-0.2,0.3c0,0.2,0.2,0.3,0.6,0.3h0.7c0.7,0,1.1,0.2,1.1,0.7c0,0.5-0.6,1-1.6,1 C29.9,65,29.4,64.7,29.4,64.2z M31.9,64c0-0.3-0.2-0.4-0.7-0.4h-0.6c-0.2,0-0.3,0-0.4,0c-0.3,0.2-0.4,0.3-0.4,0.5 c0,0.3,0.3,0.5,1,0.5C31.4,64.6,31.9,64.3,31.9,64z M31.4,61.7c0-0.4-0.3-0.7-0.7-0.7c-0.4,0-0.7,0.3-0.7,0.7 c0,0.4,0.3,0.7,0.7,0.7C31.1,62.4,31.4,62.1,31.4,61.7z"/> <path fill="#555555" d="M34.4,61.1h-1.4v-0.4h1.8v2.9h-0.5V61.1z M34.2,59.7c0-0.2,0.2-0.4,0.4-0.4c0.2,0,0.4,0.2,0.4,0.4 c0,0.2-0.2,0.4-0.4,0.4C34.4,60.1,34.2,60,34.2,59.7z"/> <path fill="#555555" d="M36.6,63.3l0.2-0.3c0.3,0.2,0.7,0.4,1.3,0.4c0.5,0,0.7-0.2,0.7-0.5c0-0.2-0.1-0.4-0.9-0.5 c-0.8-0.2-1.1-0.4-1.1-0.9c0-0.5,0.4-0.8,1.2-0.8c0.4,0,0.9,0.2,1.2,0.4l-0.2,0.3c-0.3-0.2-0.6-0.3-1-0.3c-0.5,0-0.7,0.2-0.7,0.4 c0,0.3,0.3,0.4,0.8,0.5c1,0.2,1.2,0.5,1.2,0.9c0,0.5-0.5,0.9-1.3,0.9C37.4,63.7,36.9,63.5,36.6,63.3z"/> <path fill="#555555" d="M41,62.5v-1.4h-0.8v-0.4l0.8,0l0.1-0.9h0.4v0.9h1.4v0.4h-1.4v1.4c0,0.5,0.2,0.8,0.7,0.8 c0.3,0,0.5-0.1,0.7-0.1l0.1,0.4c-0.3,0.1-0.5,0.2-0.9,0.2C41.3,63.7,41,63.2,41,62.5z"/> <path fill="#555555" d="M44.2,60.7h0.4l0,0.7h0c0.3-0.5,0.8-0.8,1.3-0.8c0.2,0,0.4,0,0.6,0.1l-0.1,0.4c-0.2-0.1-0.3-0.1-0.5-0.1 c-0.4,0-0.9,0.2-1.2,0.8v1.7h-0.5V60.7z"/> <path fill="#555555" d="M47.4,62.9c0-0.7,0.6-1,2.1-1.1c0-0.4-0.2-0.7-0.8-0.7c-0.4,0-0.7,0.2-1,0.3l-0.2-0.3 c0.3-0.2,0.8-0.4,1.3-0.4c0.8,0,1.2,0.5,1.2,1.2v1.8h-0.4l0-0.4h0c-0.3,0.3-0.7,0.5-1.2,0.5C47.9,63.7,47.4,63.4,47.4,62.9z M49.5,62.9v-0.8c-1.2,0.1-1.6,0.3-1.6,0.7c0,0.3,0.3,0.5,0.6,0.5C48.9,63.3,49.2,63.2,49.5,62.9z"/> <path fill="#555555" d="M51.8,62.5v-1.4H51v-0.4l0.8,0l0.1-0.9h0.4v0.9h1.4v0.4h-1.4v1.4c0,0.5,0.2,0.8,0.7,0.8 c0.3,0,0.5-0.1,0.7-0.1l0.1,0.4c-0.3,0.1-0.5,0.2-0.9,0.2C52.1,63.7,51.8,63.2,51.8,62.5z"/> <path fill="#555555" d="M56,61.1h-1.4v-0.4h1.8v2.9H56V61.1z M55.8,59.7c0-0.2,0.2-0.4,0.4-0.4c0.2,0,0.4,0.2,0.4,0.4 c0,0.2-0.2,0.4-0.4,0.4C56,60.1,55.8,60,55.8,59.7z"/> <path fill="#555555" d="M58.1,62.2c0-1,0.7-1.5,1.4-1.5s1.4,0.6,1.4,1.5c0,1-0.7,1.5-1.4,1.5S58.1,63.2,58.1,62.2z M60.5,62.2 c0-0.7-0.4-1.1-0.9-1.1c-0.6,0-0.9,0.5-0.9,1.1c0,0.7,0.4,1.1,0.9,1.1C60.1,63.3,60.5,62.9,60.5,62.2z"/> <path fill="#555555" d="M61.9,60.7h0.4l0,0.5h0c0.3-0.3,0.6-0.6,1.1-0.6c0.7,0,1,0.4,1,1.2v1.8H64v-1.7c0-0.6-0.2-0.8-0.7-0.8 c-0.3,0-0.6,0.2-0.9,0.5v2h-0.5V60.7z"/> </g> <g> <path fill="#999999" d="M37.4,32.2v0.9h-1.5v3.3h2.3v0.9h-2.3V41h1.8v0.8H22.1V41h2.2v-3.7h-2.7v-0.9h2.7v-2.6 c-0.8,0.8-1.6,1.2-2,1.5l-0.7-0.7c1.4-0.8,3-2,4.2-4.1l1,0.2c-0.3,0.5-0.5,0.9-1,1.5H37.4z M21.7,46.5c1.3-1.3,2-2.8,2.5-3.9l1,0.3 c-0.6,1.4-1.4,3-2.5,4.2L21.7,46.5z M27.8,33.1h-2.5v3.3h2.5V33.1z M27.8,37.3h-2.5V41h2.5V37.3z M27.5,46.9 c0.1-0.4,0.1-0.8,0.1-1.6c0-1.1-0.1-2-0.2-2.6h1c0.1,0.5,0.3,2.3,0.2,4.1H27.5z M31.3,33.1h-2.5v3.3h2.5V33.1z M31.3,37.3h-2.5V41 h2.5V37.3z M31.9,46.9c-0.3-1.9-0.7-3.1-1-4.1l1-0.1c0.7,1.9,1,2.9,1.2,4.1L31.9,46.9z M34.9,33.1h-2.7v3.3h2.7V33.1z M34.9,37.3 h-2.7V41h2.7V37.3z M37,47.1c-0.8-1.8-1.6-3.1-2.7-4.3l0.9-0.4c1.4,1.5,2.4,3.4,2.8,4.1L37,47.1z"/> <path fill="#999999" d="M47.9,42c-0.8-1-1.3-1.6-1.9-2.6v7.8H45v-7.9c-0.5,1.2-1.4,2.7-3,4.5l-0.5-0.9c2.2-2,3.2-4.7,3.5-5.5h-3.5 v-0.9H45v-5.9H46v5.9h3.1v0.9H46v0.3c0.9,1.6,1.8,2.7,2.5,3.4L47.9,42z M42.9,35.7c-0.3-1.6-0.6-2.6-1.1-3.7l0.8-0.3 c0.6,1.3,0.9,2.3,1.2,3.7L42.9,35.7z M46.9,35.3c0.6-1.2,1-2.2,1.3-3.6l0.9,0.2c-0.3,1.4-0.7,2.5-1.4,3.8L46.9,35.3z M57.9,40.4 l0.1,0.9l-1.9,0.4v5.5h-1v-5.3l-6.5,1.3l-0.2-0.8l6.7-1.4V30.6h1v10.1L57.9,40.4z M52.9,39.6c-1.3-1.3-2.3-2.1-3.2-2.7l0.5-0.7 c1.4,0.8,2.3,1.6,3.4,2.6L52.9,39.6z M53.4,34.7c-1-1-1.9-1.8-3.1-2.7l0.6-0.7c0.7,0.4,1.7,1.1,3.2,2.6L53.4,34.7z"/> <path fill="#999999" d="M70,30.6c2.8,3.8,6.3,5.4,8.2,6.1l-0.6,1c-2.5-1.2-5.9-3.1-8.1-6.1c-2.2,2.8-4.4,4.3-8.1,5.9l-0.5-1 c2.8-1,5.7-2.7,8-5.9H70z M72.3,41.2c2.5,2.2,3.9,3.9,4.9,5.4l-0.9,0.6c-0.2-0.4-0.4-0.7-1-1.5c-1,0-5.6,0.4-6.6,0.5 c-1.1,0.1-6,0.3-6.9,0.3l-0.1-1c0.2,0,2.1-0.1,2.4-0.1c0.8-1.2,1.8-2.9,2.8-5.1h-5.1v-0.9h15.7v0.9H68c-0.8,1.7-2,3.8-2.8,5 c4.7-0.2,6.3-0.3,9.4-0.6c-0.5-0.5-1.5-1.7-3-3L72.3,41.2z M64.8,35.9h9.5v0.9h-9.5V35.9z"/> <path fill="#999999" d="M86.8,45.2c-1.4,1-3.5,1.6-5.1,2l-0.5-1c1.3-0.2,3.1-0.6,4.9-1.7L86.8,45.2z M96.4,36.5v7.6h-14v-7.6H96.4z M95.8,31.3v3.9H83v-3.9H95.8z M83.4,37.3v1.4h12v-1.4H83.4z M83.4,39.5V41h12v-1.4H83.4z M83.4,41.8v1.5h12v-1.5H83.4z M84,32.2 v2.2h10.8v-2.2H84z M92.8,44.4c2.2,1.3,3.8,1.6,5,1.8l-0.6,1c-1.6-0.3-3.2-0.9-5.1-2.1L92.8,44.4z"/> <path fill="#999999" d="M116.7,32.5c-0.8,1-1.8,2-2.6,2.6c1.5,0.9,2.7,1.4,3.5,1.7l-0.5,1c-0.7-0.3-2-0.8-3.8-2.1v0.9h-8.1v-0.9h8 c-1.5-1.1-2.9-2.3-4-3.8c-1.8,2.4-5,4.7-7.9,5.9l-0.5-1c0.9-0.3,2.1-0.8,3.7-1.8c-0.2-0.2-0.8-0.8-1.9-1.8l0.8-0.5 c0.6,0.5,1.5,1.3,1.9,1.8c1.1-0.7,2.2-1.8,2.9-2.7h-5.3v-0.8h6.6c0.3,0.4,0.7,0.9,1.7,2c0.6-0.5,1.5-1.5,2.1-2.3l0.9,0.4 c-0.6,0.8-1.7,2-2.3,2.5c0.7,0.6,1.1,0.9,1.4,1.1c0.6-0.5,1.8-1.7,2.5-2.6L116.7,32.5z M115.3,42.7h-1.9c-0.1,0.8-0.7,2.5-0.9,3.2 h4.5v0.9h-15.5v-0.9h4.6c-0.1-0.5-0.2-1-0.9-3.2h-1.9v-4.4h12.1V42.7z M114.4,39.2h-10.2v2.6h10.2V39.2z M111.4,45.9 c0.2-0.6,0.8-2.3,0.9-3.2h-6.2c0.3,0.8,0.8,2.7,0.9,3.2H111.4z"/> <path fill="#999999" d="M120.6,34.6c1.4-0.8,2.7-2.5,3.5-4h1.1c0.6,1.1,1.9,2.5,2.8,3.2l-0.6,0.8c-1.2-1-2.3-2.2-2.7-3.1 c-0.7,1.3-2,3.2-3.5,3.9L120.6,34.6z M127.3,45c-2.1,0.8-5.6,1.5-6.4,1.6l-0.2-0.9c1-0.2,2-0.3,3.2-0.6v-5.6h-3.1v-0.8h3.1v-2.3 h-2.2v-0.8h5.2v0.8h-2.1v2.3h2.7v0.8h-2.7v5.3c1.3-0.3,1.9-0.5,2.5-0.7V45z M121.8,44.3c0-0.5-0.1-1.9-0.4-3.5l0.9-0.1 c0.2,1,0.5,2.5,0.5,3.5L121.8,44.3z M125.9,43.5c0.3-1,0.5-2,0.7-3.1l1,0.2c-0.2,1-0.5,2.3-0.8,3.1L125.9,43.5z M126.8,45.7 c1.2-0.5,3.1-1.8,4-2.7l0.3,0.8c-1.1,1-2.7,2-3.8,2.7L126.8,45.7z M135.8,37h1.6v0.9h-4.7c0.3,1.7,0.9,5,4.7,7.7l-0.7,0.8 c-2.1-1.6-3.4-3.6-4-5.5v4.9c0,1.2-0.4,1.4-1.3,1.4h-2l-0.1-1.1l1.8,0c0.6,0,0.6-0.2,0.6-0.6v-7.7h-4.1V37h7.2v-2h-6v-0.9h6v-2 h-6.3v-0.9h7.3V37z M129.9,42c-0.5-1-1.2-2-1.7-2.6l0.7-0.5c0.6,0.7,1.3,1.7,1.8,2.6L129.9,42z M134.1,41.1 c0.4-0.3,1.1-0.9,2.1-2.3l0.7,0.6c-0.5,0.7-1.5,1.8-2.1,2.3L134.1,41.1z"/> </g> <polygon fill="#555555" points="0.5,83.8 14.5,70.2 14.5,15 0.5,0.7 "/> <polyline fill="none" stroke="#222222" stroke-miterlimit="10" points="82.5,19.3 172.5,19.3 186,32.8 "/> <linearGradient id="SVGID_2_" gradientUnits="userSpaceOnUse" x1="249.7837" y1="128.5083" x2="324.0791" y2="-12.3967"> <stop  offset="0" style="stop-color:#222222"/> <stop  offset="1" style="stop-color:#111111"/> </linearGradient> <polygon fill="url(#SVGID_2_)" stroke="#222222" stroke-miterlimit="10" points="202.5,0.5 374.5,0.5 388,16.3 388,84 202.7,84 "/> <line fill="none" stroke="#222222" stroke-miterlimit="10" x1="213.5" y1="69.3" x2="387.5" y2="69.3"/> <polygon fill="#222222" points="325.5,60.8 320.5,66.2 320.5,76.8 369.5,76.8 374.5,72.2 374.5,60.8 "/> <path fill="#999999" d="M223.5,22.4l0.6-0.7c0.6,0.6,1.4,1,2.3,1c1.1,0,1.7-0.5,1.7-1.2c0-0.8-0.6-1.1-1.4-1.4l-1.1-0.5 c-0.8-0.3-1.7-0.9-1.7-2c0-1.2,1.1-2.1,2.6-2.1c1,0,1.8,0.4,2.4,1l-0.5,0.6c-0.5-0.5-1.1-0.7-1.9-0.7c-0.9,0-1.5,0.4-1.5,1.2 c0,0.8,0.7,1,1.4,1.3l1.1,0.5c1,0.4,1.7,0.9,1.7,2.1c0,1.2-1.1,2.2-2.8,2.2C225.3,23.6,224.3,23.1,223.5,22.4z"/> <path fill="#999999" d="M236.6,16.4H234v-0.8h6.2v0.8h-2.6v7h-1V16.4z"/> <path fill="#999999" d="M245.7,15.6h4.9v0.8h-3.9v2.5h3.3v0.9h-3.3v2.9h4v0.9h-5V15.6z"/> <path fill="#999999" d="M256.4,15.6h2.4c1.7,0,2.9,0.6,2.9,2.3c0,1.7-1.2,2.4-2.9,2.4h-1.4v3.1h-1V15.6z M258.6,19.5 c1.4,0,2-0.5,2-1.6c0-1.1-0.7-1.5-2-1.5h-1.3v3.1H258.6z"/> <path fill="#5AFF4D" d="M266.8,22.9c2.6-2.3,4-3.6,4-4.9c0-0.9-0.5-1.5-1.7-1.5c-0.7,0-1.3,0.4-1.8,0.9l-0.6-0.6 c0.7-0.7,1.4-1.2,2.5-1.2c1.5,0,2.5,0.9,2.5,2.3c0,1.4-1.4,2.9-3.5,4.8c0.5,0,1-0.1,1.4-0.1h2.5v0.9h-5.4V22.9z"/> <g> <path fill="#555555" d="M225.8,55.6c0,0.3,0,0.6,0,0.9h-0.5l0-0.5h0c-0.2,0.3-0.5,0.6-1,0.6c-0.5,0-1.1-0.3-1.1-1.4v-1.9h0.5V55 c0,0.6,0.2,1.1,0.7,1.1c0.4,0,0.9-0.3,0.9-0.9v-2h0.5V55.6z"/> <path fill="#555555" d="M228.3,53.7c-0.1-0.1-0.3-0.2-0.6-0.2c-0.4,0-0.6,0.2-0.6,0.5c0,0.3,0.2,0.4,0.6,0.6c0.5,0.2,0.8,0.5,0.8,1 c0,0.6-0.4,1-1.2,1c-0.3,0-0.6-0.1-0.9-0.2l0.1-0.4c0.2,0.1,0.5,0.2,0.7,0.2c0.4,0,0.7-0.2,0.7-0.5c0-0.3-0.2-0.5-0.6-0.6 c-0.6-0.2-0.8-0.5-0.8-0.9c0-0.5,0.4-0.9,1.1-0.9c0.3,0,0.6,0.1,0.8,0.2L228.3,53.7z"/> <path fill="#555555" d="M231.6,56.3c-0.2,0.1-0.5,0.2-1,0.2c-1,0-1.5-0.7-1.5-1.6c0-1,0.6-1.8,1.5-1.8c1,0,1.3,0.9,1.3,1.5 c0,0.1,0,0.2,0,0.3h-2.2c0,0.9,0.5,1.2,1.1,1.2c0.4,0,0.7-0.1,0.9-0.2L231.6,56.3z M231.3,54.5c0-0.4-0.2-1-0.8-1 c-0.6,0-0.9,0.6-0.9,1H231.3z"/> <path fill="#555555" d="M234.1,53.6c-0.1,0-0.1,0-0.2,0c-0.5,0-0.8,0.5-0.8,1.1v1.8h-0.5v-2.3c0-0.3,0-0.7,0-1h0.4l0,0.6h0 c0.1-0.4,0.5-0.7,0.9-0.7c0.1,0,0.1,0,0.1,0V53.6z"/> <path fill="#555555" d="M236.5,56.4H236v-4.8h0.5V56.4z"/> <path fill="#555555" d="M240.3,54.8c0,1.2-0.8,1.7-1.5,1.7c-0.8,0-1.5-0.6-1.5-1.7c0-1.1,0.7-1.7,1.5-1.7 C239.7,53.1,240.3,53.8,240.3,54.8z M238.8,53.5c-0.7,0-1,0.7-1,1.3c0,0.7,0.4,1.3,1,1.3c0.6,0,1-0.6,1-1.3 C239.8,54.2,239.5,53.5,238.8,53.5z"/> <path fill="#555555" d="M243.7,53.2c0,0.2,0,0.5,0,0.9V56c0,0.6,0,1.9-1.6,1.9c-0.4,0-0.8-0.1-1-0.3l0.1-0.4 c0.2,0.1,0.5,0.2,0.9,0.2c0.6,0,1-0.3,1-1.2v-0.4h0c-0.2,0.3-0.5,0.6-1,0.6c-0.8,0-1.3-0.7-1.3-1.6c0-1.1,0.7-1.7,1.4-1.7 c0.6,0,0.9,0.3,1,0.6h0l0-0.5H243.7z M243.2,54.4c0-0.6-0.4-0.9-0.9-0.9c-0.6,0-1,0.5-1,1.3c0,0.7,0.3,1.2,1,1.2 c0.4,0,0.9-0.3,0.9-1V54.4z"/> <path fill="#555555" d="M244.9,52.6c-0.2,0-0.3-0.2-0.3-0.3c0-0.2,0.1-0.3,0.3-0.3c0.2,0,0.3,0.1,0.3,0.3 C245.2,52.5,245.1,52.6,244.9,52.6z M245.2,56.4h-0.5v-3.3h0.5V56.4z"/> <path fill="#555555" d="M248.8,56.4h-0.5v-1.9c0-0.5-0.2-1-0.8-1c-0.4,0-0.9,0.4-0.9,0.9v2h-0.5V54c0-0.3,0-0.6,0-0.8h0.4l0,0.5h0 c0.2-0.3,0.5-0.6,1-0.6c0.4,0,1.1,0.2,1.1,1.4V56.4z"/> </g> <g> <path fill="#999999" d="M239.4,43.7v1.1h-15.2v-1.1h9.3c1-3.4,1.4-8.1,1.6-9.5h-8.6v-1.1h9.8c-0.2,2.4-0.6,6.4-1.6,10.6H239.4z"/> <path fill="#999999" d="M259.3,38.3v1.2h-15.5v-1.2H259.3z"/> <path fill="#999999" d="M267.9,41h-1.1v-5h-3.1v-1h3.1v-3.7h1.1V35h6.6v-3.8h1.1V35h3.5v1h-3.5v2.8c0,2,0,6.9-7.8,7.7l-0.4-1.1 c2.3-0.1,4.4-0.9,5.8-2.2c0.8-0.8,1.4-2.1,1.4-4.5V36h-6.6V41z M277.2,29.9c0.4,1.2,0.8,2.5,0.9,3.8L277,34 c-0.2-1.6-0.4-2.6-0.8-3.8L277.2,29.9z M279.7,29.6c0.5,1.4,0.7,2.5,0.9,3.7l-1.1,0.3c-0.2-1.6-0.4-2.5-0.8-3.8L279.7,29.6z"/> <path fill="#999999" d="M299,38.3v1.2h-15.5v-1.2H299z"/> <path fill="#999999" d="M317.1,32.8v12.6h-13V32.8H317.1z M316,33.8h-10.8v10.6H316V33.8z"/> <path fill="#999999" d="M322.7,45.5c5.5-1.2,9.8-4.4,11.1-11.8H327c-1.2,2-2.6,3.5-4.7,5l-0.7-0.8c1.1-0.8,3.2-2.4,4.6-5.1h7.5 l1.1,1.3c-1.7,10-9,11.9-11.7,12.6L322.7,45.5z M334.5,30.2c0.7,0.9,1.4,1.9,2.1,3.3l-0.9,0.6c-0.6-1.3-1.2-2.2-2-3.3L334.5,30.2z M336.9,29.5c1,1.3,1.7,2.5,2.1,3.2l-0.9,0.6c-0.7-1.4-1.2-2.3-2-3.3L336.9,29.5z"/> <path fill="#999999" d="M350.7,46.5h-1.2v-9c-1.7,1.2-4.3,2.9-7.7,4.1l-0.5-1.1c2.2-0.6,8.3-3.2,13-9.3l1.1,0.6 c-1.2,1.4-2.5,2.9-4.7,4.8V46.5z"/> <path fill="#999999" d="M366.2,36.1c-1.6-1.1-3.9-2.1-5.5-2.5l0.6-1c1.8,0.5,4,1.5,5.6,2.5L366.2,36.1z M361.1,44.7 c1.2,0,4.9-0.2,8.3-3c3.3-2.8,4.5-6.5,5-8l0.9,0.7c-0.6,1.8-2,5.5-5.5,8.4c-2.4,1.9-5.4,3.1-8.5,3.2L361.1,44.7z"/> </g> <polygon fill="#555555" points="202.5,83.8 216.5,70.2 216.5,15 202.5,0.7 "/> <polyline fill="none" stroke="#222222" stroke-miterlimit="10" points="284.5,19.3 374.5,19.3 388,32.8 "/> <linearGradient id="SVGID_3_" gradientUnits="userSpaceOnUse" x1="451.7837" y1="128.5083" x2="526.0791" y2="-12.3967"> <stop  offset="0" style="stop-color:#222222"/> <stop  offset="1" style="stop-color:#111111"/> </linearGradient> <polygon fill="url(#SVGID_3_)" stroke="#222222" stroke-miterlimit="10" points="404.5,0.5 576.5,0.5 590,16.3 590,84 404.7,84 "/> <line fill="none" stroke="#222222" stroke-miterlimit="10" x1="415.5" y1="69.3" x2="589.5" y2="69.3"/> <polygon fill="#222222" points="527.5,60.8 522.5,66.2 522.5,76.8 571.5,76.8 576.5,72.2 576.5,60.8 "/> <path fill="#999999" d="M425.5,22.4l0.6-0.7c0.6,0.6,1.4,1,2.3,1c1.1,0,1.7-0.5,1.7-1.2c0-0.8-0.6-1.1-1.4-1.4l-1.1-0.5 c-0.8-0.3-1.7-0.9-1.7-2c0-1.2,1.1-2.1,2.6-2.1c1,0,1.8,0.4,2.4,1l-0.5,0.6c-0.5-0.5-1.1-0.7-1.9-0.7c-0.9,0-1.5,0.4-1.5,1.2 c0,0.8,0.7,1,1.4,1.3l1.1,0.5c1,0.4,1.7,0.9,1.7,2.1c0,1.2-1.1,2.2-2.8,2.2C427.3,23.6,426.3,23.1,425.5,22.4z"/> <path fill="#999999" d="M438.6,16.4H436v-0.8h6.2v0.8h-2.6v7h-1V16.4z"/> <path fill="#999999" d="M447.7,15.6h4.9v0.8h-3.9v2.5h3.3v0.9h-3.3v2.9h4v0.9h-5V15.6z"/> <path fill="#999999" d="M458.4,15.6h2.4c1.7,0,2.9,0.6,2.9,2.3c0,1.7-1.2,2.4-2.9,2.4h-1.4v3.1h-1V15.6z M460.6,19.5 c1.4,0,2-0.5,2-1.6c0-1.1-0.7-1.5-2-1.5h-1.3v3.1H460.6z"/> <path fill="#5AFF4D" d="M468.6,22.5l0.5-0.6c0.5,0.5,1.2,0.9,2.2,0.9c1,0,1.8-0.6,1.8-1.4c0-0.9-0.8-1.5-2.8-1.5v-0.8 c1.8,0,2.5-0.6,2.5-1.4c0-0.7-0.6-1.2-1.6-1.2c-0.7,0-1.4,0.3-1.9,0.8l-0.5-0.6c0.6-0.6,1.5-1,2.4-1c1.4,0,2.5,0.7,2.5,1.9 c0,0.9-0.7,1.5-1.6,1.8v0c1,0.2,1.9,0.9,1.9,1.9c0,1.4-1.2,2.2-2.8,2.2C470.1,23.6,469.2,23.1,468.6,22.5z"/> <g> <path fill="#555555" d="M425.2,56.1l0.2-0.3c0.3,0.2,0.7,0.4,1.3,0.4c0.5,0,0.7-0.2,0.7-0.5c0-0.2-0.1-0.4-0.9-0.5 c-0.8-0.2-1.1-0.4-1.1-0.9c0-0.5,0.4-0.8,1.2-0.8c0.4,0,0.9,0.2,1.2,0.4l-0.2,0.3c-0.3-0.2-0.6-0.3-1-0.3c-0.5,0-0.7,0.2-0.7,0.4 c0,0.3,0.3,0.4,0.8,0.5c1,0.2,1.2,0.5,1.2,0.9c0,0.5-0.5,0.9-1.3,0.9C426,56.5,425.5,56.3,425.2,56.1z"/> <path fill="#555555" d="M429.6,55.3v-1.4h-0.8v-0.4l0.8,0l0.1-0.9h0.4v0.9h1.4v0.4h-1.4v1.4c0,0.5,0.2,0.8,0.7,0.8 c0.3,0,0.5-0.1,0.7-0.1l0.1,0.4c-0.3,0.1-0.5,0.2-0.9,0.2C429.9,56.5,429.6,56,429.6,55.3z"/> <path fill="#555555" d="M432.4,55.7c0-0.7,0.6-1,2.1-1.1c0-0.4-0.2-0.7-0.8-0.7c-0.4,0-0.7,0.2-1,0.3l-0.2-0.3 c0.3-0.2,0.8-0.4,1.3-0.4c0.8,0,1.2,0.5,1.2,1.2v1.8h-0.4l0-0.4h0c-0.3,0.3-0.7,0.5-1.2,0.5C432.9,56.5,432.4,56.2,432.4,55.7z M434.5,55.7v-0.8c-1.2,0.1-1.6,0.3-1.6,0.7c0,0.3,0.3,0.5,0.6,0.5C433.9,56.1,434.2,56,434.5,55.7z"/> <path fill="#555555" d="M436.4,53.5h0.4l0,0.7h0c0.3-0.5,0.8-0.8,1.3-0.8c0.2,0,0.4,0,0.6,0.1l-0.1,0.4c-0.2-0.1-0.3-0.1-0.5-0.1 c-0.4,0-0.9,0.2-1.2,0.8v1.7h-0.5V53.5z"/> <path fill="#555555" d="M440.4,55.3v-1.4h-0.8v-0.4l0.8,0l0.1-0.9h0.4v0.9h1.4v0.4h-1.4v1.4c0,0.5,0.2,0.8,0.7,0.8 c0.3,0,0.5-0.1,0.7-0.1l0.1,0.4c-0.3,0.1-0.5,0.2-0.9,0.2C440.7,56.5,440.4,56,440.4,55.3z"/> <path fill="#555555" d="M447.6,55.3v-1.4h-0.8v-0.4l0.8,0l0.1-0.9h0.4v0.9h1.4v0.4h-1.4v1.4c0,0.5,0.2,0.8,0.7,0.8 c0.3,0,0.5-0.1,0.7-0.1l0.1,0.4c-0.3,0.1-0.5,0.2-0.9,0.2C447.9,56.5,447.6,56,447.6,55.3z"/> <path fill="#555555" d="M450.5,52.2h0.5v1.2l0,0.7h0c0.3-0.3,0.6-0.6,1.1-0.6c0.7,0,1,0.4,1,1.2v1.8h-0.5v-1.7 c0-0.6-0.2-0.8-0.7-0.8c-0.3,0-0.6,0.2-0.9,0.5v2h-0.5V52.2z"/> <path fill="#555555" d="M454,55c0-0.9,0.7-1.5,1.5-1.5c0.8,0,1.3,0.5,1.3,1.4c0,0.1,0,0.2,0,0.3h-2.3c0.1,0.7,0.5,1,1.1,1 c0.3,0,0.6-0.1,0.9-0.3l0.2,0.3c-0.3,0.2-0.7,0.3-1.1,0.3C454.6,56.5,454,56,454,55z M454.5,54.7h1.9c0-0.6-0.4-0.9-0.9-0.9 C455,53.8,454.6,54.2,454.5,54.7z"/> <path fill="#555555" d="M461.2,57c0-0.2,0.2-0.5,0.5-0.6v0c-0.2-0.1-0.3-0.2-0.3-0.5c0-0.2,0.1-0.4,0.3-0.5v0 c-0.2-0.1-0.4-0.4-0.4-0.8c0-0.6,0.5-1,1.1-1c0.2,0,0.3,0,0.4,0.1h1.2v0.4h-0.8c0.1,0.1,0.2,0.4,0.2,0.6c0,0.6-0.5,1-1.1,1 c-0.2,0-0.3,0-0.5-0.1c-0.1,0.1-0.2,0.2-0.2,0.3c0,0.2,0.2,0.3,0.6,0.3h0.7c0.8,0,1.1,0.2,1.1,0.7c0,0.5-0.6,1-1.6,1 C461.7,57.8,461.2,57.5,461.2,57z M463.7,56.8c0-0.3-0.2-0.4-0.7-0.4h-0.6c-0.2,0-0.3,0-0.4,0c-0.3,0.2-0.4,0.3-0.4,0.5 c0,0.3,0.3,0.5,1,0.5C463.2,57.4,463.7,57.1,463.7,56.8z M463.2,54.5c0-0.4-0.3-0.7-0.7-0.7c-0.4,0-0.7,0.3-0.7,0.7 c0,0.4,0.3,0.7,0.7,0.7C462.9,55.2,463.2,54.9,463.2,54.5z"/> <path fill="#555555" d="M464.8,55.7c0-0.7,0.6-1,2.1-1.1c0-0.4-0.2-0.7-0.8-0.7c-0.4,0-0.8,0.2-1,0.3l-0.2-0.3 c0.3-0.2,0.8-0.4,1.3-0.4c0.8,0,1.2,0.5,1.2,1.2v1.8H467l0-0.4h0c-0.3,0.3-0.7,0.5-1.2,0.5C465.3,56.5,464.8,56.2,464.8,55.7z M466.9,55.7v-0.8c-1.2,0.1-1.6,0.3-1.6,0.7c0,0.3,0.3,0.5,0.6,0.5C466.3,56.1,466.6,56,466.9,55.7z"/> <path fill="#555555" d="M468.3,53.5h0.4l0,0.4h0c0.1-0.3,0.3-0.5,0.7-0.5c0.3,0,0.5,0.2,0.6,0.5c0.2-0.3,0.3-0.5,0.7-0.5 c0.4,0,0.6,0.3,0.6,0.9v2.1h-0.5v-2.1c0-0.3-0.1-0.5-0.3-0.5c-0.2,0-0.3,0.1-0.5,0.4v2.1h-0.5v-2.1c0-0.3-0.1-0.5-0.3-0.5 c-0.2,0-0.3,0.1-0.5,0.4v2.1h-0.5V53.5z"/> <path fill="#555555" d="M472,55c0-0.9,0.7-1.5,1.5-1.5c0.8,0,1.3,0.5,1.3,1.4c0,0.1,0,0.2,0,0.3h-2.3c0.1,0.7,0.5,1,1.1,1 c0.3,0,0.6-0.1,0.9-0.3l0.2,0.3c-0.3,0.2-0.7,0.3-1.1,0.3C472.6,56.5,472,56,472,55z M472.5,54.7h1.9c0-0.6-0.4-0.9-0.9-0.9 C473,53.8,472.6,54.2,472.5,54.7z"/> </g> <g> <path fill="#999999" d="M426.9,45.5c4.8-1,7.2-3.2,7.7-9.6h-5.6c-0.6,1.2-1.4,2.7-3.3,4.1l-0.8-0.8c1.6-1.2,3.5-3.2,4.3-7.8 l1.2,0.1c-0.4,1.6-0.6,2.2-1,3.4h10.8v1h-4.6c-0.5,5.6-2.2,9.5-8.5,10.7L426.9,45.5z M437.3,30c0.7,1.4,1.1,2.6,1.4,3.6l-1.1,0.4 c-0.4-1.6-0.7-2.5-1.2-3.6L437.3,30z M440,29.8c0.7,1.4,1.1,2.5,1.4,3.6l-1.1,0.4c-0.4-1.5-0.7-2.5-1.2-3.6L440,29.8z"/> <path fill="#999999" d="M460.1,38.3v1.2h-15.5v-1.2H460.1z"/> <path fill="#999999" d="M464.2,44.5c0.2,0,1.3,0,1.6,0c1.8-4.2,3.1-8.5,4.2-13l1.2,0.2c-1.5,5.8-2.7,8.6-4.3,12.7 c2.2-0.1,5.4-0.2,10.2-0.7c-1.3-2.6-2.3-4-3.4-5.4l0.9-0.5c2.2,2.9,3.5,5.1,4.7,8l-1.1,0.5c-0.2-0.6-0.4-1-0.7-1.7 c-6.3,0.9-11.5,1-13.2,1.1L464.2,44.5z"/> <path fill="#999999" d="M495.5,32.3c-0.9,3.4-2.3,5.6-3.6,7.4c2.2,1.8,4.3,3.6,6.3,5.6l-0.9,0.8c-2.5-2.7-5.5-5.2-6.1-5.7 c-1.3,1.5-3.6,4-7.5,5.8l-0.7-0.9c2.9-1.2,8.4-4.6,11-12.1h-10.2v-1H495.5z"/> <path fill="#999999" d="M502.1,37.8c2.2-1.4,3.7-3,4.9-5.5h8.9c-0.7,8.7-6.7,12.9-12,14.1l-0.5-1c2-0.5,5.2-1.5,8-4.7 c-1.2-1-3.2-2.6-6.2-4c-0.7,0.7-1.2,1.1-2.4,1.9L502.1,37.8z M507.7,33.3c-0.8,1.5-1.3,2-1.8,2.7c0.9,0.4,3.7,1.8,6.2,3.9 c1-1.5,2.1-3.3,2.6-6.6H507.7z"/> <path fill="#999999" d="M536.5,38.3v1.2h-15.5v-1.2H536.5z"/> <path fill="#999999" d="M551.6,41c-1.9-1.1-4.6-2.6-8.4-4v9.5H542V31.2h1.2V36c3.2,1,6.1,2.5,9,4L551.6,41z"/> </g> <polygon fill="#555555" points="404.5,83.8 418.5,70.2 418.5,15 404.5,0.7 "/> <polyline fill="none" stroke="#222222" stroke-miterlimit="10" points="486.5,19.3 576.5,19.3 590,32.8 "/> <circle fill="#555555" cx="193.5" cy="46.3" r="2.9"/> <circle fill="#555555" cx="396.3" cy="46.3" r="2.9"/> <g> <path fill="#FFFFFF" d="M128.2,68.5c0.4,0.1,0.6,0.3,0.8,0.7c0.2,0.3,0.3,0.8,0.3,1.4v1.9h-0.9v-1.9c0-0.4,0-0.6-0.1-0.8 c-0.1-0.2-0.3-0.3-0.5-0.4l-2.1,3.3l-0.8-0.5l2-3.1c0.2-0.3,0.4-0.7,0.5-1.2c0.1-0.5,0.1-0.9,0.1-1.3h-2.5v-1h3.5v0.8 C128.6,67.2,128.5,67.9,128.2,68.5z"/> <path fill="#FFFFFF" d="M134.7,72.7l-0.8-0.5c0.5-0.6,0.8-1,1-1.4c0.2-0.4,0.3-0.6,0.3-0.9v-0.8h-2v-0.9h4.9v0.9h-2v0.8 c0,0.4-0.1,0.8-0.4,1.3C135.5,71.6,135.2,72.1,134.7,72.7z M133.9,65.5h3.4v1h-3.4V65.5z"/> <path fill="#FFFFFF" d="M142.4,67.2l0.9-0.3c0.3,0.8,0.4,1.5,0.5,2.1l-0.9,0.2C142.8,68.5,142.6,67.8,142.4,67.2z M145.3,68.6v-1.8 h0.9v1.9c0,0.5-0.2,1.1-0.6,1.8c-0.4,0.6-0.8,1.3-1.4,2l-0.8-0.6c0.5-0.6,0.9-1.2,1.3-1.8C145.1,69.6,145.3,69.1,145.3,68.6z M143.6,66.8l0.9-0.3c0.3,0.8,0.4,1.5,0.5,2.1l-0.9,0.2C144,68.2,143.9,67.5,143.6,66.8z"/> <path fill="#FFFFFF" d="M150.7,66.5v-1h4.5v2.9c0,0.4-0.2,1-0.7,1.6c-0.4,0.7-1,1.5-1.8,2.5l-0.8-0.5c0.9-1.1,1.5-1.9,1.8-2.4 c0.3-0.5,0.5-0.9,0.5-1.3v-1.9H150.7z M156.1,65.5c-0.2-0.2-0.2-0.4-0.2-0.6c0-0.2,0.1-0.4,0.2-0.6c0.2-0.2,0.4-0.2,0.6-0.2 c0.2,0,0.4,0.1,0.6,0.2c0.2,0.2,0.2,0.4,0.2,0.6c0,0.2-0.1,0.4-0.2,0.6c-0.2,0.2-0.4,0.2-0.6,0.2C156.4,65.8,156.2,65.7,156.1,65.5 z M156.2,64.9c0,0.1,0,0.2,0.1,0.3c0.1,0.1,0.2,0.1,0.3,0.1c0.1,0,0.2,0,0.3-0.1c0.1-0.1,0.1-0.2,0.1-0.3c0-0.1,0-0.2-0.1-0.3 c-0.1-0.1-0.2-0.1-0.3-0.1s-0.2,0-0.3,0.1C156.3,64.7,156.2,64.8,156.2,64.9z"/> <path fill="#FFFFFF" d="M162.3,66.1l-1.7,1.3l-0.5-0.8l2.1-1.6h1.1v7.5h-1.1V66.1z"/> </g> <g> <path fill="#FFFFFF" d="M331.2,68.5c0.4,0.1,0.6,0.3,0.8,0.7c0.2,0.3,0.3,0.8,0.3,1.4v1.9h-0.9v-1.9c0-0.4,0-0.6-0.1-0.8 c-0.1-0.2-0.3-0.3-0.5-0.4l-2.1,3.3l-0.8-0.5l2-3.1c0.2-0.3,0.4-0.7,0.5-1.2c0.1-0.5,0.1-0.9,0.1-1.3h-2.5v-1h3.5v0.8 C331.6,67.2,331.5,67.9,331.2,68.5z"/> <path fill="#FFFFFF" d="M337.7,72.7l-0.8-0.5c0.5-0.6,0.8-1,1-1.4c0.2-0.4,0.3-0.6,0.3-0.9v-0.8h-2v-0.9h4.9v0.9h-2v0.8 c0,0.4-0.1,0.8-0.4,1.3C338.5,71.6,338.2,72.1,337.7,72.7z M336.9,65.5h3.4v1h-3.4V65.5z"/> <path fill="#FFFFFF" d="M345.4,67.2l0.9-0.3c0.3,0.8,0.4,1.5,0.5,2.1l-0.9,0.2C345.8,68.5,345.6,67.8,345.4,67.2z M348.3,68.6v-1.8 h0.9v1.9c0,0.5-0.2,1.1-0.6,1.8c-0.4,0.6-0.8,1.3-1.4,2l-0.8-0.6c0.5-0.6,0.9-1.2,1.3-1.8C348.1,69.6,348.3,69.1,348.3,68.6z M346.6,66.8l0.9-0.3c0.3,0.8,0.4,1.5,0.5,2.1l-0.9,0.2C347,68.2,346.9,67.5,346.6,66.8z"/> <path fill="#FFFFFF" d="M353.7,66.5v-1h4.5v2.9c0,0.4-0.2,1-0.7,1.6c-0.4,0.7-1,1.5-1.8,2.5l-0.8-0.5c0.9-1.1,1.5-1.9,1.8-2.4 c0.3-0.5,0.5-0.9,0.5-1.3v-1.9H353.7z M359.1,65.5c-0.2-0.2-0.2-0.4-0.2-0.6c0-0.2,0.1-0.4,0.2-0.6c0.2-0.2,0.4-0.2,0.6-0.2 c0.2,0,0.4,0.1,0.6,0.2c0.2,0.2,0.2,0.4,0.2,0.6c0,0.2-0.1,0.4-0.2,0.6c-0.2,0.2-0.4,0.2-0.6,0.2C359.4,65.8,359.2,65.7,359.1,65.5 z M359.2,64.9c0,0.1,0,0.2,0.1,0.3c0.1,0.1,0.2,0.1,0.3,0.1c0.1,0,0.2,0,0.3-0.1c0.1-0.1,0.1-0.2,0.1-0.3c0-0.1,0-0.2-0.1-0.3 c-0.1-0.1-0.2-0.1-0.3-0.1s-0.2,0-0.3,0.1C359.3,64.7,359.2,64.8,359.2,64.9z"/> <path fill="#FFFFFF" d="M364.4,71.5h3.3v1h-4.4v-0.6c0-0.5,0.1-1,0.2-1.5c0.2-0.4,0.4-0.7,0.6-1c0.2-0.2,0.6-0.5,1.2-0.9 c0.5-0.3,0.8-0.5,1.1-0.8c0.2-0.3,0.3-0.5,0.3-0.8c0-0.3-0.1-0.6-0.3-0.8c-0.2-0.2-0.5-0.3-0.8-0.3c-0.4,0-0.7,0-1.1,0.2 c-0.4,0.2-0.6,0.3-0.8,0.4l-0.5-0.8c0.7-0.4,1.4-0.7,2.2-0.7c0.7,0,1.2,0.2,1.7,0.5c0.5,0.4,0.7,0.9,0.7,1.5c0,0.6-0.2,1.1-0.6,1.5 c-0.4,0.3-0.9,0.7-1.4,1c-0.5,0.3-1,0.7-1.3,1.2C364.4,70.8,364.3,71.1,364.4,71.5z"/> </g> <g> <path fill="#FFFFFF" d="M532.2,68.5c0.4,0.1,0.6,0.3,0.8,0.7c0.2,0.3,0.3,0.8,0.3,1.4v1.9h-0.9v-1.9c0-0.4,0-0.6-0.1-0.8 c-0.1-0.2-0.3-0.3-0.5-0.4l-2.1,3.3l-0.8-0.5l2-3.1c0.2-0.3,0.4-0.7,0.5-1.2c0.1-0.5,0.1-0.9,0.1-1.3h-2.5v-1h3.5v0.8 C532.6,67.2,532.5,67.9,532.2,68.5z"/> <path fill="#FFFFFF" d="M538.7,72.7l-0.8-0.5c0.5-0.6,0.8-1,1-1.4c0.2-0.4,0.3-0.6,0.3-0.9v-0.8h-2v-0.9h4.9v0.9h-2v0.8 c0,0.4-0.1,0.8-0.4,1.3C539.5,71.6,539.2,72.1,538.7,72.7z M537.9,65.5h3.4v1h-3.4V65.5z"/> <path fill="#FFFFFF" d="M546.4,67.2l0.9-0.3c0.3,0.8,0.4,1.5,0.5,2.1l-0.9,0.2C546.8,68.5,546.6,67.8,546.4,67.2z M549.3,68.6v-1.8 h0.9v1.9c0,0.5-0.2,1.1-0.6,1.8c-0.4,0.6-0.8,1.3-1.4,2l-0.8-0.6c0.5-0.6,0.9-1.2,1.3-1.8C549.1,69.6,549.3,69.1,549.3,68.6z M547.6,66.8l0.9-0.3c0.3,0.8,0.4,1.5,0.5,2.1l-0.9,0.2C548,68.2,547.9,67.5,547.6,66.8z"/> <path fill="#FFFFFF" d="M554.7,66.5v-1h4.5v2.9c0,0.4-0.2,1-0.7,1.6c-0.4,0.7-1,1.5-1.8,2.5l-0.8-0.5c0.9-1.1,1.5-1.9,1.8-2.4 c0.3-0.5,0.5-0.9,0.5-1.3v-1.9H554.7z M560.1,65.5c-0.2-0.2-0.2-0.4-0.2-0.6c0-0.2,0.1-0.4,0.2-0.6c0.2-0.2,0.4-0.2,0.6-0.2 c0.2,0,0.4,0.1,0.6,0.2c0.2,0.2,0.2,0.4,0.2,0.6c0,0.2-0.1,0.4-0.2,0.6c-0.2,0.2-0.4,0.2-0.6,0.2C560.4,65.8,560.2,65.7,560.1,65.5 z M560.2,64.9c0,0.1,0,0.2,0.1,0.3c0.1,0.1,0.2,0.1,0.3,0.1c0.1,0,0.2,0,0.3-0.1c0.1-0.1,0.1-0.2,0.1-0.3c0-0.1,0-0.2-0.1-0.3 c-0.1-0.1-0.2-0.1-0.3-0.1s-0.2,0-0.3,0.1C560.3,64.7,560.2,64.8,560.2,64.9z"/> <path fill="#FFFFFF" d="M568.8,65v1.1l-1.9,2c0.7,0,1.2,0.3,1.6,0.7c0.4,0.3,0.6,0.8,0.6,1.4c0,0.8-0.3,1.4-0.8,1.8 c-0.6,0.5-1.4,0.7-2.4,0.6c-0.8-0.1-1.4-0.4-1.8-0.9l0.6-0.8c0.2,0.4,0.7,0.7,1.5,0.8c0.6,0.1,1-0.1,1.4-0.4 c0.3-0.2,0.4-0.6,0.4-1.1c0-0.4-0.2-0.7-0.5-0.9c-0.3-0.2-0.7-0.3-1.2-0.3h-0.8V68l2.1-2.1h-3.3V65H568.8z"/> </g> </svg> 