<svg xmlns="http://www.w3.org/2000/svg" x="0px" y="0px" viewBox="0 0 49.8 12.5"> <g> <path fill="#5aff4d" d="M6.9,1.9v2.4c0,0.4,0,0.8-0.1,1.2C6.7,5.8,6.6,6.2,6.3,6.6L5.2,7.9L4.1,7l1-1.2C5.3,5.4,5.5,5,5.4,4.5V3.4 H0V1.9H6.9z M2.3,4.9h1.5v2.3c0,0.5-0.2,1.3-0.7,2.4c-0.5,1.1-1,2-1.5,2.9l-1.2-0.7c0.5-0.9,1-1.8,1.4-2.6c0.4-0.8,0.5-1.5,0.5-2 V4.9z"/> <path fill="#5aff4d" d="M19.5,0H21v1.2c0,0.5-0.1,1.1-0.4,1.8c-0.3,0.7-0.7,1.3-1.1,1.8v7.4H18V6.2l-2.6,2.4l-1-1l3.3-3.2 c0.6-0.5,1-1.1,1.3-1.8c0.3-0.6,0.5-1.2,0.5-1.6V0z"/> <path fill="#5aff4d" d="M30.5,12.5l-1.1-0.8c0.7-0.8,1.2-1.5,1.5-2c0.3-0.5,0.4-0.9,0.4-1.3V7.2h-3V5.8h7.3v1.4h-3v1.2 c0,0.6-0.2,1.2-0.6,1.9C31.7,11,31.2,11.7,30.5,12.5z M29.3,1.9h5v1.5h-5V1.9z"/> <path fill="#5aff4d" d="M48.1,6.6c0.7,0.9,1,1.6,1.2,2.2l0.6,3.1l-1.4,0.3l-0.3-1.5l-5.2,1l-0.2-1.3l0.9-0.2 C43.8,8.7,44,7.7,44.1,7c0.1-0.7,0.7-2.5,1.7-5.5l1.3,0.3c-1,2.9-1.5,4.6-1.7,5.3c-0.1,0.6-0.2,1.6-0.4,2.8L48,9.4l-0.1-0.3 c0-0.3-0.3-1-0.9-1.9L48.1,6.6z"/> </g> </svg> 