<svg xmlns="http://www.w3.org/2000/svg" x="0px" y="0px" viewBox="0 0 191.4 15.6"> <g> <path fill="#5aff4d" d="M7.2,5.4h3.7v0.9H8.6C8.9,6.7,9.1,7,9.2,7.2l-1,0.3C8.1,7.1,7.8,6.7,7.5,6.3H6.7C6.3,6.7,6,7.1,5.6,7.4 C5.2,7.1,4.9,7,4.7,6.9c0.2-0.2,0.5-0.4,0.7-0.6h-2c0.2,0.3,0.3,0.6,0.4,0.9l-1,0.3C2.8,7.3,2.6,6.9,2.3,6.3H1.9 c-0.3,0.5-0.7,0.9-1,1.2C0.7,7.3,0.3,7.1,0,6.9c0.7-0.6,1.3-1.4,1.7-2.4l1,0.3C2.6,5.1,2.5,5.3,2.5,5.4h2.9v0.8 c0.5-0.6,0.9-1.1,1.1-1.8l1.1,0.3C7.5,4.8,7.4,5.1,7.2,5.4z M5.1,10.7H1.9v4.8h-1V7.6h4.3V10.7z M4.1,8.3H1.9v0.5h2.3V8.3z M1.9,10.1h2.3V9.5H1.9V10.1z M7.8,14.6H4.3V15h-1v-3.7h4.5V14.6z M6.8,11.9H4.3v0.7h2.5V11.9z M4.3,13.9h2.5v-0.7H4.3V13.9z M10.4,7.6v6.8c0,0.5-0.2,0.9-0.5,1C9.6,15.5,9,15.6,8,15.6c-0.1-0.4-0.2-0.7-0.3-1c0.6,0,1.1,0,1.4,0c0.2,0,0.2-0.1,0.2-0.2v-3.6 H6V7.6H10.4z M9.4,8.3H7v0.5h2.3V8.3z M7,10.1h2.3V9.5H7V10.1z"/> <path fill="#5aff4d" d="M24,13v1h-4.8v1.6h-1.1V14h-4.7v-1h4.7v-0.8h-3.5V7.9H23v4.3h-3.7V13H24z M18.3,5v2.3h-4.1V5H18.3z M17.3,6.7V5.7h-2v0.9H17.3z M15.7,8.8v0.8h2.4V8.8H15.7z M15.7,11.3h2.4v-0.9h-2.4V11.3z M23.3,5v2.3h-4.1V5H23.3z M21.8,9.6V8.8 h-2.6v0.8H21.8z M21.8,11.3v-0.9h-2.6v0.9H21.8z M22.2,6.7V5.7h-2v0.9H22.2z"/> <path fill="#5aff4d" d="M31.8,7.1h-2.4v7.5h-1.1V7.1h-0.7V6h0.7V5h1.1v1h2.4V7.1z M33.9,10.3h-0.6V13c0,0.3-0.1,0.6-0.2,0.9 s-0.3,0.5-0.5,0.6s-0.5,0.2-0.9,0.2c-0.3,0-0.6-0.1-0.9-0.2s-0.4-0.3-0.6-0.6s-0.2-0.6-0.2-0.9v-1.5c0-1.5,0.7-2.3,2-2.3V7.7h1.1 v1.5h0.6V10.3z M32.2,13.1v-2.8c-0.3,0-0.5,0.1-0.7,0.3s-0.2,0.5-0.2,0.9v1.6c0,0.2,0,0.3,0.1,0.4s0.2,0.2,0.3,0.2s0.2,0,0.3-0.1 S32.2,13.2,32.2,13.1z M33.9,5v2.1h-1.1V5H33.9z"/> <path fill="#5aff4d" d="M50.2,1.6v1.8l-3.3,3.5C48,6.9,48.9,7.3,49.6,8c0.7,0.5,1.1,1.4,1.1,2.5c0,1.4-0.5,2.4-1.5,3.2 c-1,0.8-2.4,1.2-4.2,1c-1.3-0.1-2.4-0.6-3.2-1.6l1-1.5c0.4,0.7,1.3,1.1,2.7,1.4c1,0.1,1.8-0.1,2.5-0.6c0.5-0.4,0.7-1,0.8-2 c0-0.7-0.3-1.2-0.8-1.6c-0.5-0.4-1.2-0.6-2.1-0.6h-1.4V6.9l3.6-3.7h-5.8V1.6H50.2z"/> <path fill="#5aff4d" d="M66,7.7c0.6,0.2,1.1,0.5,1.5,1.1c0.4,0.6,0.5,1.4,0.5,2.4v3.4h-1.6v-3.4c0.1-0.6,0-1.1-0.2-1.5 c-0.2-0.4-0.5-0.6-0.8-0.6l-3.7,5.8l-1.4-0.9l3.6-5.5c0.4-0.6,0.7-1.3,0.9-2.2c0.2-0.9,0.2-1.6,0.2-2.2h-4.4V2.4h6.1v1.5 C66.7,5.3,66.5,6.6,66,7.7z"/> <path fill="#5aff4d" d="M79.2,15l-1.4-0.9c0.9-1,1.5-1.8,1.8-2.4c0.3-0.6,0.5-1.1,0.5-1.5V8.8h-3.5V7.1h8.7v1.7h-3.5v1.4 c0,0.7-0.2,1.4-0.7,2.2C80.6,13.2,80,14.1,79.2,15z M77.8,2.4h6v1.8h-6V2.4z"/> <path fill="#5aff4d" d="M94.4,5.4L96,4.9c0.4,1.4,0.8,2.6,0.9,3.7l-1.6,0.3C95.1,7.7,94.8,6.6,94.4,5.4z M99.6,7.8V4.7h1.6V8 c0,0.9-0.4,2-1,3.1c-0.6,1.1-1.5,2.3-2.4,3.6l-1.3-1c0.9-1.1,1.6-2.2,2.2-3.1C99.3,9.6,99.6,8.7,99.6,7.8z M96.6,4.8l1.5-0.5 c0.4,1.4,0.8,2.6,0.9,3.7l-1.6,0.3C97.3,7.2,97.1,6,96.6,4.8z"/> <path fill="#5aff4d" d="M110.7,4.2V2.5h7.9v5.1c0,0.7-0.4,1.7-1.2,2.9c-0.8,1.2-1.8,2.7-3.2,4.4l-1.5-0.9c1.5-2,2.6-3.4,3.1-4.2 s0.9-1.6,0.9-2.2V4.2H110.7z M120.3,2.5c-0.3-0.3-0.4-0.6-0.4-1c0-0.4,0.1-0.8,0.4-1c0.3-0.3,0.6-0.4,1-0.4c0.4,0,0.7,0.1,1,0.4 c0.3,0.3,0.4,0.6,0.4,1c0,0.4-0.1,0.7-0.4,1c-0.3,0.3-0.6,0.4-1,0.4C120.9,2.9,120.5,2.8,120.3,2.5z M120.5,1.5 c0,0.2,0.1,0.4,0.2,0.6c0.1,0.2,0.3,0.2,0.6,0.2c0.2,0,0.4-0.1,0.6-0.2c0.2-0.2,0.2-0.3,0.2-0.6s-0.1-0.4-0.2-0.6 c-0.2-0.2-0.3-0.2-0.6-0.2c-0.2,0-0.4,0.1-0.6,0.2C120.6,1.1,120.5,1.2,120.5,1.5z"/> <path fill="#5aff4d" d="M134.4,13.5l-0.1,1.5c-1.9,0-3.3-0.3-4.1-1c-0.8-0.7-1.2-1.6-1.3-2.7v-0.9c0-0.8,0-1.5,0.1-2.1 c0.1-0.6,0.4-1.3,0.8-2l2.2-4.3h-4.8V0.3h8.9v1.6h-2.1l-2.4,4.8c-0.4,0.7-0.7,1.4-0.8,2s-0.1,1.2-0.1,1.8v0.6 c0,0.7,0.2,1.3,0.8,1.7C131.9,13.2,132.9,13.4,134.4,13.5z M136.7,0.3h0.8v2.4h-0.8V0.3z M138.4,0.3h0.8v2.4h-0.8V0.3z"/> <path fill="#5aff4d" d="M147.3,10c0.4,0.1,0.8,0.4,1,0.8s0.4,0.9,0.4,1.6v2.3h-1.1v-2.2c0-0.4,0-0.8-0.1-1s-0.3-0.4-0.5-0.4 l-2.5,3.9l-0.9-0.6l2.4-3.7c0.3-0.4,0.5-0.9,0.6-1.5s0.2-1.1,0.1-1.5h-2.9V6.5h4.1v1C147.8,8.4,147.6,9.3,147.3,10z"/> <path fill="#5aff4d" d="M158.8,7.6h-1.8c-0.3,1.3-0.8,2.4-1.4,3.3l-1-0.6c0.4-0.7,0.8-1.5,1.1-2.4s0.5-2,0.7-3.1l1.1,0.2l-0.3,1.4 h2.8v2.8c0,0.5-0.2,1.1-0.6,1.9s-1.4,2-3,3.8l-0.9-0.8c1.3-1.4,2.2-2.5,2.6-3.1l-1.2-0.6l0.5-0.9l1.2,0.6c0.2-0.3,0.2-0.7,0.2-1.1 V7.6z"/> <path fill="#5aff4d" d="M165.3,10.9V9.7h7.4v1.3H165.3z"/> <path fill="#5aff4d" d="M181.6,11.1c-0.8-0.5-1.4-0.9-1.7-1.1s-0.7-0.3-1.1-0.3v5h-1.1V5h1.1v3.4c0.4,0,0.9,0.1,1.4,0.4 s1.2,0.7,2,1.3L181.6,11.1z"/> <path fill="#5aff4d" d="M189.7,5.9h1.7c0,2-0.1,3.9-0.3,5.5h-1C189.8,9.6,189.7,7.8,189.7,5.9z M189.8,13.3h1.5v1.3h-1.5V13.3z"/> </g> </svg> 