<svg xmlns="http://www.w3.org/2000/svg" x="0px" y="0px" viewBox="0 0 41.6 12.5"> <g> <path fill="#5aff4d" d="M5.8,5.3c0.6,0.2,1.1,0.5,1.5,1.1C7.6,7,7.8,7.8,7.8,8.8v3.4H6.2V8.8c0.1-0.6,0-1.1-0.2-1.5 C5.7,7,5.5,6.8,5.1,6.7l-3.7,5.8L0,11.7l3.6-5.5C4,5.6,4.3,4.8,4.5,4c0.2-0.9,0.2-1.6,0.2-2.2H0.3V0h6.1v1.5 C6.4,2.9,6.2,4.2,5.8,5.3z"/> <path fill="#5aff4d" d="M17.5,0h6.7v12.1h-6.9v-1.8h5.1V1.8h-4.9V0z"/> <path fill="#5aff4d" d="M41.6,0v2.8c0,0.5,0,0.9-0.1,1.4c-0.1,0.5-0.3,0.9-0.6,1.3l-1.3,1.6L38.3,6l1.2-1.4 c0.3-0.4,0.5-0.9,0.4-1.5V1.8h-6.4V0H41.6z M36.2,3.6h1.8v2.7c0,0.6-0.2,1.6-0.8,2.8c-0.5,1.2-1.1,2.4-1.8,3.4l-1.5-0.8 c0.6-1.1,1.2-2.2,1.6-3.1c0.4-1,0.6-1.7,0.6-2.3V3.6z"/> </g> </svg> 